<?xml version="1.0" encoding="utf-8"?>
<!-- Generator: Adobe Illustrator 25.2.0, SVG Export Plug-In . SVG Version: 6.00 Build 0)  -->
<svg version="1.1" id="Layer_1" xmlns="http://www.w3.org/2000/svg" xmlns:xlink="http://www.w3.org/1999/xlink" x="0px" y="0px"
	 viewBox="0 0 891.3 745.2"  xml:space="preserve">
<style type="text/css">
	.st0{display:none;fill:#F2F2F2;}
	.st1{display:none;fill:#6C63FF;}
	.st2{display:none;fill:#2F2E41;}
	.st3{display:none;fill:#A0616A;}
	.st4{display:none;fill:#FFB8B8;}
	.st5{fill:#150500;}
	.st6{fill:#FFFFFF;}
	.st7{fill:#3F3D56;}
	.st8{fill:#6C63FF;}
	.st9{fill:#E6E6E6;}
	.st10{fill:#E83F53;}
	.st11{fill:#BF2133;}
	.st12{fill:#FF7081;}
	.st13{fill:#FFDF57;}
	.st14{fill:#FFA3A3;}
	.st15{fill:#FF8282;}
	.st16{fill:#FF4F4F;}
	.st17{fill:#FDBFA8;}
	.st18{opacity:0.47;fill:#FF8282;enable-background:new    ;}
	.st19{fill:#FDD3C3;}
	.st20{fill:#2E230E;}
	.st21{fill:#A31727;}
	.st22{fill:#FF8482;}
	.st23{fill:#FF5B59;}
	.st24{fill:#6F87ED;}
	.st25{fill:#420E2F;}
	.st26{fill:#7C1A59;}
	.st27{fill:#FDB193;}
	.st28{opacity:0.39;fill:#FF8282;enable-background:new    ;}
	.st29{opacity:0.55;fill:#FDB193;enable-background:new    ;}
	.st30{fill:#FDD5C5;}
	.st31{fill:#230F0B;}
	.st32{fill:#E8132C;}
	.st33{fill:#FF6A68;}
	.st34{fill:#25110D;}
	.st35{fill:url(#SVGID_1_);}
	.st36{fill:url(#SVGID_2_);}
	.st37{opacity:0.85;}
	.st38{fill:none;stroke:#000000;stroke-width:0.5;stroke-miterlimit:10;}
	.st39{opacity:0.73;fill:#00150A;stroke:#000000;stroke-width:0.5;stroke-miterlimit:10;enable-background:new    ;}
	.st40{fill:#170074;stroke:#000000;stroke-width:0.5;stroke-miterlimit:10;}
	.st41{opacity:0.24;fill:#D7E1F2;enable-background:new    ;}
</style>
<g id="mobile">
	<ellipse class="st0" cx="418.6" cy="727.2" rx="352" ry="18"/>
	<path class="st1" d="M531.7,322.6c-1.6,0.8-3.1,1.6-4.7,2.3c-1.5,0.7-2.9,1.3-4.4,1.9c-0.6,0.2-1.1,0.4-1.7,0.6
		c-4.4,1.6-9,2.9-13.6,3.8c-2.3,0.4-4.6,0.8-7,1.1c-1.9,0.2-3.9,0.4-5.9,0.5c-1.4,0.1-2.8,0.1-4.2,0.1c-5.6,0-11.2-0.5-16.8-1.6
		c-1.4-0.3-2.9-0.6-4.3-0.9c-6.8-1.6-13.4-4.1-19.7-7.3c-0.6-0.3-1.1-0.6-1.7-0.9c-0.8-0.4-1.6-0.9-2.4-1.4c0.4-0.5,0.8-1.1,1.2-1.6
		c18.4-22.8,51.8-26.4,74.6-8c1.5,1.2,2.9,2.5,4.3,3.9c1.8,1.8,3.5,3.8,5.1,5.9C530.9,321.5,531.3,322,531.7,322.6z"/>
	<circle class="st2" cx="492.1" cy="234.8" r="43.9"/>
	
		<ellipse transform="matrix(0.3714 -0.9285 0.9285 0.3714 74.6439 610.4033)" class="st3" cx="488.1" cy="250.1" rx="32.7" ry="32.7"/>
	<path class="st2" d="M522.5,229.5c-7.5,5.1-16.3,7.9-25.4,7.9c3.2,2.2,6.9,3.8,10.8,4.4c-12.1,2.6-24.5,2.7-36.6,0.2
		c-2.7-0.4-5.3-1.3-7.7-2.6c-2.4-1.3-4.1-3.6-4.7-6.3c-0.8-4.6,2.8-8.8,6.5-11.6c11.5-8.6,26.3-11.5,40.2-8c4.5,1.2,9,3.1,11.9,6.7
		s3.8,9.2,1,12.9L522.5,229.5z"/>
	<path class="st2" d="M469.9,191.5c-0.5-5-6.6-8-11.3-6.5s-7.9,6.3-8.8,11.2c-0.9,4.2-0.1,8.5,2.2,12.1c2.4,3.5,6.8,5.6,11,4.7
		c4.7-1,8-5.6,8.9-10.3s0-9.6-0.9-14.3L469.9,191.5z"/>
	<path class="st2" d="M536.9,198.6c-0.5-5-6.6-8-11.3-6.5s-7.9,6.3-8.8,11.2c-0.9,4.2-0.1,8.5,2.2,12.1c2.4,3.5,6.8,5.6,11,4.7
		c4.7-1,8-5.6,8.9-10.3s0-9.6-0.9-14.3L536.9,198.6z"/>
	<path class="st1" d="M449.2,628.7c-28.4,18.2-64.7,18.8-93.7,1.5c2.5-4.7,5.7-8.9,9.4-12.7c20.8-20.9,54.6-21,75.6-0.2
		c3.2,3.2,6,6.8,8.3,10.7C448.9,628.3,449.1,628.5,449.2,628.7z"/>
	<circle class="st2" cx="398.4" cy="536.7" r="44.2"/>
	<circle class="st4" cx="402.5" cy="552.1" r="32.9"/>
	<path class="st2" d="M367.9,531.4c7.5,5.2,16.4,7.9,25.6,7.9c-3.3,2.3-7,3.8-10.9,4.5c12.1,2.6,24.7,2.7,36.9,0.2
		c2.7-0.4,5.3-1.3,7.7-2.6c2.4-1.4,4.2-3.7,4.8-6.4c0.8-4.6-2.8-8.8-6.5-11.6c-11.6-8.6-26.5-11.6-40.5-8.1c-4.5,1.2-9.1,3.1-12,6.8
		s-3.8,9.2-1,13L367.9,531.4z"/>
	<ellipse class="st0" cx="554.6" cy="605.7" rx="24.5" ry="2.7"/>
	<ellipse class="st0" cx="335.6" cy="285.7" rx="24.5" ry="2.7"/>
</g>
<g id="av-1">
</g>
<g id="av-2">
	<g>
		<g>
			<g>
				<path class="st5" d="M583.3,300.6L583.3,300.6c-0.7,0-1.4-0.4-1.5-0.9l-6.8-43.5c-2.1-13.7-21.4-24.4-43.1-24.4H393.8
					c-21,0-39.8,10.4-42.1,23.7l-60.2,351.4c-5.7,33.2,18.7,61.7,54.8,61.7h229.9c35,0,59-27.6,54-59.9l-42.5-271
					c-0.1-0.5,0.5-1,1.2-1l0,0c0.8,0,1.3-0.4,1.2-1l-5.5-34.2C584.6,301,584,300.6,583.3,300.6z"/>
			</g>
		</g>
		<path class="st6" d="M566.5,255.6l50.9,352.6c3.4,23.9-14.5,44-40.3,44H347.6c-25.7,0-43.5-20.2-39.8-44l54.8-352.6
			c1.5-10,15.6-17.8,31.4-17.8h11.2c2.8,0,4.8,1.4,4.7,3c-0.3,3.3,2.6,6.5,7.9,7.9c1.6,0.4,3.4,0.6,5.2,0.6h81.9
			c7.7,0,13.6-3.8,13.2-8.5l0,0c-0.1-1.7,1.9-3.1,4.7-3.1h12.4C551.1,237.8,565,245.6,566.5,255.6z"/>
		<path class="st7" d="M503.1,336.3c-34.6,0-63.3,20-64.3,46.2c-0.6,17.5,11.3,34.4,32,44.2l0.5,0.2c0.4,0.2,0.7,0.3,1.1,0.5
			c0.6,0.3,1.3,0.6,1.9,0.8c0.4,0.2,0.9,0.4,1.3,0.5c4.9,1.9,10.1,3.4,15.5,4.4c1.1,0.2,2.2,0.4,3.4,0.6c4.4,0.6,8.8,1,13.2,1
			c1.1,0,2.2,0,3.3-0.1c1.6-0.1,3.1-0.2,4.6-0.3c1.8-0.2,3.6-0.4,5.4-0.7c3.6-0.5,7.1-1.3,10.5-2.3c0.4-0.1,0.9-0.3,1.3-0.4
			c1.2-0.4,2.3-0.7,3.4-1.1c1.2-0.4,2.4-0.9,3.6-1.4c11.7-4.9,20.8-12.4,26.4-21.4l0.1-0.1c2.9-4.7,4.7-9.8,5.4-15
			c3.5-26.4-22.1-50.3-56.6-54.9C511.1,336.6,507.1,336.3,503.1,336.3L503.1,336.3z M564.8,406.4c-0.1,0.1-0.1,0.2-0.1,0.2
			c-5.5,8.8-14.5,16.1-26,20.9c-1.2,0.5-2.3,0.9-3.5,1.4c-1,0.4-2,0.7-3,1c-0.4,0.1-0.9,0.3-1.3,0.4c-2.9,0.9-6,1.5-9,2.1
			c-2.3,0.4-4.6,0.7-7,0.9c-1.4,0.1-2.9,0.2-4.4,0.3c-0.9,0-1.9,0-2.9,0c-4.3,0-8.5-0.3-12.8-0.9c-2.6-0.4-5.1-0.9-7.6-1.4
			c-3.8-0.9-7.5-2.1-11-3.5c-0.4-0.2-0.8-0.3-1.2-0.5c-0.6-0.2-1.1-0.5-1.7-0.7c-0.4-0.2-0.8-0.4-1.3-0.6c-0.2-0.1-0.5-0.2-0.7-0.3
			c-31.7-15.1-40.2-45.6-21-67.4c18.2-20.7,55.7-26.9,85.4-14.6C565.4,355.9,578.9,383.3,564.8,406.4z"/>
		<path class="st6" d="M385.8,411.6c-1,0-1.8-0.3-2.4-0.9L350,380.3c-0.7-0.7-1.9-1.1-3.1-1.1H154.2c-6.1,0-9.6-3.6-7.8-8l19.1-47.1
			c1.6-3.9,7.4-7,13-7h230.4c5.6,0,10,3.1,9.7,7l-3.1,47.1c-0.3,4.4-5.5,8-11.6,8h-7.1c-2.4,0-4.5,1.5-4.7,3.3l-2.5,26.5
			c-0.1,1.1-1.1,2.1-2.4,2.4C386.7,411.5,386.3,411.6,385.8,411.6z"/>
		<g>
			<g>
				<path class="st7" d="M385.8,411.6c-1,0-1.8-0.3-2.4-0.9L350,380.3c-0.7-0.7-1.9-1.1-3.1-1.1H154.2c-6.1,0-9.6-3.6-7.8-8
					l19.1-47.1c1.6-3.9,7.4-7,13-7h230.4c5.6,0,10,3.1,9.7,7l-3.1,47.1c-0.3,4.4-5.5,8-11.6,8h-7.1c-2.4,0-4.5,1.5-4.7,3.3
					l-2.5,26.5c-0.1,1.1-1.1,2.1-2.4,2.4C386.7,411.5,386.3,411.6,385.8,411.6z M178.1,318c-4.9,0-9.9,2.7-11.3,6.1l-19,47.1
					c-1.5,3.8,1.5,6.9,6.7,7H347c1.6,0,3.1,0.5,4.1,1.4l33.4,30.4c0.7,0.6,1.9,0.6,2.7,0.1c0.4-0.3,0.7-0.7,0.7-1.1l2.5-26.5
					c0.2-2.4,3-4.3,6.3-4.3h7.1c5.3,0,9.8-3.1,10-7l3.2-47.1c0.2-3.4-3.5-6-8.4-6.1H178.1z"/>
			</g>
		</g>
		<path class="st8" d="M190.6,324.3c5,0,8,2.8,6.8,6.2c-1.2,3.5-6.4,6.3-11.4,6.3s-8.1-2.8-6.7-6.3
			C180.5,327.1,185.6,324.3,190.6,324.3z"/>
		<path class="st9" d="M393.7,366.8H170.1c-2.8,0-4.4-1.6-3.7-3.6c0.8-2,3.6-3.6,6.4-3.6l0,0h221.6c2.8,0,4.9,1.6,4.7,3.6
			C398.9,365.2,396.5,366.8,393.7,366.8z"/>
		<path class="st9" d="M323.7,351.5H175.9c-2.7,0-4.4-1.6-3.6-3.5c0.7-1.9,3.5-3.5,6.3-3.5l0,0H325c2.7,0,4.6,1.6,4.3,3.5
			C329,350,326.5,351.5,323.7,351.5z"/>
		<path class="st6" d="M566.9,591.4c-1.7-0.6-2.9-2-3-3.6l-3.7-38.8c-0.3-2.6-2.8-4.7-5.8-4.7h-8.5c-7.3,0-13.6-5.2-14.1-11.6
			l-4.5-67.4c-0.4-5.5,4.8-9.8,11.4-9.8H812c6.7,0,13.8,4.4,16,9.8l27.2,67.4c2.6,6.4-1.3,11.6-8.6,11.6h-232
			c-1.5,0-2.8,0.6-3.7,1.5l-39.5,44.6c-0.7,0.8-1.8,1.3-2.9,1.3C567.9,591.7,567.4,591.6,566.9,591.4z"/>
		<g>
			<g>
				<path d="M567,592.1c-1.7-0.6-2.9-2-3-3.6l-3.7-38.8c-0.3-2.6-2.8-4.7-5.8-4.7H546c-7.3,0-13.6-5.3-14.1-11.7l-4.5-67.5
					c-0.4-5.5,4.8-9.8,11.4-9.8h273.5c6.7,0,13.8,4.4,16.1,9.8l27.3,67.5c2.6,6.4-1.2,11.6-8.6,11.7H614.7c-1.5,0-2.8,0.6-3.7,1.5
					l-39.5,44.7c-0.7,0.8-1.8,1.3-2.9,1.3C568,592.4,567.5,592.3,567,592.1z M539,457.3c-5.8,0-10.2,3.8-9.9,8.5l4.6,67.5
					c0.4,5.5,5.8,10.1,12.2,10.1h8.5c3.9,0,7.3,2.8,7.7,6.3l3.7,38.8c0.1,1.2,1.2,2.2,2.5,2.2c0.7,0,1.2-0.3,1.6-0.7l39.5-44.6
					c1.2-1.3,2.9-2,4.9-2h232c6.4,0,9.7-4.5,7.5-10.1l-27.1-67.5c-1.9-4.7-8.1-8.5-13.9-8.5H539z"/>
			</g>
		</g>
		<path class="st7" d="M419.9,633.4c-48.1,0-82.3-36.4-77-78c4.9-38.3,42.2-67.3,83.7-67.3s76.1,29,77.5,67.3
			c0.9,25.3-12.9,50-37.2,64.9C453,628.9,436.6,633.5,419.9,633.4z M426.5,489.5c-40.6,0-77.1,28.4-81.9,65.9
			c-5.1,40.7,28.4,76.2,75.4,76.2c46.9,0,83.7-35.5,82.3-76.2l0,0C501,517.9,467.1,489.5,426.5,489.5z"/>
		<path class="st8" d="M561.8,465.4c5.9,0,11.1,3.9,11.7,8.8c0.6,4.9-3.8,9-9.9,9s-11.3-4-11.7-9
			C551.5,469.3,555.9,465.4,561.8,465.4z"/>
		<path class="st9" d="M831.2,526.2H562.5c-3.4,0-6.3-2.4-6.6-5.3c-0.3-2.9,2.2-5.2,5.5-5.2l0,0h265.7c3.3,0,6.9,2.3,8,5.2
			C836.3,523.8,834.5,526.2,831.2,526.2z"/>
		<path class="st9" d="M737.3,504.2H560.4c-3.3,0-6.2-2.2-6.4-5c-0.3-2.8,2.2-5,5.4-5l0,0h175c3.3,0,6.5,2.2,7.3,5
			C742.5,501.9,740.6,504.2,737.3,504.2z"/>
		<path class="st6" d="M502.5,240h-75.9c-1,0-1.8-0.5-1.8-1.1l0,0c0-0.6,0.9-1.1,1.9-1.1h75.6c1,0,1.9,0.5,1.9,1.1l0,0
			C504.4,239.5,503.6,240,502.5,240z"/>
		<path class="st6" d="M511.5,238.9c0,0.7-0.9,1.3-2.1,1.3s-2.2-0.6-2.3-1.3c0-0.7,0.9-1.3,2.1-1.3S511.4,238.1,511.5,238.9z"/>
		<path class="st10" d="M461.9,376c0.8-3.3,1.6-6.7,4.1-9.4c2.3-2.5,5.9-4.7,5.7-7.5c-0.1-1.4-1.2-2.7-1.4-4.1
			c-0.2-2.2,2.1-4.4,5.2-5.1c2.3-0.6,4.9-0.4,7.1,0.4c0,0,0,0,0-0.1c3.1-6.6,19.3-9.1,28.1-7.9c9.5,1.3,18,6.3,21.4,12.6
			c0.8,1.4,1.3,2.9,2.3,4.3c4.4,6,12.8,5.5,16.6,15.5c3.2,8.6-2.7,18.3-9.4,21.6c-17.7,8.8-51.1,6.5-62.8,3.6
			C458.3,395,461.1,379.5,461.9,376z"/>
		<path class="st11" d="M467.9,379.6c0,0-1.2,10.5,7.4,19.4c1.2,0.4,2.4,0.8,3.6,1.1c10.7,2.6,39.5,4.8,57.9-1.6
			c3.7-4.9,5-11.2,2.7-18.9H467.9z"/>
		<path class="st12" d="M509.2,345.1c14.3,1.5,23.7,11.4,23.7,11.4l0,0c-0.2-0.5-0.5-1-0.8-1.5c-3.4-6.3-11.9-11.3-21.4-12.6
			c-8.7-1.2-25,1.2-28.1,7.9c0,0,0,0,0,0.1C482.7,350.3,495,343.5,509.2,345.1z"/>
		<path class="st12" d="M475.6,349.8c-2.6,0.6-4.8,2.3-5.1,4.1c5.1-2.9,11-3.7,12.1-3.8C480.4,349.4,477.9,349.3,475.6,349.8z"/>
		<path class="st13" d="M478.8,406.5c14.6-4.3,19.2-9.6,17.7-17.1h15.8c-0.8,7.5,4.3,12.8,19.2,17.1c15.1,4.4,17.6,9.2,17.6,9.2h-87
			C462.1,415.6,464.1,410.8,478.8,406.5z"/>
		<path class="st14" d="M512.3,389.4h-15.8c1.1,5.4-1.1,9.7-7.9,13.3c9.5,7.1,24.6,7.4,33.9,0.5
			C514.5,399.5,511.7,395.1,512.3,389.4z"/>
		<path class="st15" d="M506.4,389.4h-9.9c0.7,3.5,0,6.6-2.4,9.2c3.6,1.3,7.3,2,10.7,1.9c3.8-0.1,7.5-0.6,11-1.5
			c-2.9-2.8-3.9-5.9-3.5-9.6H506.4z"/>
		<path class="st15" d="M483.6,376.2c2.7,3.5,1.7,7.6-2.3,9.1s-9.4-0.2-12-3.8c-2.6-3.5-1.5-7.6,2.4-9
			C475.6,371,480.9,372.7,483.6,376.2z"/>
		<path class="st16" d="M481.4,382.9c0-0.1-0.1-0.3-0.1-0.4c0,0.1,0.1,0.2,0.1,0.3c0-0.6-0.2-1.2-0.5-1.8c-2.1-6-10-6.6-10-6.6
			c4,1.7,6.5,3.6,8.1,5.1c-2.9-0.8-7.2,0.9-7.2,0.9c5.2-1,7.6-0.2,8.7,0.8C480.8,381.8,481.2,382.3,481.4,382.9z"/>
		<path class="st15" d="M523.5,376.2c-2.4,3.5-1,7.6,3.1,9.1s9.3-0.2,11.7-3.8c2.3-3.5,0.8-7.6-3.2-9
			C531,371,525.9,372.7,523.5,376.2z"/>
		<path class="st16" d="M526.3,382.9c0-0.1,0-0.3,0-0.4c0,0.1,0,0.2,0,0.3c0-0.6,0.1-1.2,0.3-1.8c1.6-6,9.4-6.6,9.4-6.6
			c-3.9,1.7-6.2,3.6-7.6,5.1c2.8-0.8,7.3,0.9,7.3,0.9c-5.3-1-7.6-0.2-8.6,0.8C526.7,381.8,526.5,382.3,526.3,382.9z"/>
		<path class="st17" d="M504.7,397.4c17.8-0.7,24.6-8.1,23.8-17.8l-0.8-10.7c-0.5-6.9-8.9-12.4-18.7-12.4h-12.3
			c-9.8,0-12.1,3.8-13.7,13.6c-0.4,2.4-3.9,5.5-3.8,9.5C479.5,389.3,493.9,397.8,504.7,397.4z"/>
		<path class="st18" d="M503.7,386.7c0,0,5.7,0.4,8.3-2.1c0,0,0.3,2.3-2.6,3C506.5,388.2,503.7,386.7,503.7,386.7z"/>
		<path class="st19" d="M504.5,393.1c-8.6,0.3-19.1-3.9-24.5-9.9c3.1,8.1,15.2,14.6,24.7,14.2c14.1-0.6,21.3-5.4,23.3-12.2
			C524.2,389.7,516.7,392.7,504.5,393.1z"/>
		<path class="st20" d="M515.8,374.7c0.1,1.3-0.5,2.4-1.4,2.4c-0.8,0-1.6-1.1-1.6-2.4c-0.1-1.3,0.5-2.4,1.4-2.4
			S515.7,373.4,515.8,374.7z"/>
		<path class="st20" d="M491.7,374.7c0,1.3,0.7,2.4,1.6,2.4s1.5-1.1,1.4-2.4c0-1.3-0.7-2.4-1.6-2.4S491.7,373.4,491.7,374.7z"/>
		<path class="st21" d="M485.7,371.9c0,0,7.6-2.9,11.7-3.2c0,0-1.6-3.1-6.3-1.9C485.6,368.1,485.7,371.9,485.7,371.9z"/>
		<path class="st21" d="M521.4,371.9c0,0-7.8-2.9-11.9-3.2c0,0,1.3-3.1,6.1-1.9C521.2,368.1,521.4,371.9,521.4,371.9z"/>
		<path class="st15" d="M507.7,379.8c0.1,1.2-1.2,2.1-2.8,2.1c-1.6,0-2.9-0.9-2.9-2.1c0-1.1,1.1-4.1,2.7-4.1
			S507.6,378.6,507.7,379.8z"/>
		<path class="st15" d="M492,383c-0.1,0-0.2,0-0.3,0c-0.3-0.1-0.5-0.3-0.4-0.6l0,0l2-3c0.2-0.2,0.6-0.3,0.9-0.2
			c0.3,0.1,0.5,0.3,0.4,0.6l0,0l-2,3C492.5,382.9,492.2,383,492,383z"/>
		<path class="st15" d="M487.8,383c-0.1,0-0.2,0-0.3,0c-0.3-0.1-0.5-0.3-0.4-0.6l0,0l2-3c0.2-0.2,0.6-0.3,0.9-0.2
			c0.3,0.1,0.5,0.3,0.4,0.6l0,0l-2,3C488.2,382.9,488,383,487.8,383z"/>
		<path class="st15" d="M517.6,383c-0.3,0-0.5-0.1-0.6-0.3l-2.3-3c-0.2-0.2-0.1-0.5,0.2-0.6l0,0c0.3-0.1,0.7,0,0.9,0.2l2.3,3
			c0.2,0.2,0.1,0.5-0.2,0.6c0,0,0,0-0.1,0C517.8,383,517.7,383,517.6,383z"/>
		<path class="st15" d="M520.9,382.8c-0.3,0-0.5-0.1-0.6-0.3l-2.3-3c-0.2-0.2-0.1-0.5,0.2-0.6c0,0,0,0,0.1,0c0.3-0.1,0.7,0,0.9,0.2
			l2.3,3c0.2,0.2,0.1,0.5-0.2,0.6l0,0C521.1,382.8,521,382.8,520.9,382.8z"/>
		<path class="st15" d="M504,385.4c-1.5,0-3-0.1-4.4-0.4c-0.4-0.1-0.7-0.4-0.6-0.7l0,0c0.1-0.3,0.6-0.5,1-0.4
			c0.1,0,7.4,1.6,11.1-1.9c0.3-0.3,0.8-0.3,1.1-0.1c0.3,0.2,0.4,0.5,0.2,0.8l0,0C510.2,384.9,506.8,385.4,504,385.4z"/>
		<path class="st10" d="M521.2,354.1l-17.3-3l-23.6,5.3l-0.8,21.4c3.8-3.3,7.9-13.5,9.8-18.9c6.2,7.5,25.4,8,34.6,7.9
			c0.7,9.3,4.6,12.8,4.6,12.8l0.3-13L521.2,354.1z"/>
		<g>
			<g id="OBJECTS">
				<path class="st22" d="M457.1,594.2c-17.8-6.7-23.4-14.9-21.5-26.5h-19.3c0.9,11.6-5.4,19.8-23.8,26.5
					c-18.6,6.8-21.8,14.3-21.8,14.3h106.9C477.7,608.5,475.2,601,457.1,594.2z"/>
				<path class="st23" d="M425,586.7c5,0,10-1.2,14.4-3.3c-3.8-4.5-4.9-9.6-3.9-15.7h-19.3c0.5,6.1-1,11.3-5.3,15.8
					C415.3,585.6,420.1,586.7,425,586.7z"/>
				<path class="st24" d="M457.1,594.2c-6.2-2.3-10.9-4.9-14.4-7.6L425.6,601l-18-14.5c-3.7,2.8-8.7,5.4-15.2,7.8
					c-18.6,6.8-21.8,14.3-21.8,14.3h106.9C477.7,608.5,475.2,601,457.1,594.2z"/>
				<path class="st22" d="M402.4,547.3c2.8,5.4,1.1,11.7-4,14c-5,2.3-11.4-0.3-14.1-5.8c-2.7-5.4-0.8-11.6,4.1-13.8
					C393.4,539.4,399.6,542,402.4,547.3z"/>
				<path class="st23" d="M398.9,557.7c0-0.2,0-0.4,0-0.6c0,0.1,0,0.3,0,0.4c0.1-0.9,0-1.9-0.3-2.7c-1.8-9.2-11.3-10.1-11.3-10.1
					c4.6,2.6,7.5,5.5,9.2,7.9c-3.4-1.3-8.9,1.4-8.9,1.4c6.5-1.5,9.3-0.3,10.5,1.2C398.4,555.9,398.7,556.8,398.9,557.7z"/>
				<path class="st22" d="M451,547.3c-3.3,5.4-2.1,11.7,2.8,14c4.8,2.3,11.4-0.3,14.6-5.8c3.2-5.4,1.8-11.6-2.9-13.8
					C460.7,539.4,454.2,542,451,547.3z"/>
				<path class="st23" d="M453.6,557.7c0-0.2,0.1-0.4,0.1-0.6c0,0.1-0.1,0.3-0.1,0.4c0-0.9,0.2-1.9,0.6-2.7
					c2.6-9.2,12.2-10.1,12.2-10.1c-4.9,2.6-7.9,5.5-9.8,7.9c3.5-1.3,8.8,1.4,8.8,1.4c-6.3-1.5-9.2-0.3-10.6,1.2
					C454.3,555.9,453.9,556.8,453.6,557.7z"/>
				<path class="st25" d="M464.4,525c3.8-7.2,8.4-19.6-10-26.7c0.1,0.1-7.7-5.6-22.2,4.7c-4.7,3.4-10.9,4.9-16.6,3.3
					s-13.3-1.4-18.2,7.5c-1.3,2.4-1.9,4.6-1.8,6.6c-1.2-1.5-3-2.4-4.9-0.1c-1.6,1.9-1.1,10.2,1.7,17.9c0,0,0.6,19,10.2,22l10.4-11.8
					c8-0.2,17.9-0.4,26-0.6l9.8,12.4c7.1-2.2,10.2-12.5,11.4-18.2c0.4-0.4,0.7-0.7,1.1-1.1c4.5-4.3,6.1-10.3,3.5-15.1
					C464.8,525.5,464.6,525.2,464.4,525z"/>
				<path class="st26" d="M415.7,506.2c-5.7-1.6-13.3-1.4-18.2,7.5c-0.5,0.9-0.9,1.8-1.2,2.8l0.2,0.5
					C396.5,517,403,505.7,415.7,506.2z"/>
				<path class="st26" d="M454.5,498.3c0.1,0-4.6-3.4-13.5,0c1.7,0,23.7,0.2,26.6,18.8C468.9,510.5,467.1,503.1,454.5,498.3z"/>
				<path class="st27" d="M419.4,517.6c-10.8,0-20.1,7.5-20.9,17.1l-1.4,17c-1.2,16.1,11.4,29.6,28.2,29.6
					c16.8,0,30.5-13.5,30.7-29.6l0.2-18.1c0.1-8.9-6.2-21-16.3-21L419.4,517.6z"/>
				<path class="st28" d="M428.2,568.4c0,0,5.4,0.2,7.4-3.7c0,0,1.4,2.8-2.3,4.5C429.6,570.9,428.2,568.4,428.2,568.4z"/>
				<path class="st29" d="M456.1,533.7c0.1-8.9-6.2-21-16.3-21l-20.5,4.9c-10.8,0-20.1,7.5-20.9,17.1l-0.7,8l3.2-4.4
					c0-0.1,2.5-7.5,20.8-7.7c6.4-0.1,14.2-1.7,19.4-8c1.7,4.7,4.6,9,8.2,11.6c1.9,1.4,4.2,2.4,6.7,2.7L456.1,533.7z"/>
				<path class="st30" d="M425.4,577.4c-12.5,0-22.8-6.6-27.4-16.2c3.2,11.6,14,20.1,27.3,20.1s24.7-8.5,29-20.1
					C448.8,570.8,437.9,577.4,425.4,577.4z"/>
				<path class="st31" d="M435.3,556.8c0.3,0.9,0.5,1.8,0.4,2.7c-0.1,4.3-4.1,7.8-8.7,7.8c-4.1,0-7.4-2.7-8-6.3L435.3,556.8z"/>
				<path class="st32" d="M427,567.3c-1.4,0-2.8-0.3-4-0.9c0.9-3.4,4.6-6,8.8-6c1.3,0,2.5,0.2,3.7,0.7
					C434.6,564.7,431.1,567.3,427,567.3z"/>
				<path class="st33" d="M430.7,552.2c-0.1,2.5-2.1,4.5-4.4,4.5s-4.1-2-4-4.5s2.1-5.6,4.4-5.6C429,546.6,430.8,549.7,430.7,552.2z"
					/>
				<path class="st34" d="M441.9,544.2c-0.1,2-0.9,3.7-1.8,3.7s-1.7-1.7-1.6-3.7s0.9-3.7,1.8-3.7
					C441.2,540.6,441.9,542.2,441.9,544.2z"/>
				<path class="st25" d="M448.4,540.2c0.2-0.1-9.2-5.4-15.1-5.2c-0.1,0.1,0.3-4.6,8-2.1C448.8,535.6,448.3,540.3,448.4,540.2z"/>
				<path class="st34" d="M413.7,540.6c1,0,1.6,1.6,1.5,3.7c-0.1,2-1,3.7-1.9,3.7s-1.6-1.7-1.5-3.7
					C411.9,542.2,412.8,540.6,413.7,540.6z"/>
				<path class="st25" d="M404.7,540.2c-0.2-0.1,9.7-5.4,15.5-5.2c0.1,0.1,0.1-4.6-7.8-2.1C404.7,535.6,404.8,540.3,404.7,540.2z"/>
				<path class="st33" d="M408.6,556.9c-0.1,0-0.2,0-0.3-0.1c-0.4-0.2-0.5-0.6-0.3-0.9l0,0l2.7-4.5c0.2-0.3,0.7-0.5,1.1-0.3
					s0.5,0.6,0.3,0.9l-2.7,4.5C409.2,556.7,408.9,556.9,408.6,556.9z"/>
				<path class="st33" d="M403.7,556.9c-0.1,0-0.2,0-0.3-0.1c-0.4-0.2-0.5-0.6-0.3-0.9l2.7-4.5c0.2-0.3,0.7-0.5,1.1-0.3
					s0.5,0.6,0.3,0.9l-2.7,4.5C404.3,556.7,404,556.9,403.7,556.9z"/>
				<path class="st33" d="M443.5,556.9c-0.3,0-0.6-0.2-0.7-0.4l-2.3-4.5c-0.2-0.3,0-0.8,0.4-0.9c0.4-0.2,0.8,0,1,0.3l2.3,4.5
					c0.2,0.3,0,0.8-0.4,0.9C443.7,556.9,443.6,556.9,443.5,556.9z"/>
				<path class="st33" d="M448.4,556.9c-0.3,0-0.6-0.2-0.7-0.4l-2.3-4.5c-0.2-0.3,0-0.8,0.3-0.9c0.4-0.2,0.8-0.1,1,0.3
					c0,0,0,0,0,0.1l2.4,4.5c0.2,0.3,0,0.8-0.4,0.9C448.7,556.9,448.5,556.9,448.4,556.9z"/>
				<path class="st25" d="M457.5,526.5l-13-19.6l-32.4,8.3l-18.7,18.3c3.6,2.5,4.8,4.3,4.8,4.3s2.6-9.6,23.7-9.8
					c13.9-0.2,18.7-7.7,20.6-13.6c0.2,7,4,14.3,8.7,17.7c3.5,2.6,7,2.6,9.8,1.8L457.5,526.5z"/>
			</g>
		</g>
	</g>
</g>
<g id="fast">
	
		<linearGradient id="SVGID_1_" gradientUnits="userSpaceOnUse" x1="531.5274" y1="531.2489" x2="697.8998" y2="531.2489" gradientTransform="matrix(1 0 0 1 0 -332)">
		<stop  offset="0" style="stop-color:#F15A22"/>
		<stop  offset="0.1729" style="stop-color:#F25F21"/>
		<stop  offset="0.3736" style="stop-color:#F36D1E"/>
		<stop  offset="0.5881" style="stop-color:#F68419"/>
		<stop  offset="0.8108" style="stop-color:#FBA412"/>
		<stop  offset="1" style="stop-color:#FFC60B"/>
	</linearGradient>
	<path class="st35" d="M519.8,241.6l106.5,15.9c0,0,3.4-4.4,11.9-6.5s6.7-18.8,6.2-22.8c-0.4-3.9-7.8-9.6-4.3-16.2s21.9,9.2,28.5,0
		s-1.3-24.8-3.1-31.1s1-15.6,12.7-20.7c11.7-5.1,3.8-14.5,3.8-14.5s-2.3-5.8-3.5-2s-9.2,3.9-24.9-1.1c-15.8-5-24.7,3.3-24.7,3.3
		s-6.8,5.1-2.1,13.8s-0.3,17.2-6.9,20.6c-4.7,2.4-11.6,1.3-14.6-0.9c-1.7-1.2-2.7-3.1-2.9-5.1c-0.2-2.8,0-7,1.9-11.4
		c3.1-7.3-10.1-15.9-17.9-17.7c-0.4-0.1-0.7,0.3-0.6,0.6c3,10.9,0.4,14.6-1.6,17.5c-2.1,3.1-12.5,4.3-14,4.3
		C508.4,174.3,518.1,233.4,519.8,241.6c0.1,0.6,0.2,0.9,0.2,0.9"/>
	
		<linearGradient id="SVGID_2_" gradientUnits="userSpaceOnUse" x1="519.5657" y1="551.4653" x2="641.6871" y2="551.4653" gradientTransform="matrix(1 0 0 1 0 -332)">
		<stop  offset="0" style="stop-color:#F0FF2A"/>
		<stop  offset="1.538992e-02" style="stop-color:#F1FD29"/>
		<stop  offset="0.2309" style="stop-color:#F7E51C"/>
		<stop  offset="0.4584" style="stop-color:#FBD412"/>
		<stop  offset="0.704" style="stop-color:#FEC90D"/>
		<stop  offset="1" style="stop-color:#FFC60B"/>
	</linearGradient>
	<path class="st36" d="M626.6,256.4l-107-15.9c0,0-2.6-44.6,37.5-53.4c0,0,12.9-2.3,13.1-3.6c0.3-1.3,3.9-0.4,6.3,0
		s11.2,0.5,12.4-0.7s1.5,1.9,3.4,3.6s7,5,10.5,3.9s6.6-0.3,7,0.6c0.4,0.9,7.4,5.7,11.2,2.8s8.8-4.5,10.7-3.1
		c1.9,1.5,5.1,3.2,7.6,2.9s3.8-0.3,0,5s-7.7,3.9-6.1,10.7c1.6,6.7,1.2,10.5,0.1,13.6c-1,3.1-4.5,6.4-2.9,10.8s2.9,3.6,1.8,7.9
		c-1.2,4.3-3.5,10.5-3.5,10.5L626.6,256.4z"/>
	<circle class="st6" cx="574.3" cy="241.5" r="54.4"/>
	<g class="st37">
		<g>
			<path d="M624.5,222.1c-10.7-27.6-41.8-41.3-69.4-30.6s-41.3,41.8-30.6,69.4s41.8,41.3,69.4,30.6
				C621.6,280.8,635.2,249.7,624.5,222.1z M591.3,284.9c-23.9,9.3-50.9-2.6-60.2-26.5s2.6-50.9,26.5-60.2s50.9,2.6,60.2,26.5
				S615.3,275.6,591.3,284.9z"/>
			<path class="st38" d="M624.5,222.1c-10.7-27.6-41.8-41.3-69.4-30.6s-41.3,41.8-30.6,69.4s41.8,41.3,69.4,30.6
				C621.6,280.8,635.2,249.7,624.5,222.1z M591.3,284.9c-23.9,9.3-50.9-2.6-60.2-26.5s2.6-50.9,26.5-60.2s50.9,2.6,60.2,26.5
				S615.3,275.6,591.3,284.9z"/>
		</g>
	</g>
	<path class="st39" d="M576.5,237.7c-0.1,0-0.2,0-0.2,0l0,0l0,0c-0.1,0-0.2-0.1-0.2-0.1c-0.1,0-0.2-0.1-0.2-0.1h-0.1
		c-0.1,0-0.1,0-0.2-0.1c-0.1,0-0.2,0-0.2,0c-0.1,0-0.2,0-0.2,0c-0.1,0-0.1,0-0.2,0h-0.1c-0.1,0-0.1,0-0.2,0c-0.1,0-0.3,0-0.4,0
		c-0.1,0-0.2,0-0.4,0c-0.1,0-0.1,0-0.2,0c-0.1,0-0.3,0.1-0.4,0.1c-0.1,0-0.1,0-0.2,0.1l0,0c-0.3,0.1-0.6,0.3-0.9,0.5
		c0.6-0.6,0.9-1.4,0.9-2.3v-31.2c0-0.9,0.7-1.6,1.6-1.6c0.4,0,0.8,0.2,1,0.4c0.3,0.3,0.4,0.7,0.4,1.1v31.4
		C576,236.5,576.2,237.1,576.5,237.7z"/>
	<path class="st40" d="M591.7,235.6l-0.5-1.3c-0.4-0.9-1.4-1.4-2.3-1l-10.2,4l-0.9,0.4c-0.3,0.1-0.5,0.1-0.8,0.1c-0.2,0-0.3,0-0.5,0
		c-0.1,0-0.2,0-0.2,0l0,0l0,0c-0.1,0-0.2-0.1-0.2-0.1c-0.1,0-0.2-0.1-0.2-0.1h-0.1c-0.1,0-0.1,0-0.2-0.1c-0.1,0-0.2,0-0.2,0
		c-0.1,0-0.2,0-0.2,0c-0.1,0-0.1,0-0.2,0h-0.1c-0.1,0-0.1,0-0.2,0c-0.1,0-0.3,0-0.4,0c-0.1,0-0.2,0-0.4,0c-0.1,0-0.1,0-0.2,0
		c-0.1,0-0.3,0.1-0.4,0.1c-0.1,0-0.1,0-0.2,0.1l0,0c-0.3,0.1-0.6,0.3-0.9,0.5c-0.3,0.2-0.5,0.4-0.7,0.6c-1.1,1.2-1.5,2.9-0.9,4.5
		c0.9,2.2,3.3,3.3,5.6,2.4c0.9-0.3,1.6-0.9,2-1.6c0.1-0.2,0.3-0.4,0.3-0.6c0.3-0.4,0.7-0.8,1.1-1l1-0.4l10.1-3.9
		C591.6,237.5,592,236.5,591.7,235.6z M575.3,243.5c-1.1,0.4-2.3-0.1-2.8-1.2c-0.3-0.8-0.1-1.7,0.5-2.3c0.2-0.2,0.5-0.4,0.7-0.5
		c0.8-0.3,1.7-0.1,2.3,0.5c0.2,0.2,0.4,0.4,0.5,0.7C576.9,241.9,576.4,243.1,575.3,243.5z"/>
	<path class="st41" d="M533.8,276.5l82.2-59.2c2.4-1.7,5.9-0.6,6.7,2.3c1.9,6.5,4.8,16.3,5.3,18.4c0.8,3.2-92.7,40.2-92.7,40.2
		L533.8,276.5z"/>
</g>
</svg>
