<?xml version="1.0" encoding="utf-8"?>
<!-- Generator: Adobe Illustrator 25.2.0, SVG Export Plug-In . SVG Version: 6.00 Build 0)  -->
<svg version="1.1" xmlns="http://www.w3.org/2000/svg" xmlns:xlink="http://www.w3.org/1999/xlink" x="0px" y="0px"
	 viewBox="0 0 500 500" style="enable-background:new 0 0 500 500;" xml:space="preserve">
<style type="text/css">
	.st0{fill:#9FD5FF;}
	.st1{fill:#263238;}
	.st2{fill:#F2FAFA;}
	.st3{fill:#272525;}
	.st4{fill:#A3B1D3;}
	.st5{fill:#F5F5F5;}
	.st6{fill:#C5B1D3;}
	.st7{fill:#FFFFFF;}
	.st8{fill:#E6E6E6;}
	.st9{opacity:0.65;}
	.st10{fill:#407BFF;}
	.st11{opacity:0.9;fill:#FFFFFF;}
	.st12{fill:#1E90FF;}
	.st13{opacity:0.95;fill:#FFFFFF;}
	.st14{opacity:0.7;fill:#407BFF;}
	.st15{opacity:0.15;fill:#407BFF;}
	.st16{opacity:0.5;fill:#407BFF;}
	.st17{fill:#F0AA5D;}
	.st18{opacity:0.2;}
	.st19{fill:#FFC3BD;}
	.st20{opacity:0.7;fill:#263238;}
	.st21{fill:#ED847E;}
	.st22{opacity:0.6;}
	.st23{fill:#FF5652;}
</style>
<g id="background">
	<rect x="291.3" y="112.4" class="st0" width="48.3" height="47.6"/>
	<rect x="288.5" y="112.4" class="st1" width="48.3" height="47.6"/>
	<rect x="296.5" y="122.8" class="st2" width="32.4" height="26.8"/>
	<rect x="398.8" y="169.3" class="st0" width="48.3" height="47.6"/>
	<rect x="396.1" y="169.3" class="st3" width="48.3" height="47.6"/>
	<rect x="404.1" y="179.7" class="st2" width="32.4" height="26.8"/>
	
		<rect x="296.2" y="159.2" transform="matrix(6.123234e-17 -1 1 6.123234e-17 119.7095 532.0522)" class="st0" width="59.4" height="93.9"/>
	
		<rect x="293.3" y="159.2" transform="matrix(6.123234e-17 -1 1 6.123234e-17 116.8499 529.1926)" class="st1" width="59.4" height="93.9"/>
	
		<rect x="301.3" y="169.6" transform="matrix(6.123234e-17 -1 1 6.123234e-17 116.85 529.1926)" class="st2" width="43.5" height="73.1"/>
	<rect x="355" y="76" class="st0" width="59.4" height="77.4"/>
	<rect x="352.2" y="76" class="st1" width="59.4" height="77.4"/>
	<rect x="360.2" y="86.4" class="st2" width="43.5" height="56.6"/>
	
		<rect x="183.2" y="164.9" transform="matrix(-1.836970e-16 1 -1 -1.836970e-16 565.6321 89.9385)" class="st1" width="109.2" height="325.7"/>
	<path class="st2" d="M387.4,317.3v-35.2c0-1.5-1.2-2.7-2.7-2.7H91c-1.5,0-2.7,1.2-2.7,2.7v35.2c0,1.5,1.2,2.7,2.7,2.7h293.7
		C386.2,320,387.4,318.8,387.4,317.3z"/>
	<path class="st2" d="M387.4,372.9v-45.6c0-1.5-1.2-2.7-2.7-2.7H91c-1.5,0-2.7,1.2-2.7,2.7v45.6c0,1.5,1.2,2.7,2.7,2.7h293.7
		C386.2,375.6,387.4,374.4,387.4,372.9z"/>
	<path class="st0" d="M327.5,278.7L327.5,278.7H148.1l0,0c0,2.9,2.4,5.3,5.3,5.3h168.8C325.2,284,327.5,281.6,327.5,278.7z"/>
	<path class="st0" d="M327.5,324L327.5,324H148.1l0,0c0,2.9,2.4,5.3,5.3,5.3h168.8C325.2,329.2,327.5,326.9,327.5,324z"/>
	
		<rect x="358.2" y="315.6" transform="matrix(-1.836970e-16 1 -1 -1.836970e-16 740.6321 -85.0615)" class="st0" width="109.2" height="24.3"/>
	
		<rect x="234.5" y="107" transform="matrix(6.123234e-17 -1 1 6.123234e-17 -31.9595 507.6531)" class="st4" width="6.7" height="325.7"/>
	<path class="st0" d="M372.1,256.7c0,5.4,4.4,9.8,9.8,9.8c5.4,0,9.8-4.4,9.8-9.8H372.1z"/>
	<path class="st0" d="M346.1,256.7c0,5.4,4.4,9.8,9.8,9.8c5.4,0,9.8-4.4,9.8-9.8H346.1z"/>
	<path class="st5" d="M78.5,263.1c0,1.8,8.1,3.3,18.1,3.3s18.1-1.5,18.1-3.3H78.5z"/>
	<path class="st5" d="M78.5,261.4c0,1.8,8.1,3.3,18.1,3.3s18.1-1.5,18.1-3.3H78.5z"/>
	
		<rect x="409.5" y="257.7" transform="matrix(6.123234e-17 -1 1 6.123234e-17 143.0405 682.6531)" class="st6" width="6.7" height="24.3"/>
	
		<rect x="57.3" y="78" transform="matrix(-1 -1.224647e-16 1.224647e-16 -1 284.971 312.7076)" class="st0" width="170.3" height="156.8"/>
	
		<rect x="53.3" y="78" transform="matrix(-1 -1.224647e-16 1.224647e-16 -1 279.171 312.7076)" class="st1" width="172.6" height="156.8"/>
	
		<rect x="69" y="77.3" transform="matrix(-1.836970e-16 1 -1 -1.836970e-16 295.9394 16.7682)" class="st2" width="141.1" height="158.1"/>
	<polygon class="st7" points="199.1,226.9 145.9,85.8 123.6,85.8 176.7,226.9 	"/>
	<polygon class="st7" points="170.4,226.9 117.2,85.8 101.8,85.8 155,226.9 	"/>
	
		<rect x="47.8" y="152" transform="matrix(-1.836970e-16 1 -1 -1.836970e-16 274.7426 37.9651)" class="st8" width="141.1" height="8.7"/>
	
		<rect x="96" y="152" transform="matrix(-1.836970e-16 1 -1 -1.836970e-16 322.9361 -10.2284)" class="st8" width="141.1" height="8.7"/>
	
		<rect x="39.7" y="150.5" transform="matrix(-1.836970e-16 1 -1 -1.836970e-16 271.6107 40.2419)" class="st1" width="151.9" height="10.9"/>
	
		<rect x="87.9" y="150.5" transform="matrix(-1.836970e-16 1 -1 -1.836970e-16 319.8043 -7.9517)" class="st1" width="151.9" height="10.9"/>
	
		<rect x="-9.6" y="156" transform="matrix(-1.836970e-16 1 -1 -1.836970e-16 217.2918 95.4158)" class="st8" width="141.1" height="0.8"/>
</g>
<g id="Background_Simple">
	<g class="st9">
		<path class="st10" d="M266.5,274.3c-40.9-44-97.4-13.5-140.3-28.1c-52.6-17.9-76.6-77.3-46.2-107.5c26.1-25.9,63.3-3.4,99.4-3.2
			c49.3,0.4,80.5-24.7,136.4-5.4c107.9,37.3,88.2,173.3,38.4,221.9c-17.2,16.8-32.9,29.8-61.6,3.5
			C266.6,331.6,283.3,292.4,266.5,274.3z"/>
		<path class="st11" d="M266.5,274.3c-40.9-44-97.4-13.5-140.3-28.1c-52.6-17.9-76.6-77.3-46.2-107.5c26.1-25.9,63.3-3.4,99.4-3.2
			c49.3,0.4,80.5-24.7,136.4-5.4c107.9,37.3,88.2,173.3,38.4,221.9c-17.2,16.8-32.9,29.8-61.6,3.5
			C266.6,331.6,283.3,292.4,266.5,274.3z"/>
	</g>
</g>
<g id="Shadow_1_">
	<ellipse id="_x3C_Path_x3E__345_" class="st5" cx="250" cy="416.2" rx="193.9" ry="11.3"/>
</g>
<g id="Smartphone">
	<g>
		<rect x="319.8" y="111.6" class="st12" width="1" height="7"/>
		<path class="st12" d="M320.8,106h-1c0-8.4-6.3-15.3-14-15.3v-1.1C314.1,89.6,320.8,96.9,320.8,106z"/>
		<path class="st3" d="M305.4,93.4H172.7c-6.5,0-11.9,5.3-11.9,11.9v299c0,6.5,5.3,11.9,11.9,11.9h132.8c6.5,0,11.9-5.3,11.9-11.9
			v-299C317.3,98.8,312,93.4,305.4,93.4z"/>
		<path class="st13" d="M164.5,404V105.5c0-4,3.3-7.3,7.3-7.3h133.1c4,0,7.3,3.3,7.3,7.3V404c0,4-3.3,7.3-7.3,7.3H171.8
			C167.7,411.3,164.5,408,164.5,404z"/>
		<circle class="st10" cx="238.3" cy="390.6" r="7.5"/>
		<path d="M232.2,97.4c0,4,3,7.2,6.6,7.2c3.6,0,6.6-3.2,6.6-7.2H232.2z"/>
		<g>
			<path class="st14" d="M281.9,128.6h-86.2c-7.3,0-13.3,6.5-13.3,14.5v9.7c0,8,6,14.5,13.3,14.5h86.2l13.3,8.6v-32.7
				C295.1,135.1,289.1,128.6,281.9,128.6z"/>
			<rect x="198.1" y="142.4" class="st7" width="81.4" height="2.4"/>
			<rect x="213.8" y="151" class="st7" width="65.7" height="2.4"/>
		</g>
		<g>
			<path class="st15" d="M195.7,192.9h86.2c7.3,0,13.3,6.5,13.3,14.5v9.7c0,8-6,14.5-13.3,14.5h-86.2l-13.3,8.6v-32.7
				C182.4,199.4,188.4,192.9,195.7,192.9z"/>
			<rect x="198.1" y="206.8" class="st16" width="81.4" height="2.4"/>
			<rect x="198.1" y="215.3" class="st16" width="37.7" height="2.4"/>
			<rect x="241.7" y="215.3" class="st16" width="15.3" height="2.4"/>
		</g>
		<g>
			<path class="st14" d="M281.9,257.2h-86.2c-7.3,0-13.3,6.5-13.3,14.5v9.7c0,8,6,14.5,13.3,14.5h86.2l13.3,8.6v-32.7
				C295.1,263.8,289.1,257.2,281.9,257.2z"/>
			<rect x="198.1" y="271.1" class="st7" width="81.4" height="2.4"/>
			<rect x="213.8" y="279.6" class="st7" width="65.7" height="2.4"/>
		</g>
		<g>
			<g>
				<path class="st15" d="M195.7,321.6h33.5c7.3,0,13.3,6.5,13.3,14.5v9.7c0,8-6,14.5-13.3,14.5h-33.5l-13.3,8.6V336
					C182.4,328.1,188.4,321.6,195.7,321.6z"/>
			</g>
			<path class="st16" d="M202.4,340.9c0,2.4-1.8,4.3-3.9,4.3s-3.9-1.9-3.9-4.3c0-2.4,1.8-4.3,3.9-4.3S202.4,338.5,202.4,340.9z"/>
			<ellipse class="st16" cx="210.2" cy="337.4" rx="3.9" ry="4.3"/>
			<path class="st16" d="M225.9,346c0,2.4-1.8,4.3-3.9,4.3s-3.9-1.9-3.9-4.3c0-2.4,1.8-4.3,3.9-4.3S225.9,343.6,225.9,346z"/>
		</g>
	</g>
</g>
<g id="Character_2">
	<g>
		<g>
			<g>
				<path class="st17" d="M344.3,335.2c1.1,2.2,2.1,4.4,3.1,6.6c1,2.2,2,4.4,2.9,6.7c0.9,2.2,1.9,4.5,2.8,6.8c0.9,2.3,1.8,4.6,2.6,7
					l-3.6-3.4c1.7,0.7,4,1,6.5,1.1c2.4,0.1,5-0.1,7.7-0.4c2.6-0.3,5.3-0.7,8-1.2c2.7-0.5,5.4-1.1,8-1.7l2.4,5.8
					c-2.7,1.5-5.3,2.7-8.1,3.8c-2.7,1.1-5.6,2-8.5,2.8c-2.9,0.7-6,1.4-9.2,1.6c-3.2,0.3-6.6,0.2-10.3-0.8l-2.3-0.6l-1.2-2.7
					c-1.9-4.2-4-8.5-6-12.8c-1-2.2-2-4.3-3-6.5c-1-2.2-2-4.4-3-6.5L344.3,335.2z"/>
			</g>
			<path class="st17" d="M379,358.5l3.9-3.8l6.2,6.8c0,0-2.3,3.9-7.9,1.6L379,358.5z"/>
			<polygon class="st17" points="388.9,352.1 392.3,357.7 389.2,361.4 382.9,354.6 			"/>
			<path class="st1" d="M326.7,326.2c8-3.1,14.2,1.5,24.3,14.3l-11.8,12.2C339.1,352.7,311.1,332.2,326.7,326.2z"/>
			<path class="st18" d="M341.7,339.4c-3.8-2.5-7.1-1.8-9.9,0.5c1.1,3.9,3.7,8.3,6.3,12c0.6,0.5,1,0.7,1,0.7l6.6-6.8
				C345.2,342.9,343.8,340.8,341.7,339.4z"/>
			<g>
				<polygon class="st19" points="387.6,411 397.2,409.9 396.4,390.3 386.8,391.4 				"/>
				<path class="st1" d="M397.3,405.8l-10.8,0.2c-0.4,0-0.6,0.3-0.7,0.7l-1.2,8.5c-0.1,0.9,0.5,1.7,1.3,1.7c3.4-0.1,4.9-0.4,9.1-0.4
					c2.6,0,10.5,0.1,14.1,0.1c3.5-0.1,3.8-4,2.4-4.3c-6.7-1.5-10.5-3.7-12.8-5.7C398.3,406,397.8,405.8,397.3,405.8z"/>
				<path class="st10" d="M399.5,403.3c0.3-0.1,0.6-0.1,0.9,0.1c0.3,0.2,0.4,0.4,0.4,0.6c0.1,1-2,2.8-2.3,3c-0.1,0-0.1,0-0.2,0
					c-0.1,0-0.1-0.1-0.1-0.2c0.1-1.1,0.3-3,1.2-3.4C399.5,403.3,399.5,403.3,399.5,403.3z M398.7,406.4c0.8-0.7,1.9-1.8,1.8-2.4
					c0-0.1,0-0.2-0.2-0.2c-0.3-0.1-0.5-0.2-0.7-0.1C399.2,403.9,398.8,404.9,398.7,406.4z"/>
				<path class="st10" d="M399.4,406c0.8-0.3,1.8-0.5,2.3-0.2c0.2,0.1,0.4,0.3,0.3,0.8c-0.1,0.3-0.2,0.5-0.5,0.7
					c-1,0.5-3.1-0.3-3.2-0.3c-0.1,0-0.1-0.1-0.1-0.1c0-0.1,0-0.1,0.1-0.2C398.6,406.4,399,406.2,399.4,406z M401.3,407
					c0,0,0.1,0,0.1-0.1c0.2-0.1,0.3-0.2,0.3-0.4c0-0.2,0-0.3-0.1-0.4c-0.5-0.3-2,0.1-2.7,0.6C399.5,407,400.7,407.2,401.3,407z"/>
				<polygon class="st18" points="386.8,391.4 396.4,390.3 396.8,400.4 387.2,400.5 				"/>
				<g>
					<path class="st10" d="M339.8,380c0,0,24.9-23.1,41-23.5c11.8-0.3,20.2,38.7,20.2,38.7l-14,0.3c0,0-2.5-13.8-11.6-17.6
						c-13.2,19.8-67.1,59-62,16.5C321.4,391.5,339.8,380,339.8,380z"/>
					<path class="st18" d="M339.8,380c0,0,24.9-23.1,41-23.5c11.8-0.3,20.2,38.7,20.2,38.7l-14,0.3c0,0-2.5-13.8-11.6-17.6
						c-13.2,19.8-67.1,59-62,16.5C321.4,391.5,339.8,380,339.8,380z"/>
				</g>
				<polygon class="st1" points="401,397.2 384.5,398.7 384.6,392.8 402,390.7 				"/>
			</g>
			<path class="st1" d="M307.2,395.9c0,0-10.7-20.9-12-54.5c-0.3-7.9,6.8-15.4,15-15.8c6.9-0.4,14.1-0.4,20-0.4
				c5.9,0,10.4,3.9,11.1,9.6c1.5,12.5,1.7,31.4,9.4,54L307.2,395.9z"/>
			<path class="st18" d="M300.2,341.6c5.9-6.7,7.9-4.5,8.8-3.7c8.2,7.4-3.8,30.4-6.2,33.8c-1.5-7.5-2.7-16.2-3-26.1
				C299.7,344.2,299.9,342.9,300.2,341.6z"/>
			<path class="st17" d="M318.2,305.6c-0.7,6.1-2.3,15.5-6.5,19.9c3.3,3.1,8.6,6.1,16.2,7.4c3.9-1.6,4.4-5.2,2.5-7.7
				c-6.7-1.2-6.6-3.1-4.1-7.3L318.2,305.6z"/>
			<path class="st18" d="M321.5,310.6l4.9,7.2c-0.6,1-1.2,2.2-1.5,3.2c-2.4-1-5-4.6-4.5-7.3C320.7,312.4,321.1,311.2,321.5,310.6z"
				/>
			<path class="st1" d="M335.7,294.3c3.9,4.2,12.2,4.2,8.6-0.8C340.8,288.6,332.7,291.1,335.7,294.3z"/>
			<path class="st17" d="M319.8,293.9c-2.2,8-3.9,12.5-1.4,18c3.7,8.3,14.4,8.5,18.9,1.5c4-6.3,6.9-18.3,0.5-24.3
				C331.5,283.1,322,285.9,319.8,293.9z"/>
			<g>
				<path class="st19" d="M318,301.3c1-0.2,5.9-1.7,8.4-4c2.7-2.6,2.7-5.1,2-6.3c-0.8-1.2-6.5-3.4-9.1-2.8
					c-4.2,0.8-3.2,8.3-3.1,10.3C316.2,300.5,318,301.3,318,301.3z"/>
				<path class="st20" d="M318,301.3c1-0.2,5.9-1.7,8.4-4c2.7-2.6,2.7-5.1,2-6.3c-0.8-1.2-6.5-3.4-9.1-2.8
					c-4.2,0.8-3.2,8.3-3.1,10.3C316.2,300.5,318,301.3,318,301.3z"/>
			</g>
			<path class="st17" d="M313.8,301.9c0.8,1.9,2.4,3.2,3.9,3.8c2.3,0.9,3.6-1,3.1-3.3c-0.5-2.1-2.2-5.1-4.6-5
				C313.9,297.3,312.9,299.7,313.8,301.9z"/>
			<path class="st1" d="M321.3,290.5c10.2,2.2,17.4,7.9,22.3,4.5c3.4-2.4,1.2-6.9-2.7-10.1c-3.3-2.7-8-3.6-9.4-5.9
				c-0.7,2.5,1.6,4,1.6,4s-9.2-1.4-11.8-3.8c-0.6,1.4,1.8,4.2,1.8,4.2s-2.6,2.5-10.1-0.3C313.5,285.5,315.5,289.3,321.3,290.5z"/>
			<path class="st1" d="M341.6,295.8c-0.1,0-0.3,0-0.4,0l0-0.5c2,0.1,3.6-0.8,4.2-2.5c0.7-1.7,0.4-4.3-1.8-6.2
				c-0.8-0.7-1.8-1.2-2.9-1.7c-2.4-1.2-5.1-2.5-6.4-6.5l0.5-0.2c1.2,3.7,3.7,5,6.1,6.2c1.1,0.5,2.1,1.1,3,1.8c2.4,2.1,2.8,4.9,2,6.8
				C345.2,294.8,343.6,295.8,341.6,295.8z"/>
			<path class="st1" d="M331.3,301.7c-0.2,0.6-0.1,1.3,0.3,1.4c0.4,0.2,0.9-0.2,1.1-0.9c0.2-0.6,0.1-1.3-0.3-1.4
				C332.1,300.6,331.6,301,331.3,301.7z"/>
			<path class="st1" d="M338.9,303.9c-0.2,0.6-0.1,1.3,0.3,1.4c0.4,0.2,0.9-0.2,1.1-0.9c0.2-0.6,0.1-1.3-0.3-1.4
				C339.6,302.9,339.1,303.3,338.9,303.9z"/>
			<path class="st21" d="M336.1,303.2c0,0,0.2,4.2,1.1,6.6c-1.5,0.6-3.2-0.6-3.2-0.6L336.1,303.2z"/>
			<path class="st1" d="M330,310.7c-2.3-1.3-2.8-3.4-2.8-3.5c0-0.1,0-0.2,0.1-0.2c0.1,0,0.2,0,0.2,0.2c0,0,0.6,2.5,3.3,3.6
				c0.1,0,0.2,0.2,0.1,0.3c0,0.1-0.1,0.2-0.2,0.1C330.5,310.9,330.2,310.8,330,310.7z"/>
			<path class="st1" d="M329.3,297.5c-0.1,0-0.1-0.1-0.1-0.1c-0.1-0.2-0.1-0.4,0.1-0.5c1.8-1.2,3.4-0.4,3.5-0.3
				c0.2,0.1,0.3,0.3,0.2,0.5c-0.1,0.2-0.3,0.3-0.5,0.2l0,0c-0.1,0-1.3-0.6-2.8,0.3C329.6,297.6,329.4,297.6,329.3,297.5z"/>
			<path class="st1" d="M341.5,302.1c-0.1,0-0.2-0.1-0.3-0.3c-0.5-1.7-1.8-2.2-1.9-2.2c-0.2-0.1-0.3-0.3-0.3-0.5
				c0.1-0.2,0.3-0.3,0.5-0.3c0.1,0,1.8,0.6,2.4,2.7c0.1,0.2,0,0.4-0.3,0.5C341.6,302.1,341.5,302.1,341.5,302.1z"/>
			<g>
				<polygon class="st19" points="420.8,415.7 426.5,407.4 411.2,394 405.5,402.3 				"/>
				<path class="st1" d="M422.6,403.5l-6.7,8.3c-0.2,0.3-0.2,0.7,0,1l5.2,6.5c0.5,0.7,1.6,0.7,2.1,0c2.1-2.7,3.5-4.8,6.2-8.2
					c1.7-2.1,6.9-8.2,9.2-11c2.3-2.8-0.3-5.6-1.5-4.7c-5.4,4.3-10.3,6.9-13.2,7.3C423.4,402.8,422.9,403.1,422.6,403.5z"/>
				<path class="st10" d="M422.1,400.1c0.1-0.3,0.3-0.5,0.6-0.7c0.3-0.1,0.5-0.1,0.7,0c0.9,0.5,1,3.3,1,3.6c0,0.1,0,0.1-0.1,0.2
					c-0.1,0-0.2,0-0.2,0c-0.8-0.7-2.2-2-2-3C422.1,400.2,422.1,400.1,422.1,400.1z M424.1,402.6c-0.1-1.1-0.3-2.6-0.8-2.9
					c-0.1,0-0.1-0.1-0.3,0c-0.3,0.1-0.4,0.3-0.5,0.5C422.4,400.8,423,401.6,424.1,402.6z"/>
				<path class="st10" d="M424.3,401.8c0.2-0.9,0.7-1.8,1.2-2c0.2-0.1,0.5-0.1,0.8,0.2c0.2,0.2,0.3,0.5,0.3,0.8
					c-0.1,1.1-2.1,2.3-2.2,2.4c-0.1,0-0.1,0-0.2,0c-0.1,0-0.1-0.1-0.1-0.2C424.1,402.8,424.1,402.3,424.3,401.8z M426.2,400.9
					c0,0,0-0.1,0-0.1c0-0.2,0-0.3-0.2-0.5c-0.2-0.2-0.3-0.2-0.4-0.1c-0.5,0.2-1.1,1.6-1.2,2.6C425.1,402.3,426,401.5,426.2,400.9z"
					/>
				<polygon class="st18" points="405.5,402.3 411.2,394 419.1,400.9 412.6,408.5 				"/>
				<path class="st10" d="M322.8,392.9c0,0,43.7-44.4,63.4-25.4c12.3,11.8,30.3,28.2,30.3,28.2L406,405.8c0,0-26.4-14-33.3-21.8
					c-36.1,40.4-68.4,43.1-65.5,12C315.6,393.7,322.8,392.9,322.8,392.9z"/>
				<polygon class="st1" points="419.5,395.7 408.1,410.1 403.2,406.9 414.9,391.6 				"/>
			</g>
			<g>
				<path class="st17" d="M307.3,338.6l0.9,18.2c0.2,3,0.3,6,0.6,9c0.1,1.5,0.3,2.9,0.4,4.3c0.1,0.7,0.2,1.4,0.3,2
					c0.1,0.6,0.2,1.2,0.3,1.5c0,0.1,0,0.1,0,0.2c0-0.1-0.1-0.1-0.1-0.2c-0.1-0.2-0.3-0.4-0.5-0.5c-0.2-0.2-0.4-0.2-0.5-0.3
					c-0.1,0-0.2,0-0.1,0c0.2,0.1,1.3,0.1,2.4-0.2c2.3-0.5,5.1-1.5,7.7-2.7c2.7-1.2,5.3-2.5,8-3.9c2.7-1.4,5.3-2.9,7.9-4.3l3.7,5
					c-4.7,4.3-9.6,8.2-15.2,11.7c-1.4,0.9-2.8,1.7-4.4,2.4c-1.5,0.8-3.1,1.5-4.9,2.1c-0.9,0.3-1.9,0.6-2.9,0.7
					c-1.1,0.2-2.3,0.3-3.7,0.2c-0.7-0.1-1.5-0.2-2.4-0.5c-0.8-0.3-1.7-0.8-2.6-1.4c-0.8-0.6-1.5-1.4-2.1-2.2
					c-0.3-0.4-0.5-0.8-0.7-1.2l-0.4-0.9c-0.4-1.1-0.7-2-0.9-2.9c-0.2-0.9-0.4-1.7-0.6-2.5c-0.3-1.7-0.6-3.3-0.8-4.9
					c-0.5-3.2-0.8-6.3-1.1-9.4c-0.6-6.3-0.9-12.5-1-18.7L307.3,338.6z"/>
				<path class="st1" d="M304.3,326.9c-4.7,0.5-11.8,5-12,25.8l20.2-1.6C312.5,351.1,322,324.9,304.3,326.9z"/>
				<path class="st10" d="M351.6,351.2l-7.5,0.5c-0.8,0.1-1.7,0.8-1.9,1.7l-3.5,16.5c-0.2,0.9,0.3,1.5,1.2,1.5l7.5-0.5
					c0.8-0.1,1.7-0.8,1.9-1.7l3.5-16.5C352.9,351.8,352.4,351.1,351.6,351.2z"/>
				<path class="st17" d="M335.2,361.3l6.2-2.2l-1.5,9.7c0,0-6.9,1.5-7.5-2.2l1-3.3C333.7,362.4,334.4,361.6,335.2,361.3z"/>
				<polygon class="st17" points="348.5,359.9 345.8,368.6 339.9,368.9 341.4,359.1 				"/>
			</g>
		</g>
	</g>
</g>
<g id="Character_1">
	<g>
		<path class="st1" d="M133.4,156c-4.9-11.3,21.7-23.2,29.3-5.6c12.8,5.6-3.6,29.2,0.1,33.2c3.7,4,6.5-0.9,6.5-0.9s3.7,9.9-5.8,17.9
			c-8.5,7.2-34.2,9.1-34.2-5C129.2,177.3,139.8,170.9,133.4,156z"/>
		<polygon class="st17" points="157.8,393.9 150.7,398 133.5,378.4 142.4,370.3 		"/>
		<path class="st1" d="M149.9,396.2l7.4-5.7c0.3-0.2,0.6-0.2,0.8,0l4.9,4.8c0.5,0.5,0.4,1.4-0.2,1.9c-2.6,1.9-4,2.7-7.2,5.2
			c-2,1.5-6,4.9-8.7,7c-2.7,2.1-4.8-0.3-3.8-1.4c4.4-5,5.3-8,6-10.7C149.2,397,149.5,396.5,149.9,396.2z"/>
		<path class="st10" d="M148.2,399.2c-0.7,0.5-1.3,0.9-1.9,0.8c-0.3,0-0.6-0.2-0.8-0.5c-0.1-0.2-0.1-0.4,0-0.6
			c0.5-1,4.1-1.8,4.5-1.9c0.1,0,0.2,0,0.2,0.1c0,0.1,0,0.2,0,0.2C149.6,397.9,148.9,398.6,148.2,399.2z M146.1,398.8
			c-0.1,0.1-0.2,0.2-0.3,0.3c0,0.1,0,0.2,0,0.2c0.1,0.2,0.3,0.3,0.5,0.3c0.7,0,1.8-0.7,3.1-2.1C148.2,397.9,146.7,398.3,146.1,398.8
			z"/>
		<path class="st10" d="M150.1,397.4C150.1,397.4,150,397.4,150.1,397.4c-1.1,0.3-3.7,0.2-4.1-0.6c-0.1-0.2-0.1-0.5,0.3-0.9
			c0.3-0.3,0.7-0.4,1.1-0.4c1.3,0,2.7,1.5,2.8,1.6C150.2,397.2,150.2,397.3,150.1,397.4C150.1,397.4,150.1,397.4,150.1,397.4z
			 M146.6,396.1C146.6,396.1,146.6,396.2,146.6,396.1c-0.4,0.3-0.3,0.4-0.3,0.5c0.2,0.5,2.1,0.7,3.2,0.6c-0.4-0.4-1.4-1.2-2.3-1.3
			C147.1,395.9,146.8,396,146.6,396.1z"/>
		<path class="st17" d="M131.8,197.1c-0.5,2.1-1,4.1-1.6,6.1c-0.6,2-1.2,4-1.9,5.9c-1.4,3.9-3,7.8-4.9,11.5l-1.5,2.8
			c-0.5,0.9-1,1.8-1.6,2.8l-0.9,1.4c-0.3,0.5-0.5,0.9-0.9,1.4c-0.2,0.3-0.4,0.5-0.7,0.8c-0.3,0.3-0.5,0.6-1.1,1.1
			c-0.4,0.2-0.7,0.5-1.7,0.8c-0.2,0.1-0.6,0.1-0.9,0.1c-0.3,0-0.7,0-1.1-0.2c-0.7-0.2-1.4-0.7-1.7-1c-0.7-0.8-0.9-1.4-1-1.7
			c-0.1-0.4-0.2-0.7-0.2-0.9c-0.1-1,0-1.5,0-2.2c0.1-0.6,0.2-1.2,0.3-1.7c0.2-1.1,0.5-2.1,0.7-3.1c0.6-2,1.2-4,2-5.9l3.9,0.9l-0.3,6
			c0,1-0.1,1.9-0.1,2.9c0,0.5,0,0.9,0,1.3c0,0.4,0.1,0.8,0.1,0.8c0,0,0,0,0-0.2c0-0.1-0.1-0.4-0.6-1c-0.2-0.3-0.8-0.7-1.4-0.8
			c-0.3-0.1-0.6-0.1-0.9-0.1c-0.3,0-0.6,0-0.7,0.1c-0.8,0.2-0.9,0.3-1,0.5c-0.2,0.2-0.1,0.1-0.1,0l0.2-0.4l1.3-2.4
			c0.5-0.8,0.9-1.7,1.3-2.5l1.2-2.6c1.6-3.5,3-7.2,4.2-10.9c0.6-1.9,1.2-3.7,1.8-5.6c0.6-1.9,1.1-3.8,1.5-5.6L131.8,197.1z"/>
		<path class="st17" d="M128.4,186.7c-2.9,0.5-7.5,18.9-7.5,18.9l6.7,5.1c0,0,6.7-13.3,7-19.3C134.8,187.1,130.6,186.3,128.4,186.7z
			"/>
		<path class="st17" d="M117.9,216.9l-1.1-9.2l-5.2,7.7c0,0,0.7,3.2,3.9,3.7L117.9,216.9z"/>
		<polygon class="st17" points="154.6,409.4 146.6,409.7 145.1,381.8 156.2,381.9 		"/>
		<path class="st1" d="M146.1,407.1l9-0.1c0.3,0,0.6,0.2,0.6,0.5l0.5,7.1c0.1,0.7-0.6,1.4-1.4,1.4c-3.1,0-4.6-0.2-8.6-0.2
			c-2.4,0-6,0.3-9.3,0.3c-3.3,0-3.3-3.3-1.9-3.6c6.3-1.4,7.5-3.3,9.7-5C145.1,407.3,145.6,407.1,146.1,407.1z"/>
		<path class="st10" d="M127.9,186.6c0,0-4,1-4,48.3c12.7,1.1,25.9,2.3,32.1,2.8c1.6-13.2,2.9-21.3,13.5-47.7c0,0-6.5-2.1-13.3-3
			c-5.4-0.7-9.8-1.3-14.6-1.3C135.2,185.8,127.9,186.6,127.9,186.6z"/>
		<path class="st18" d="M163.2,196.1l1.7,5.8c-1.3,3.6-2.5,6.8-3.4,9.7C160.5,206.2,161.9,199.2,163.2,196.1z"/>
		<polygon class="st17" points="116.8,207.7 111.5,215.4 117.9,215 121.3,208 		"/>
		<path class="st1" d="M120.1,225.4l6-0.1c0.8,0,1.5-0.8,1.4-1.6l-1.9-13.5c-0.1-0.7-0.7-1.2-1.4-1.2l-6,0.1c-0.8,0-1.5,0.8-1.4,1.6
			l1.9,13.5C118.8,224.9,119.4,225.4,120.1,225.4z"/>
		<path class="st17" d="M157.4,170.4c-1.7,4.6-4,13.2-1.2,16.6c0,0-6,5.4-15.9,9.7c-3.3-7.8,1.3-10.9,1.3-10.9
			c5.4-0.8,5.9-4.7,5.6-8.5L157.4,170.4z"/>
		<path class="st1" d="M135.4,165.1c-0.8,13.9-9.2,17.9-7.2,25c2.8,10,14.1,2.2,14.1,2.2s-6.1,2-6.5-2.9c-0.3-4,13.9-3.4,9.9-12.8
			C143.1,170.6,135.4,165.1,135.4,165.1z"/>
		<path class="st18" d="M154.5,173.9l-7.3,3.4c0.1,0.9,0.1,1.8,0,2.6c1.5,0.1,5.5-1,6.9-3.5C154.8,175.5,154.6,174.4,154.5,173.9z"
			/>
		<path class="st17" d="M158.7,157.3c0.7,7.9,1.2,11.2-2.1,15.8c-5,7-14.8,6.1-17.9-1.4c-2.8-6.8-3.5-18.5,3.7-22.8
			C149.4,144.7,157.9,149.5,158.7,157.3z"/>
		<path class="st1" d="M156.9,149.4c-6.2-4.3-11.4,3.9-0.3,11.9C167.6,169.3,164,154.3,156.9,149.4z"/>
		<path class="st1" d="M153.6,147.1c2.6,2.3-12.7,10.8-21,8c-8.3-2.8-1.6-9.2,1.4-10c-2.6,2.5,1.9,6.3,4.2,3.9
			C140.3,146.8,148.5,142.5,153.6,147.1z"/>
		<g>
			<path class="st10" d="M123.9,234.9c0,0-16.9,71.7-15.4,89.8c1.7,21.2,24.9,55.3,24.9,55.3l10.6-9.6c0,0-10.6-27.9-18.4-46.1
				c2.5-18.2,24.6-69.6,24.6-86.9L123.9,234.9z"/>
			<path class="st22" d="M123.9,234.9c0,0-16.9,71.7-15.4,89.8c1.7,21.2,24.9,55.3,24.9,55.3l10.6-9.6c0,0-10.6-27.9-18.4-46.1
				c2.5-18.2,24.6-69.6,24.6-86.9L123.9,234.9z"/>
		</g>
		<polygon class="st10" points="145.9,371.8 133.3,381.2 130.1,378.7 143.9,367.8 		"/>
		<path class="st18" d="M136.4,266.5c-9.3,12.9-9.8,36.7-9.2,50c3.2-12.3,9.9-30.6,15.3-47.1C142.3,263.1,140.8,260.4,136.4,266.5z"
			/>
		<g>
			<path class="st10" d="M129.9,235c0,0,6.2,61.9,8.3,82.8c2.5,24.8,6.1,64.6,6.1,64.6l11.9-0.5c0,0,2.6-33.7,0.7-56
				c0.4-29.5,4.7-69.6-0.9-88.2L129.9,235z"/>
		</g>
		<path class="st22" d="M129.9,235c0,0,6.2,61.9,8.3,82.8c2.5,24.8,6.1,64.6,6.1,64.6l11.9-0.5c0,0,2.6-33.7,0.7-56
			c0.4-29.5,4.7-69.6-0.9-88.2L129.9,235z"/>
		<polygon class="st10" points="157.1,384.1 143.4,383.7 142.4,379.4 157.9,379 		"/>
		<path class="st1" d="M146.4,161.7c0.1,0.6-0.2,1.2-0.6,1.3c-0.4,0.1-0.8-0.4-0.9-1c-0.1-0.6,0.2-1.2,0.6-1.3
			C145.9,160.6,146.3,161.1,146.4,161.7z"/>
		<path class="st1" d="M139.2,162.8c0.1,0.6-0.2,1.2-0.6,1.3c-0.4,0.1-0.8-0.4-0.9-1c-0.1-0.6,0.2-1.2,0.6-1.3
			C138.7,161.7,139.1,162.2,139.2,162.8z"/>
		<path class="st1" d="M138.5,161.8l-1.6-0.2C136.9,161.6,137.8,162.7,138.5,161.8z"/>
		<path class="st23" d="M141.6,163.4c0,0-0.7,2.9-1.6,4.4c1,0.7,2.3,0.1,2.3,0.1L141.6,163.4z"/>
		<path class="st1" d="M146.4,169.7c-0.3,0.1-0.7,0.2-1.1,0.3c-0.1,0-0.2-0.1-0.2-0.2c0-0.1,0.1-0.2,0.2-0.2
			c2.8-0.4,3.8-2.6,3.8-2.6c0-0.1,0.2-0.1,0.2-0.1c0.1,0,0.1,0.2,0.1,0.2C149.4,167.2,148.6,168.9,146.4,169.7z"/>
		<path class="st17" d="M160.9,162.7c-0.1,1.6-0.9,3.1-2,4c-1.5,1.3-3.2,0.2-3.5-1.7c-0.3-1.7,0.2-4.5,2.1-5.1
			C159.4,159.3,161,160.9,160.9,162.7z"/>
		<path class="st1" d="M149.7,157.8c-0.1,0-0.2,0-0.3-0.1c-1.4-1-2.7-0.5-2.7-0.4c-0.2,0.1-0.4,0-0.5-0.2c-0.1-0.2,0-0.4,0.2-0.5
			c0.1,0,1.7-0.7,3.4,0.5c0.2,0.1,0.2,0.4,0.1,0.5C149.9,157.7,149.8,157.7,149.7,157.8z"/>
		<path class="st1" d="M136.1,160c-0.1,0-0.2,0-0.3,0c-0.2-0.1-0.3-0.3-0.2-0.5c0.9-1.9,2.6-2.2,2.7-2.2c0.2,0,0.4,0.1,0.4,0.3
			c0,0.2-0.1,0.4-0.3,0.4c-0.1,0-1.4,0.2-2.1,1.7C136.3,159.9,136.2,160,136.1,160z"/>
		<path class="st17" d="M171.6,199.7c0.2,1.4,0.2,2.7,0.3,4.1c0,1.3,0.1,2.7,0.1,4c0,2.7-0.2,5.3-0.5,8c-0.3,2.7-0.8,5.3-1.5,8
			c-0.4,1.3-0.8,2.7-1.3,4c-0.2,0.7-0.5,1.3-0.8,2c0,0-0.1,0.3-0.2,0.5c-0.1,0.2-0.2,0.4-0.4,0.6c-0.3,0.4-0.6,0.7-0.9,1
			c-0.6,0.5-1.2,0.9-1.8,1.1c-1.1,0.5-2,0.6-2.8,0.7c-0.8,0.1-1.6,0.1-2.4,0.1c-1.5,0-2.9-0.2-4.2-0.4c-2.7-0.4-5.3-1-7.8-1.7
			c-2.5-0.7-5-1.5-7.4-2.3c-2.4-0.9-4.8-1.7-7.3-2.7l1.2-3.8c2.4,0.5,4.9,1.1,7.4,1.6c2.5,0.5,4.9,1,7.4,1.4
			c2.4,0.4,4.9,0.7,7.2,0.9c1.2,0.1,2.3,0.1,3.4,0.1c0.5,0,1-0.1,1.4-0.2c0.4-0.1,0.8-0.2,0.8-0.3c0,0,0,0-0.2,0.1
			c-0.1,0.1-0.1,0.1-0.2,0.2l-0.1,0.2c0,0-0.1,0.2,0,0.1c0.2-0.5,0.4-1,0.5-1.6c0.3-1.1,0.6-2.2,0.9-3.3c0.5-2.3,0.8-4.6,1-7
			c0.2-2.4,0.3-4.8,0.3-7.2c0-1.2,0-2.4,0-3.6c0-1.2-0.1-2.5-0.2-3.5L171.6,199.7z"/>
		<path class="st17" d="M169.5,190.1c3.5,2.3,2.3,21.9,2.3,21.9l-8.1,1.6c0,0-0.1-10-0.9-16.5C162.1,192.7,167,188.4,169.5,190.1z"
			/>
		<path class="st10" d="M141.7,408.1c-0.2-0.2-0.2-0.5-0.2-0.9c0.1-0.3,0.3-0.5,0.4-0.5c1-0.4,3.3,1.1,3.5,1.3
			c0.1,0,0.1,0.1,0.1,0.2c0,0.1-0.1,0.1-0.2,0.2C144.3,408.5,142.4,408.8,141.7,408.1C141.7,408.1,141.7,408.1,141.7,408.1z
			 M144.8,408c-0.9-0.6-2.3-1.3-2.8-1c-0.1,0-0.1,0.1-0.2,0.2c-0.1,0.3,0,0.5,0.1,0.7C142.4,408.2,143.4,408.3,144.8,408z"/>
		<path class="st10" d="M144.3,407.3c-0.6-0.7-1-1.6-0.9-2.2c0-0.2,0.2-0.5,0.7-0.5c0.3,0,0.6,0,0.8,0.2c0.8,0.8,0.7,3.1,0.7,3.2
			c0,0.1,0,0.1-0.1,0.2c-0.1,0-0.1,0-0.2,0C145,408.1,144.6,407.7,144.3,407.3z M144.7,405.3C144.6,405.2,144.6,405.2,144.7,405.3
			c-0.2-0.2-0.4-0.3-0.6-0.2c-0.2,0-0.3,0.1-0.3,0.2c-0.1,0.5,0.7,1.8,1.4,2.4C145.2,407,145.1,405.8,144.7,405.3z"/>
		<g>
			<path class="st7" d="M156.7,235.9l0.3,3c0.1,0.2-0.2,0.4-0.6,0.4l-33-2.9c-0.3,0-0.5-0.2-0.5-0.4l0.2-2.9c0-0.2,0.3-0.3,0.6-0.3
				l32.5,2.9C156.5,235.7,156.7,235.8,156.7,235.9z"/>
		</g>
		<g>
			<path class="st10" d="M151.8,239.2l0.9,0.1c0.2,0,0.3-0.1,0.3-0.2l0.2-3.8c0-0.1-0.1-0.2-0.3-0.2L152,235c-0.2,0-0.3,0.1-0.3,0.2
				l-0.2,3.8C151.5,239.1,151.6,239.2,151.8,239.2z"/>
			<path class="st22" d="M151.8,239.2l0.9,0.1c0.2,0,0.3-0.1,0.3-0.2l0.2-3.8c0-0.1-0.1-0.2-0.3-0.2L152,235c-0.2,0-0.3,0.1-0.3,0.2
				l-0.2,3.8C151.5,239.1,151.6,239.2,151.8,239.2z"/>
		</g>
		<g>
			<path class="st10" d="M125.9,236.9l0.9,0.1c0.2,0,0.3-0.1,0.3-0.2l0.2-3.8c0-0.1-0.1-0.2-0.3-0.2l-0.9-0.1
				c-0.2,0-0.3,0.1-0.3,0.2l-0.2,3.8C125.6,236.8,125.7,236.9,125.9,236.9z"/>
			<path class="st22" d="M125.9,236.9l0.9,0.1c0.2,0,0.3-0.1,0.3-0.2l0.2-3.8c0-0.1-0.1-0.2-0.3-0.2l-0.9-0.1
				c-0.2,0-0.3,0.1-0.3,0.2l-0.2,3.8C125.6,236.8,125.7,236.9,125.9,236.9z"/>
		</g>
		<g>
			<path class="st10" d="M138.8,238l0.9,0.1c0.2,0,0.3-0.1,0.3-0.2l0.2-3.8c0-0.1-0.1-0.2-0.3-0.2l-0.9-0.1c-0.2,0-0.3,0.1-0.3,0.2
				l-0.2,3.8C138.5,237.9,138.7,238,138.8,238z"/>
			<path class="st22" d="M138.8,238l0.9,0.1c0.2,0,0.3-0.1,0.3-0.2l0.2-3.8c0-0.1-0.1-0.2-0.3-0.2l-0.9-0.1c-0.2,0-0.3,0.1-0.3,0.2
				l-0.2,3.8C138.5,237.9,138.7,238,138.8,238z"/>
		</g>
		<path class="st17" d="M135.2,223.1l-5-6.7l-2.1,8c0,0,3.7,3.3,6.9,2L135.2,223.1z"/>
		<polygon class="st17" points="123.8,215 122.5,221.7 129.2,225.2 130.3,216.4 		"/>
		<path class="st1" d="M145.7,160.7l-1.6-0.2C144.1,160.5,145,161.5,145.7,160.7z"/>
	</g>
</g>
</svg>
