<svg xmlns="http://www.w3.org/2000/svg" xmlns:xlink="http://www.w3.org/1999/xlink" viewBox="0 0 278.06 358"><defs><style>.cls-1{isolation:isolate;}.cls-2{fill:#e6d66a;}.cls-3{fill:#faee9b;}.cls-4{fill:#faf3c6;}.cls-17,.cls-5{fill:#230e0a;}.cls-19,.cls-6{fill:#fff;}.cls-12,.cls-14,.cls-7{fill:#ff8282;}.cls-13,.cls-8{opacity:0.45;}.cls-8{fill:url(#Degradado_sin_nombre_3);}.cls-9{fill:#ff6161;opacity:0.57;}.cls-14,.cls-9{mix-blend-mode:multiply;}.cls-10{fill:#ff4f4f;}.cls-11{fill:#fdbfa8;}.cls-12,.cls-19{opacity:0.4;}.cls-13{fill:url(#Degradado_sin_nombre_2);}.cls-14{opacity:0.5;}.cls-15{fill:#fdd4c5;}.cls-16{fill:#25110d;}.cls-17{opacity:0.29;}.cls-18{fill:#a7b9eb;opacity:0.77;mix-blend-mode:hue;}</style><linearGradient id="Degradado_sin_nombre_3" x1="376.08" y1="330.42" x2="378.43" y2="391.61" gradientUnits="userSpaceOnUse"><stop offset="0" stop-color="#690f1b"/><stop offset="0.21" stop-color="#690f1b" stop-opacity="0.79"/><stop offset="0.89" stop-color="#690f1b" stop-opacity="0"/></linearGradient><linearGradient id="Degradado_sin_nombre_2" x1="379.35" y1="158.29" x2="377" y2="268.9" gradientUnits="userSpaceOnUse"><stop offset="0" stop-color="#ff2441"/><stop offset="0.21" stop-color="#ff2441" stop-opacity="0.79"/><stop offset="0.89" stop-color="#ff2441" stop-opacity="0"/></linearGradient></defs><g class="cls-1"><g id="OBJECTS"><ellipse class="cls-2" cx="137.2" cy="134.33" rx="109.16" ry="134.33"/><ellipse class="cls-3" cx="137.2" cy="140.21" rx="137.2" ry="128.44"/><path class="cls-4" d="M373.17,97.3c48.21,0,91.09,19.36,118.64,49.45-23.76-38.25-68-64-118.64-64s-94.89,25.73-118.65,64C282.07,116.66,325,97.3,373.17,97.3Z" transform="translate(-235.97 -71)"/><path class="cls-2" d="M509.12,228.28c-7.65-14.2-20-25.94-39.24-32.22l-172-5s-38.1,17.59-56.7,55.15c16.27,53.94,69.19,93.48,132,93.48C442.75,339.66,500.2,291.14,509.12,228.28Z" transform="translate(-235.97 -71)"/><path class="cls-5" d="M469.18,300.31a45.08,45.08,0,0,1-1.84-25.09c.13-.61.22-1.24.34-1.85A94.89,94.89,0,0,0,485.1,218.7c0-55.14-47.74-99.84-106.64-99.84s-106.64,44.7-106.64,99.84a94,94,0,0,0,4.7,29.39c-6.29,9.1-15.81,20.42-28.18,27.78-23.54,14-14.12,55,33.73,67.43,0,0,.79,8.94-7.65,16.3,0,0,31.89,15.93,65.83,14.48a410.06,410.06,0,0,1,67.56,2.72c69.29,8.51,97.84-37.14,97.84-37.14C486.83,336.08,475.58,317.18,469.18,300.31Z" transform="translate(-235.97 -71)"/><path class="cls-6" d="M461.12,389.85c-46.52-18.72-61.84-42-57.87-75.46H352.09c4,33.47-11.35,56.74-57.87,75.46S241.45,429,241.45,429H513.89S507.65,408.57,461.12,389.85Z" transform="translate(-235.97 -71)"/><path class="cls-7" d="M327.79,371.75c11.07,28.3,29.28,46.78,49.88,46.78s38.81-18.48,49.89-46.78c-20.36-15.39-27.1-33.86-24.31-57.36H352.09C354.88,337.89,348.14,356.36,327.79,371.75Z" transform="translate(-235.97 -71)"/><path class="cls-8" d="M327.79,371.75c11.07,28.3,29.28,46.78,49.88,46.78s38.81-18.48,49.89-46.78c-20.36-15.39-27.1-33.86-24.31-57.36H352.09C354.88,337.89,348.14,356.36,327.79,371.75Z" transform="translate(-235.97 -71)"/><path class="cls-9" d="M408.26,361.27c1.43-1.31,3-2.74,4.57-4.25-8.79-12.2-11.53-26.17-9.58-42.63H352.09c1.94,16.34-.74,30.24-9.39,42.37,4,3.08,7.69,5.74,10.87,7.93a40,40,0,0,0,22.65,7h5.07A40,40,0,0,0,408.26,361.27Z" transform="translate(-235.97 -71)"/><path class="cls-7" d="M311.55,253.58c8.57,16.4,5,35.21-8,42s-30.5-1-39.08-17.38-5-35.21,8-42S303,237.18,311.55,253.58Z" transform="translate(-235.97 -71)"/><path class="cls-10" d="M304,284.9c0-.67-.17-1.25-.24-1.9.09.47.15.86.19,1.17a24,24,0,0,0-1.42-8.21c-6.77-27.77-32.73-30.56-32.73-30.56,13.15,7.93,21.36,16.69,26.45,24-9.34-3.8-23.77,4.25-23.77,4.25,17.12-4.54,24.91-.78,28.48,3.58A37.46,37.46,0,0,1,304,284.9Z" transform="translate(-235.97 -71)"/><path class="cls-7" d="M443.09,253.58c-8.57,16.4-5,35.21,8,42s30.5-1,39.08-17.38,5-35.21-8-42S451.67,237.18,443.09,253.58Z" transform="translate(-235.97 -71)"/><path class="cls-10" d="M450.62,284.9c.05-.67.17-1.25.24-1.9-.09.47-.15.86-.19,1.17a24,24,0,0,1,1.42-8.21c6.77-27.77,32.73-30.56,32.73-30.56-13.15,7.93-21.36,16.69-26.44,24,9.33-3.8,23.76,4.25,23.76,4.25-17.12-4.54-24.91-.78-28.48,3.58A37.46,37.46,0,0,0,450.62,284.9Z" transform="translate(-235.97 -71)"/><path class="cls-6" d="M296.73,292.11a5.69,5.69,0,1,1-5.68-5.69A5.68,5.68,0,0,1,296.73,292.11Z" transform="translate(-235.97 -71)"/><path class="cls-6" d="M468.15,292.11a5.69,5.69,0,1,1-5.68-5.69A5.68,5.68,0,0,1,468.15,292.11Z" transform="translate(-235.97 -71)"/><path class="cls-5" d="M450.62,222.28A108.63,108.63,0,0,0,456.1,234a76.2,76.2,0,0,0,6.71,10.58A50.56,50.56,0,0,0,480.87,260c1.78.87,3.58,1.47,5.5,2.27a63.58,63.58,0,0,1,6.4,2.67l3.09,1.62c1,.59,2,1.28,2.94,1.92a22.63,22.63,0,0,1,2.79,2.13,30.56,30.56,0,0,1,2.59,2.37c6.73,6.5,10.67,15.95,9.71,24.79a38,38,0,0,0-13.81-20.14,48.33,48.33,0,0,0-10.44-5.84c-1.8-.86-3.81-1.35-5.69-2.06-2.09-.81-4.43-1.58-6.55-2.58a45.56,45.56,0,0,1-19.78-19.23,55.56,55.56,0,0,1-3-6.11c-.77-2.13-1.56-4.23-2.14-6.39A49.17,49.17,0,0,1,450.62,222.28Z" transform="translate(-235.97 -71)"/><path class="cls-5" d="M453.66,277.18S476,230.9,468.23,192v-1.34A58.82,58.82,0,0,0,409.39,132H349.86a63,63,0,0,0-63,62.33l-.23,12.93c-5.94,41.9,11.22,59.8,11.22,59.8l32.36-41.77,105.35-5.39Z" transform="translate(-235.97 -71)"/><path class="cls-11" d="M353.36,160.28a55,55,0,0,0-55,54.39l-.54,52.39c0,36.31,38.88,67.41,57.72,80.35a36.6,36.6,0,0,0,20.73,6.41H381a36.58,36.58,0,0,0,24.69-9.54C423.48,328,456.78,294,456.78,267.06l-.15-55.58a51.33,51.33,0,0,0-51.33-51.2Z" transform="translate(-235.97 -71)"/><path class="cls-12" d="M358.74,302s16.38,11.47,29.88,3.24c0,0-4.35,10.19-18.25,7.7C366.35,312.25,361.23,307.53,358.74,302Z" transform="translate(-235.97 -71)"/><path class="cls-13" d="M353.36,160.28a55,55,0,0,0-55,54.39l-.54,52.39c0,36.31,38.88,67.41,57.72,80.35a36.6,36.6,0,0,0,20.73,6.41H381a36.58,36.58,0,0,0,24.69-9.54C423.48,328,456.78,294,456.78,267.06l-.15-55.58a51.33,51.33,0,0,0-51.33-51.2Z" transform="translate(-235.97 -71)"/><path class="cls-14" d="M298.4,214.67l-.3,29.51h0s20.33-20.69,21.86-41.73c0,0,34.38,5.61,47.37,2.88l-20.64-44.61A55,55,0,0,0,298.4,214.67Z" transform="translate(-235.97 -71)"/><path class="cls-14" d="M408.45,182.34l5.06,17.32,43,10a51.3,51.3,0,0,0-51.24-49.35H373.19l24,44.12Z" transform="translate(-235.97 -71)"/><path class="cls-15" d="M409.54,331.41A45,45,0,0,1,381.45,341h-5.28a45.74,45.74,0,0,1-23.58-6.41c-12.09-7.3-31.43-20.37-46-36.9,12.58,22.57,35.74,40.67,49,49.77a36.6,36.6,0,0,0,20.73,6.41H381a36.58,36.58,0,0,0,24.69-9.54c12-10.91,30.84-29.78,42-49.15C435.38,309.69,420.09,323,409.54,331.41Z" transform="translate(-235.97 -71)"/><path class="cls-16" d="M418.22,244.18c0,6.24-2.11,11.29-4.72,11.29s-4.71-5.05-4.71-11.29,2.11-11.29,4.71-11.29S418.22,238,418.22,244.18Z" transform="translate(-235.97 -71)"/><path class="cls-5" d="M435.71,231.83c.61-.36-25.52-16.86-41.65-16.27-.2.26,1.06-18.64,22.45-11C437.25,213.15,435.52,232.07,435.71,231.83Z" transform="translate(-235.97 -71)"/><ellipse class="cls-16" cx="105.16" cy="173.18" rx="4.72" ry="11.29"/><path class="cls-5" d="M316.54,231.83c-.6-.36,25.52-16.86,41.65-16.27.2.26-.37-16.64-21.77-8.95C315.68,215.16,316.73,232.07,316.54,231.83Z" transform="translate(-235.97 -71)"/><path class="cls-7" d="M329.83,282.52a2.1,2.1,0,0,1-1.88-3l6.59-13.63a2.09,2.09,0,1,1,3.76,1.81l-6.58,13.64A2.12,2.12,0,0,1,329.83,282.52Z" transform="translate(-235.97 -71)"/><path class="cls-7" d="M316.66,282.52a2.09,2.09,0,0,1-1.87-3l6.58-13.63a2.09,2.09,0,1,1,3.76,1.81l-6.58,13.64A2.11,2.11,0,0,1,316.66,282.52Z" transform="translate(-235.97 -71)"/><path class="cls-7" d="M423.56,282.52a2.11,2.11,0,0,1-1.89-1.18l-6.58-13.64a2.09,2.09,0,1,1,3.76-1.81l6.58,13.63a2.09,2.09,0,0,1-1.87,3Z" transform="translate(-235.97 -71)"/><path class="cls-7" d="M436.72,282.52a2.1,2.1,0,0,1-1.88-1.18l-6.58-13.64a2.09,2.09,0,1,1,3.76-1.81l6.58,13.63a2.09,2.09,0,0,1-1.88,3Z" transform="translate(-235.97 -71)"/><path class="cls-7" d="M358.66,297.69c-1-.66-1.94-1.33-2.74-2a2.24,2.24,0,1,1,2.8-3.49c.76.6,18.68,14.63,31.45,1.87a2.23,2.23,0,1,1,3.16,3.16C382.18,308.4,367.09,303.2,358.66,297.69Z" transform="translate(-235.97 -71)"/><path class="cls-7" d="M386.17,264.16c-1-7.39-4.43-15.81-8.55-15.81s-7.61,8.49-8.57,15.9c-14.82,3-12.28,13.69-12.28,13.69s20.85,10.63,41.7,0C398.47,277.94,401.65,267,386.17,264.16Z" transform="translate(-235.97 -71)"/><circle class="cls-5" cx="165.03" cy="213.93" r="2.27"/><circle class="cls-17" cx="116.85" cy="215.42" r="2.27"/><path class="cls-5" d="M317.57,187.55c9,6.37,21.95,11.32,40.64,11.32l-11.52-38.15a54.86,54.86,0,0,0-37.33,21.68c-.57.77-1.15,1.52-1.68,2.31-.36.54-.67,1.1-1,1.65-.85,1.36-1.63,2.76-2.36,4.19-.38.77-.78,1.53-1.14,2.32s-.57,1.41-.86,2.12-.66,1.68-.95,2.55c-.24.69-.45,1.39-.66,2.1-.28.93-.53,1.88-.76,2.83q-.24,1-.45,2c-.22,1.09-.38,2.19-.54,3.31-.07.57-.17,1.13-.23,1.71-.18,1.7-.3,3.42-.32,5.17l-.3,29.51A72.69,72.69,0,0,0,307,224.57Z" transform="translate(-235.97 -71)"/><path class="cls-5" d="M398.74,191s5.44-14.79,4.47-30.75h-30A149.87,149.87,0,0,1,398.74,191Z" transform="translate(-235.97 -71)"/><path class="cls-5" d="M408.45,160.44c3.71,8.95,6.62,19.57,6.43,30.59l34.35,8.47.83,20a79.11,79.11,0,0,0,5.49,25.86l1.18,3-.1-36.87a50.49,50.49,0,0,0-1.12-10.43h0A51.31,51.31,0,0,0,408.45,160.44Z" transform="translate(-235.97 -71)"/><circle class="cls-18" cx="332.52" cy="249.7" r="32.05" transform="translate(-242.72 419.15) rotate(-72.23)"/><path class="cls-19" d="M362.09,237.32,313,275.06a32,32,0,0,0,49.11-37.74Z" transform="translate(-235.97 -71)"/><path class="cls-19" d="M334.7,217.76l-32.34,21.17a32,32,0,0,0-1.89,10.77,30.94,30.94,0,0,0,.24,3.75l44.69-33.09A32.07,32.07,0,0,0,334.7,217.76Z" transform="translate(-235.97 -71)"/><path class="cls-3" d="M332.52,217.65a32,32,0,1,1-32,32,32.05,32.05,0,0,1,32-32m0-2.77a34.82,34.82,0,1,0,34.81,34.82,34.86,34.86,0,0,0-34.81-34.82Z" transform="translate(-235.97 -71)"/><path class="cls-18" d="M454.85,249.7a32.05,32.05,0,1,1-32.05-32A32.05,32.05,0,0,1,454.85,249.7Z" transform="translate(-235.97 -71)"/><path class="cls-19" d="M440.81,223.18l-43.64,45.7a32.08,32.08,0,0,0,15,11L453,239A32.13,32.13,0,0,0,440.81,223.18Z" transform="translate(-235.97 -71)"/><path class="cls-3" d="M422.8,217.65a32,32,0,1,1-32.05,32,32.05,32.05,0,0,1,32.05-32m0-2.77a34.82,34.82,0,1,0,34.82,34.82,34.86,34.86,0,0,0-34.82-34.82Z" transform="translate(-235.97 -71)"/><path class="cls-3" d="M365.49,243.66l-2.29-2.52a24.44,24.44,0,0,1,27.92-2.09l-1.67,3C375.88,234.44,365.6,243.57,365.49,243.66Z" transform="translate(-235.97 -71)"/></g></g></svg>