<svg id="OBJECTS" xmlns="http://www.w3.org/2000/svg" viewBox="0 0 278.91 328.89"><defs><style>.cls-1{fill:#0ac2b2;}.cls-2{fill:#078c81;opacity:0.44;}.cls-3{fill:#b23a3a;}.cls-4{fill:#9c2222;}.cls-5{fill:#080603;}.cls-6{fill:#a82929;}.cls-7{fill:#871313;}.cls-8{fill:#c06161;}.cls-9{fill:#d97979;}.cls-10{fill:#25110d;}</style></defs><path class="cls-1" d="M460.44,374.37c-47.63-19.17-63.32-43-59.25-77.26H348.81c4.07,34.27-11.62,58.09-59.25,77.26s-54,40.08-54,40.08H514.46S508.07,393.53,460.44,374.37Z" transform="translate(-235.54 -85.55)"/><path class="cls-2" d="M376.72,389.88a56,56,0,0,0-46.35,24.57h92.71A56,56,0,0,0,376.72,389.88Z" transform="translate(-235.54 -85.55)"/><path class="cls-3" d="M331.22,349.66a61.86,61.86,0,0,0,90.63,2.79c-17.55-15.07-23.31-33-20.66-55.34H348.81C351.3,318.11,346.36,335.18,331.22,349.66Z" transform="translate(-235.54 -85.55)"/><path class="cls-4" d="M374.64,348.28a79.47,79.47,0,0,0,35.67-8.49c-8.46-12.26-11.07-26.26-9.12-42.68H348.81c2,16.53-.71,30.62-9.31,42.94A79.38,79.38,0,0,0,374.64,348.28Z" transform="translate(-235.54 -85.55)"/><path class="cls-5" d="M476.67,221.13c1.54-23.11,6.52-60.62,1-74.22a15.11,15.11,0,0,0,9.17-9.81,8.42,8.42,0,0,0,.2-4.34,9,9,0,0,0-1.66-3.13,18.5,18.5,0,0,0-6.66-5.37,15.12,15.12,0,0,0,1.69-17.38,8.48,8.48,0,0,0-3-3.13,9,9,0,0,0-3.42-1,19.73,19.73,0,0,0-19.88,11.94c-.59,1.46-1.22,3.1-1.8,4.83a39,39,0,0,0-18.34-2.22c-.68,0-1.06.08-1.06.08h-.06a28.75,28.75,0,0,1-13.15-1l-3.13,122Z" transform="translate(-235.54 -85.55)"/><path class="cls-6" d="M307.31,234.85c8.78,16.8,5.1,36-8.22,43s-31.23-1-40-17.8-5.1-36,8.22-43S298.53,218.06,307.31,234.85Z" transform="translate(-235.54 -85.55)"/><path class="cls-7" d="M299.6,266.91c-.05-.68-.18-1.27-.25-1.93.1.48.16.87.2,1.19a25.09,25.09,0,0,0-1.45-8.41c-6.94-28.42-33.52-31.28-33.52-31.28,13.47,8.12,21.87,17.09,27.08,24.52-9.56-3.89-24.33,4.35-24.33,4.35,17.53-4.65,25.5-.8,29.16,3.66A38.94,38.94,0,0,1,299.6,266.91Z" transform="translate(-235.54 -85.55)"/><path class="cls-6" d="M442,234.85c-8.78,16.8-5.1,36,8.22,43s31.23-1,40-17.8,5.1-36-8.22-43S450.76,218.06,442,234.85Z" transform="translate(-235.54 -85.55)"/><path class="cls-7" d="M449.68,266.91c.05-.68.18-1.27.26-1.93a11.3,11.3,0,0,0-.2,1.19,24.6,24.6,0,0,1,1.45-8.41c6.94-28.42,33.51-31.28,33.51-31.28-13.46,8.12-21.87,17.09-27.07,24.52,9.55-3.89,24.32,4.35,24.32,4.35-17.52-4.65-25.49-.8-29.15,3.66A38.69,38.69,0,0,0,449.68,266.91Z" transform="translate(-235.54 -85.55)"/><path class="cls-5" d="M294.68,264.94s-21.84-41.42-11.49-92.37l32.73-26.29Z" transform="translate(-235.54 -85.55)"/><path class="cls-5" d="M455.12,264.94S477,223.52,466.6,172.57l-32.72-26.29Z" transform="translate(-235.54 -85.55)"/><path class="cls-8" d="M350.11,139.33A56.27,56.27,0,0,0,293.85,195l-.56,53.64c0,49.06,36.42,88.83,81.35,88.83S456,297.71,456,248.65l-.15-56.9a52.55,52.55,0,0,0-52.55-52.42Z" transform="translate(-235.54 -85.55)"/><path class="cls-3" d="M455.87,200l0-8.25a52.55,52.55,0,0,0-52.55-52.42H350.11A56.27,56.27,0,0,0,293.85,195l-.05,4.8c25.17-11.89,85.39-37.14,124.41-27.24C432.27,176.14,444.91,186.69,455.87,200Z" transform="translate(-235.54 -85.55)"/><path class="cls-9" d="M374.64,326.64a92.4,92.4,0,0,1-68.35-29.85c14.48,24.48,39.68,40.69,68.35,40.69s53.87-16.21,68.36-40.69A92.41,92.41,0,0,1,374.64,326.64Z" transform="translate(-235.54 -85.55)"/><path class="cls-6" d="M386.26,250c0,7.7-5.2,13.94-11.62,13.94S363,257.68,363,250s5.21-17.33,11.62-17.33S386.26,242.28,386.26,250Z" transform="translate(-235.54 -85.55)"/><path class="cls-10" d="M416.52,225.23c0,6.39-2.17,11.56-4.83,11.56s-4.83-5.17-4.83-11.56,2.16-11.55,4.83-11.55S416.52,218.85,416.52,225.23Z" transform="translate(-235.54 -85.55)"/><path class="cls-5" d="M434.42,212.58c.62-.36-26.12-17.26-42.63-16.65-.21.27.32-14.75,22.23-6.88C435.25,197.8,434.23,212.83,434.42,212.58Z" transform="translate(-235.54 -85.55)"/><ellipse class="cls-10" cx="102.05" cy="139.68" rx="4.83" ry="11.56"/><path class="cls-5" d="M312.42,212.58c-.62-.36,26.12-17.26,42.64-16.65.2.27-.33-14.75-22.24-6.88C311.59,197.8,312.61,212.83,312.42,212.58Z" transform="translate(-235.54 -85.55)"/><path class="cls-6" d="M326,264.48a2.18,2.18,0,0,1-.93-.21,2.15,2.15,0,0,1-1-2.86l6.74-14a2.15,2.15,0,0,1,2.86-1,2.13,2.13,0,0,1,1,2.85l-6.74,14A2.14,2.14,0,0,1,326,264.48Z" transform="translate(-235.54 -85.55)"/><path class="cls-6" d="M312.54,264.48a2.14,2.14,0,0,1-1.92-3.07l6.74-14a2.15,2.15,0,0,1,2.86-1,2.13,2.13,0,0,1,1,2.85l-6.74,14A2.15,2.15,0,0,1,312.54,264.48Z" transform="translate(-235.54 -85.55)"/><path class="cls-6" d="M422,264.48a2.15,2.15,0,0,1-1.93-1.21l-6.74-14a2.14,2.14,0,0,1,3.85-1.86l6.74,14a2.14,2.14,0,0,1-1,2.86A2.21,2.21,0,0,1,422,264.48Z" transform="translate(-235.54 -85.55)"/><path class="cls-6" d="M435.46,264.48a2.15,2.15,0,0,1-1.93-1.21l-6.74-14a2.14,2.14,0,0,1,3.85-1.86l6.74,14a2.14,2.14,0,0,1-1,2.86A2.21,2.21,0,0,1,435.46,264.48Z" transform="translate(-235.54 -85.55)"/><path class="cls-6" d="M367,279.57a40,40,0,0,1-18.9-5.06,2.71,2.71,0,0,1,2.54-4.79c14.52,7.72,24.53,3.08,24.94,2.88a2.72,2.72,0,0,1,3.62,1.25,2.69,2.69,0,0,1-1.22,3.61A26.16,26.16,0,0,1,367,279.57Z" transform="translate(-235.54 -85.55)"/><path class="cls-5" d="M415,91.58C384.39,83,259.82,69.42,250.1,165.77,260.94,157,275.45,152.7,286,152.7c-22.29,19.49-21.2,50.07-21.39,50.05,84.33-58,173-60.45,190.29-20.8C454.41,182.75,471.9,106.93,415,91.58Z" transform="translate(-235.54 -85.55)"/></svg>