<svg id="OBJECTS" xmlns="http://www.w3.org/2000/svg" xmlns:xlink="http://www.w3.org/1999/xlink" viewBox="0 0 278.34 339.06"><defs><style>.cls-1{fill:#4a81d2;}.cls-2{fill:#6692d2;}.cls-3{fill:#e35224;}.cls-4{fill:#e33c07;}.cls-5{fill:#a61b08;}.cls-6{fill:#f08065;}.cls-7{opacity:0.45;fill:url(#Degradado_sin_nombre_30);}.cls-8{fill:#f0937c;}.cls-9{fill:#080603;}.cls-10{fill:#110918;}.cls-11{fill:#c4301b;}.cls-12{fill:#e3572a;}</style><linearGradient id="Degradado_sin_nombre_30" x1="375.98" y1="171.53" x2="378.99" y2="276.73" gradientUnits="userSpaceOnUse"><stop offset="0" stop-color="#f00e47"/><stop offset="0.21" stop-color="#f00e47" stop-opacity="0.79"/><stop offset="0.37" stop-color="#f00e47" stop-opacity="0.5"/><stop offset="0.89" stop-color="#f00e47" stop-opacity="0"/></linearGradient></defs><path class="cls-1" d="M465.8,386.28c-47.53-19.13-63.19-42.9-59.13-77.1H354.4c4.06,34.2-11.59,58-59.12,77.1s-53.91,40-53.91,40H519.71S513.33,405.41,465.8,386.28Z" transform="translate(-241.37 -87.21)"/><path class="cls-2" d="M380.54,403.28c30.56,0,57.92-8,76.52-20.74-40.71-18.48-54.19-41.35-50.39-73.36H354.4c3.8,32-9.67,54.88-50.38,73.36C322.61,395.24,350,403.28,380.54,403.28Z" transform="translate(-241.37 -87.21)"/><path class="cls-3" d="M315.66,376.73c15.51,11,38.81,18,64.88,18s49.36-7,64.88-18c-31.64-17.44-42.16-38.81-38.75-67.55H354.4C357.81,337.92,347.3,359.29,315.66,376.73Z" transform="translate(-241.37 -87.21)"/><path class="cls-4" d="M406.67,309.18H354.4c2.5,21.05-2.52,38.13-17.79,52.63a100.79,100.79,0,0,0,22.29,5.35c3.34,6.72,12.39,11.56,23.05,11.56,11.12,0,20.49-5.26,23.46-12.44a95.78,95.78,0,0,0,18.47-5C409.07,346.87,404.21,330,406.67,309.18Z" transform="translate(-241.37 -87.21)"/><path class="cls-3" d="M311.37,249.15c8.72,16.67,5.06,35.78-8.15,42.69s-31-1-39.71-17.67-5.06-35.77,8.15-42.68S302.66,232.48,311.37,249.15Z" transform="translate(-241.37 -87.21)"/><path class="cls-5" d="M303.73,281c-.05-.68-.18-1.27-.25-1.92.09.47.16.87.19,1.18a24.53,24.53,0,0,0-1.44-8.35c-6.88-28.21-33.26-31-33.26-31,13.36,8.07,21.71,17,26.87,24.34-9.48-3.86-24.14,4.32-24.14,4.32,17.39-4.61,25.3-.8,28.94,3.63A39.05,39.05,0,0,1,303.73,281Z" transform="translate(-241.37 -87.21)"/><path class="cls-3" d="M445,249.15c-8.71,16.67-5.06,35.78,8.16,42.69s31-1,39.71-17.67,5.06-35.77-8.16-42.68S453.74,232.48,445,249.15Z" transform="translate(-241.37 -87.21)"/><path class="cls-5" d="M452.68,281c.05-.68.18-1.27.25-1.92-.1.47-.16.87-.2,1.18a24.78,24.78,0,0,1,1.44-8.35c6.89-28.21,33.26-31,33.26-31-13.36,8.07-21.7,17-26.87,24.34,9.49-3.86,24.15,4.32,24.15,4.32-17.4-4.61-25.31-.8-28.94,3.63A38.29,38.29,0,0,0,452.68,281Z" transform="translate(-241.37 -87.21)"/><path class="cls-6" d="M460.8,275.34l-3-11.71-5.92-68.07c-1,12.88-9.88,13.54-9.88,13.54,3-6.71-3.95-26.42-3.95-26.42-3,12-20.74,11-20.74,11,14.81-21.16,0-52.44,0-52.44-2,35.88-29.63,49.68-77,67.82C304.88,222.64,298.12,255,297,270.52c1.15,38.57,11.63,74.36,63.32,81.1,3.11,6.26,11.53,10.76,21.46,10.76,10.36,0,19.08-4.89,21.84-11.58C450.16,342.7,459.53,310.38,460.8,275.34Z" transform="translate(-241.37 -87.21)"/><path class="cls-7" d="M460.8,275.34l-3-11.71-5.92-68.07c-1,12.88-9.88,13.54-9.88,13.54,3-6.71-3.95-26.42-3.95-26.42-3,12-20.74,11-20.74,11,14.81-21.16,0-52.44,0-52.44-2,35.88-29.63,49.68-77,67.82C304.88,222.64,298.12,255,297,270.52c1.15,38.57,11.63,74.36,63.32,81.1,3.11,6.26,11.53,10.76,21.46,10.76,10.36,0,19.08-4.89,21.84-11.58C450.16,342.7,459.53,310.38,460.8,275.34Z" transform="translate(-241.37 -87.21)"/><path class="cls-8" d="M404.79,337.1c-2.89,6.68-12,11.58-22.91,11.58-10.42,0-19.25-4.5-22.51-10.77-34.82-4.32-51.8-20.64-59.82-42,5.42,27.83,20.73,50.46,60.73,55.67,3.11,6.26,11.53,10.76,21.46,10.76,10.36,0,19.08-4.89,21.84-11.58,36.33-6.32,50-27.37,54.89-53C451.11,317,435.83,332,404.79,337.1Z" transform="translate(-241.37 -87.21)"/><path class="cls-9" d="M434,117.84c-.31-18-17.16-30.63-17.16-30.63L423,110.09c-21.9-13.28-73.27-34.3-126.23,16.48,0,0-56.53,45.12-18.69,115.91l18.77,36.65c.5-20.53,5.79-33.91,9.2-40.49,6.29-11.58,16.77-22.86,34.26-29.54,20.5-7.85,37.29-14.88,49.92-23.24a94.89,94.89,0,0,1-15.1,17.91c44.95-23.77,42.22-62.49,42.22-62.49s14.81,31.28,0,52.44c0,0,17.78.92,20.74-11,0,0,6.91,19.71,3.95,26.42,0,0,8.89-.66,9.88-13.54L454,220h0l3.8,43.67.48,1.86,1.87,19.94s.66-2.43,1.54-6.57l.06.27L476.25,231S514.14,141.28,434,117.84Z" transform="translate(-241.37 -87.21)"/><path class="cls-10" d="M419.58,242.44c0,6.35-2.25,11.5-5,11.5s-5-5.15-5-11.5,2.25-11.49,5-11.49S419.58,236.09,419.58,242.44Z" transform="translate(-241.37 -87.21)"/><path class="cls-10" d="M338.82,242.44c0,6.35,2.25,11.5,5,11.5s5-5.15,5-11.5-2.25-11.49-5-11.49S338.82,236.09,338.82,242.44Z" transform="translate(-241.37 -87.21)"/><path class="cls-9" d="M321.43,230.13s27.86-9,41.78-8.24c0,0-2.35-15.54-19-12.79A27.27,27.27,0,0,0,321.43,230.13Z" transform="translate(-241.37 -87.21)"/><path class="cls-9" d="M438.73,223.16c1.13-1.35-29.05-12.32-43.37-3.46.06.61-4.64-16,17.29-17.94C439.13,202.22,439,224,438.73,223.16Z" transform="translate(-241.37 -87.21)"/><path class="cls-11" d="M338.81,281.48a2.19,2.19,0,0,1-1-.21,2.09,2.09,0,0,1-1-2.84l7-13.88a2.27,2.27,0,0,1,3-1,2.08,2.08,0,0,1,1,2.83l-7,13.89A2.24,2.24,0,0,1,338.81,281.48Z" transform="translate(-241.37 -87.21)"/><path class="cls-11" d="M324.79,281.48a2.39,2.39,0,0,1-1-.21,2.08,2.08,0,0,1-1-2.84l7-13.88a2.27,2.27,0,0,1,3-1,2.09,2.09,0,0,1,1,2.84l-7,13.88A2.22,2.22,0,0,1,324.79,281.48Z" transform="translate(-241.37 -87.21)"/><path class="cls-11" d="M423.79,281.49a2.24,2.24,0,0,1-2-1.21l-7-13.88a2.08,2.08,0,0,1,1-2.84,2.27,2.27,0,0,1,3,1l7,13.88a2.08,2.08,0,0,1-1,2.84A2.22,2.22,0,0,1,423.79,281.49Z" transform="translate(-241.37 -87.21)"/><path class="cls-11" d="M434.84,280.25a2.22,2.22,0,0,1-2-1.2l-7-13.89a2.09,2.09,0,0,1,1-2.84,2.28,2.28,0,0,1,3,1l7,13.89a2.08,2.08,0,0,1-1,2.84A2.34,2.34,0,0,1,434.84,280.25Z" transform="translate(-241.37 -87.21)"/><path class="cls-11" d="M392.45,258.69c-.7-8.06-6-24.77-12.26-24.74s-11.35,16.63-12,24.74a10.63,10.63,0,0,0-8.13,12.12l.38,2.27a5.43,5.43,0,0,0,5.36,4.54h29a5.43,5.43,0,0,0,5.36-4.54l.38-2.27A10.64,10.64,0,0,0,392.45,258.69Z" transform="translate(-241.37 -87.21)"/><path class="cls-11" d="M377.32,300.72a74,74,0,0,1-28.79-5.7,2.7,2.7,0,1,1,2.27-4.91c.29.13,29.08,13.06,57.42-2.74a2.71,2.71,0,1,1,2.63,4.73A68.2,68.2,0,0,1,377.32,300.72Z" transform="translate(-241.37 -87.21)"/><path class="cls-12" d="M358.21,305.38s27.26,7.15,46.49-3C404.7,302.34,383.86,323.81,358.21,305.38Z" transform="translate(-241.37 -87.21)"/></svg>