<svg xmlns="http://www.w3.org/2000/svg" xmlns:xlink="http://www.w3.org/1999/xlink" viewBox="0 0 277.43 309.95"><defs><style>.cls-1{isolation:isolate;}.cls-2{fill:#080603;}.cls-3{fill:#c0c1c8;}.cls-4{fill:#abacb2;}.cls-5{fill:#c54e2a;}.cls-6{fill:#b33e1b;}.cls-7{fill:#b62900;}.cls-8{fill:#e8653f;}.cls-9{opacity:0.45;fill:url(#Degradado_sin_nombre_18);}.cls-10{fill:#ff7f59;}.cls-11{fill:#25110d;}.cls-12{fill:#cf4821;}.cls-13{fill:#230e0a;}.cls-14{fill:#a7b9eb;opacity:0.77;mix-blend-mode:hue;}.cls-15{fill:#fff;opacity:0.4;}</style><linearGradient id="Degradado_sin_nombre_18" x1="379.16" y1="105.38" x2="375.98" y2="187.92" gradientUnits="userSpaceOnUse"><stop offset="0" stop-color="#9c1628"/><stop offset="0.21" stop-color="#9c1628" stop-opacity="0.79"/><stop offset="0.37" stop-color="#9c1628" stop-opacity="0.91"/><stop offset="0.89" stop-color="#9c1628" stop-opacity="0"/></linearGradient></defs><g class="cls-1"><g id="OBJECTS"><path class="cls-2" d="M476.47,208.09S469.72,190,463.76,161.3c0-.08,0-.16-.05-.24l-.06-.29h0c-18.4-85.3-156.31-88.08-176.56-5.61a115.14,115.14,0,0,0-3.71,12.16v0c0,.12-.06.23-.08.34-.2.85-.4,1.73-.59,2.61-6.58,25.9-32.23,45-32.23,45,15.74-5.51,24.75-12.41,29.88-18.9a93.46,93.46,0,0,0,3.77,22.88L284,236.49c0,3.39.14,6.74.39,10-1.26,13-.85,35.8,14.86,48.49,6.65,5.38,10.07,13.64,8.53,21.93-1.63,8.77-8,17.61-27.12,17.87,0,0,3,22.27,90,23.05,88.69.81,90-22.64,90-22.64-19.09-.18-25.49-6.18-27.12-12.13-1.54-5.62,1.88-11.22,8.54-14.88,12.74-7,17.82-30.34,19.82-49.55h1.69a139.75,139.75,0,0,0,1.76-22.19l-.11-42.78A86.33,86.33,0,0,0,476.47,208.09Z" transform="translate(-236.28 -95.02)"/><path class="cls-3" d="M460,365.37C412.6,346.43,397,322.9,401.05,289H349C353,322.9,337.4,346.43,290,365.37S236.28,405,236.28,405H513.72S507.36,384.31,460,365.37Z" transform="translate(-236.28 -95.02)"/><path class="cls-4" d="M441.56,356.93c-33-17.46-44-38.88-40.51-67.89H349c3.1,26-5.37,45.85-30.84,62.26-1.3,13.51-4.12,26.59,11,33.35,18.11,8.08,39.24,6.65,58.33,1.19A148.48,148.48,0,0,0,441.56,356.93Z" transform="translate(-236.28 -95.02)"/><path class="cls-5" d="M435.12,353.3c-28-16.78-37.3-37.23-34.07-64.26H349c2.75,23-3.59,41.26-22.82,56.54,0,.44,0,.84,0,1.29-.92,12.7-4.77,25.38,9.43,31.71,15.84,7.07,34.32,5.82,51,1.05A130,130,0,0,0,435.12,353.3Z" transform="translate(-236.28 -95.02)"/><path class="cls-6" d="M374.64,341.71A89.36,89.36,0,0,0,412.19,334C402.15,321.2,399,306.5,401.05,289H349c2.09,17.49-1.09,32.22-11.16,45A87.84,87.84,0,0,0,374.64,341.71Z" transform="translate(-236.28 -95.02)"/><path class="cls-5" d="M307.67,227.52c8.73,16.59,5.07,35.62-8.18,42.5s-31.06-1-39.79-17.58-5.08-35.62,8.17-42.5S298.93,210.93,307.67,227.52Z" transform="translate(-236.28 -95.02)"/><path class="cls-7" d="M300,259.2c-.05-.68-.18-1.26-.25-1.91.1.47.16.86.2,1.18a24.22,24.22,0,0,0-1.45-8.31c-6.89-28.09-33.33-30.92-33.33-30.92,13.39,8,21.75,16.89,26.93,24.23-9.5-3.84-24.2,4.3-24.2,4.3,17.44-4.59,25.37-.79,29,3.62A37.83,37.83,0,0,1,300,259.2Z" transform="translate(-236.28 -95.02)"/><path class="cls-2" d="M293.57,251.41c.42-2.63-20.47-18.57-4.89-68.74l16.83-4Z" transform="translate(-236.28 -95.02)"/><path class="cls-5" d="M441.62,227.52c-8.73,16.59-5.07,35.62,8.18,42.5s31.06-1,39.79-17.58,5.08-35.62-8.17-42.5S450.35,210.93,441.62,227.52Z" transform="translate(-236.28 -95.02)"/><path class="cls-7" d="M449.29,259.2c0-.68.18-1.26.25-1.91-.1.47-.16.86-.2,1.18a24.48,24.48,0,0,1,1.44-8.31c6.9-28.09,33.34-30.92,33.34-30.92-13.39,8-21.75,16.89-26.93,24.23,9.5-3.84,24.2,4.3,24.2,4.3-17.44-4.59-25.37-.79-29,3.62A37.83,37.83,0,0,0,449.29,259.2Z" transform="translate(-236.28 -95.02)"/><path class="cls-2" d="M452.27,241.16V140.62S482.57,190.3,452.27,241.16Z" transform="translate(-236.28 -95.02)"/><path class="cls-8" d="M350.25,133.13a55.79,55.79,0,0,0-56,55l-.56,53c0,48.47,30.44,87.77,80.92,87.77,51.66,0,80.92-39.3,80.92-87.77l-.15-56.23a52.1,52.1,0,0,0-52.27-51.8Z" transform="translate(-236.28 -95.02)"/><path class="cls-9" d="M350.25,133.13a55.79,55.79,0,0,0-56,55l-.56,53c0,48.47,30.44,87.77,80.92,87.77,51.66,0,80.92-39.3,80.92-87.77l-.15-56.23a52.1,52.1,0,0,0-52.27-51.8Z" transform="translate(-236.28 -95.02)"/><path class="cls-10" d="M374.64,314.05c-31.67,0-56.38-12-72.2-30.81,12.42,27.22,37.6,45.69,72.2,45.69,35.17,0,59.94-18.22,72.19-45.14C431.2,302.32,406.73,314.05,374.64,314.05Z" transform="translate(-236.28 -95.02)"/><path class="cls-11" d="M416.3,218c0,6.31-2.16,11.42-4.81,11.42s-4.8-5.11-4.8-11.42,2.15-11.42,4.8-11.42S416.3,211.71,416.3,218Z" transform="translate(-236.28 -95.02)"/><ellipse class="cls-11" cx="101.51" cy="122.99" rx="4.8" ry="11.42"/><path class="cls-7" d="M326.29,256.79a2.21,2.21,0,0,1-.93-.21,2.1,2.1,0,0,1-1-2.82L331.08,240a2.14,2.14,0,0,1,2.84-1,2.12,2.12,0,0,1,1,2.83L328.2,255.6A2.13,2.13,0,0,1,326.29,256.79Z" transform="translate(-236.28 -95.02)"/><path class="cls-7" d="M312.87,256.79a2.2,2.2,0,0,1-.92-.21,2.1,2.1,0,0,1-1-2.82L317.67,240a2.14,2.14,0,0,1,2.84-1,2.12,2.12,0,0,1,1,2.83l-6.71,13.79A2.12,2.12,0,0,1,312.87,256.79Z" transform="translate(-236.28 -95.02)"/><path class="cls-7" d="M421.73,256.79a2.14,2.14,0,0,1-1.92-1.19l-6.7-13.79a2.11,2.11,0,0,1,1-2.83,2.14,2.14,0,0,1,2.84,1l6.7,13.79a2.1,2.1,0,0,1-1,2.82A2.17,2.17,0,0,1,421.73,256.79Z" transform="translate(-236.28 -95.02)"/><path class="cls-7" d="M435.14,256.79a2.14,2.14,0,0,1-1.92-1.19l-6.7-13.79a2.11,2.11,0,0,1,1-2.83,2.14,2.14,0,0,1,2.84,1l6.7,13.79a2.1,2.1,0,0,1-1,2.82A2.17,2.17,0,0,1,435.14,256.79Z" transform="translate(-236.28 -95.02)"/><path class="cls-7" d="M383.91,240.87a39.58,39.58,0,0,0,.26-4.57c0-9.63-3.14-21.66-9.53-21.66s-9.53,12-9.53,21.66a39.55,39.55,0,0,0,.3,4.84c-11,3.14-9,11.62-9,11.62s18.55,9.41,37.1,0C393.5,252.76,396.14,243.76,383.91,240.87Z" transform="translate(-236.28 -95.02)"/><path class="cls-7" d="M374.59,276.94c-16.16,0-25.61-5.5-26.19-5.85a2.66,2.66,0,0,1-.91-3.67,2.71,2.71,0,0,1,3.69-.92h0c.19.12,19.82,11.36,51-.21a2.71,2.71,0,0,1,3.47,1.57,2.68,2.68,0,0,1-1.59,3.45A84.39,84.39,0,0,1,374.59,276.94Z" transform="translate(-236.28 -95.02)"/><path class="cls-12" d="M360.27,282.26s23.68,6.19,36.86-4.33c0,0-2.26,11.11-15.88,12.6C375.85,291.12,368.6,289,360.27,282.26Z" transform="translate(-236.28 -95.02)"/><path class="cls-13" d="M309.81,198.31c-.48-.53,30-8.16,45.46-2.5.11.31,4.26-13.95-18.88-13.32C313.61,184.17,309.91,198.6,309.81,198.31Z" transform="translate(-236.28 -95.02)"/><path class="cls-13" d="M437.34,196.89c.44-.56-30.47-6.39-45.53.15-.09.33-5.08-13.67,18.06-14.39C432.71,183,437.25,197.18,437.34,196.89Z" transform="translate(-236.28 -95.02)"/><ellipse class="cls-14" cx="92.75" cy="129.1" rx="32.64" ry="32.42"/><path class="cls-15" d="M359.14,211.6l-50,38.18a32.64,32.64,0,0,0,52.54-25.66A32.07,32.07,0,0,0,359.14,211.6Z" transform="translate(-236.28 -95.02)"/><path class="cls-15" d="M331.25,191.81l-32.93,21.42a32,32,0,0,0-1.93,10.89,34,34,0,0,0,.24,3.8l45.52-33.47A32.7,32.7,0,0,0,331.25,191.81Z" transform="translate(-236.28 -95.02)"/><path class="cls-13" d="M329,191.7a32.43,32.43,0,1,1-32.64,32.42A32.53,32.53,0,0,1,329,191.7m0-2.8a35.23,35.23,0,1,0,35.45,35.22A35.38,35.38,0,0,0,329,188.9Z" transform="translate(-236.28 -95.02)"/><path class="cls-14" d="M453.61,224.12A32.64,32.64,0,1,1,421,191.7,32.53,32.53,0,0,1,453.61,224.12Z" transform="translate(-236.28 -95.02)"/><path class="cls-15" d="M439.3,197.3l-44.43,46.23a32.61,32.61,0,0,0,15.27,11.15l41.56-41.39A32.49,32.49,0,0,0,439.3,197.3Z" transform="translate(-236.28 -95.02)"/><path class="cls-13" d="M421,191.7a32.43,32.43,0,1,1-32.64,32.42A32.53,32.53,0,0,1,421,191.7m0-2.8a35.23,35.23,0,1,0,35.46,35.22A35.37,35.37,0,0,0,421,188.9Z" transform="translate(-236.28 -95.02)"/><path class="cls-13" d="M362.61,218l-2.34-2.56a25,25,0,0,1,28.44-2.11l-1.7,3C373.18,208.69,362.72,217.93,362.61,218Z" transform="translate(-236.28 -95.02)"/><path class="cls-13" d="M305.51,201.68a6.72,6.72,0,0,0-1.35-.14h-8.89a6.55,6.55,0,1,0,0,13.1h2.55A32.25,32.25,0,0,1,305.51,201.68Z" transform="translate(-236.28 -95.02)"/><path class="cls-13" d="M446.31,201.68a6.57,6.57,0,0,1,1.35-.14h8.89a6.55,6.55,0,1,1,0,13.1H454A32.37,32.37,0,0,0,446.31,201.68Z" transform="translate(-236.28 -95.02)"/><path class="cls-2" d="M324.92,130.46l7.53,4.23A64.72,64.72,0,0,0,364.14,143h22.11a64.54,64.54,0,0,0,45.49-18.72h0Z" transform="translate(-236.28 -95.02)"/></g></g></svg>