<svg xmlns="http://www.w3.org/2000/svg" xmlns:xlink="http://www.w3.org/1999/xlink" viewBox="0 0 279.32 333.4"><defs><style>.cls-1{isolation:isolate;}.cls-2{fill:#381706;}.cls-3{fill:#6a2b0c;}.cls-4{fill:#222961;}.cls-5{fill:#da9039;}.cls-6{fill:#d1f9f6;}.cls-7{fill:#fd9877;}.cls-8{fill:#fd8259;}.cls-10,.cls-11,.cls-14,.cls-9{opacity:0.45;}.cls-9{fill:url(#Degradado_sin_nombre_30);}.cls-10{fill:url(#Degradado_sin_nombre_12);}.cls-11{fill:url(#Degradado_sin_nombre_12-2);}.cls-12{fill:#fd6933;}.cls-13{fill:#ebbb81;}.cls-14{fill:url(#Degradado_sin_nombre_30-2);}.cls-15{fill:#ebc9a0;}.cls-16{fill:#381605;}.cls-17{fill:#25120b;}.cls-18{fill:#fd7949;}.cls-19{fill:#949ceb;opacity:0.77;mix-blend-mode:hue;}.cls-20{fill:#fff;opacity:0.4;}.cls-21{fill:#230f08;}</style><linearGradient id="Degradado_sin_nombre_30" x1="371.34" y1="293.01" x2="376.17" y2="379.88" gradientUnits="userSpaceOnUse"><stop offset="0" stop-color="#f00e47"/><stop offset="0.21" stop-color="#f00e47" stop-opacity="0.79"/><stop offset="0.37" stop-color="#f00e47" stop-opacity="0.5"/><stop offset="0.89" stop-color="#f00e47" stop-opacity="0"/></linearGradient><linearGradient id="Degradado_sin_nombre_12" x1="289.92" y1="406.97" x2="308.97" y2="339.43" gradientUnits="userSpaceOnUse"><stop offset="0" stop-color="#ff9500"/><stop offset="0.21" stop-color="#ff9500" stop-opacity="0.79"/><stop offset="0.89" stop-color="#ff9500" stop-opacity="0"/></linearGradient><linearGradient id="Degradado_sin_nombre_12-2" x1="452.5" y1="398.01" x2="435.38" y2="325.86" xlink:href="#Degradado_sin_nombre_12"/><linearGradient id="Degradado_sin_nombre_30-2" x1="372.46" y1="118.89" x2="373.26" y2="331.23" xlink:href="#Degradado_sin_nombre_30"/></defs><g class="cls-1"><g id="OBJECTS"><path class="cls-2" d="M512.94,416.7,509.07,392a54,54,0,0,0-16.74-31.38l-15.05-13.91a34.31,34.31,0,0,1-10.1-16.9l0-.1c-1.34-5.42-2.41-11.24-.47-16.47,2.2-5.92,7.76-9.83,11.53-14.9,6.65-8.95,7.36-20.84,7.8-32a24.69,24.69,0,0,0-.44-7.39c-.92-3.48-3.3-6.37-5.8-9a74.47,74.47,0,0,0-9.19-8,31.06,31.06,0,0,0,3.41-7.41c23.71-26.45,22.65-63.2-.06-103.4-14.13-25-37.88-29-51.47-24.78C413.25,85.76,390.23,79,336.82,86c0,0-55.47,7.31-65.05,64.7-4.25,25.51-8.55,59.14,6.87,98.13a26.22,26.22,0,0,0-8.38,6.72c-5.31,4.08-7.87,12-6.89,18.93,1.28,9,6.72,16.77,11.44,24.54s9,16.61,7.58,25.59c-1.54,9.68-9.22,17-14.63,25.17a59,59,0,0,0-9.44,37.81c.2,2,.6,4.23,2.18,5.52a8.31,8.31,0,0,0,4.06,1.38C322.72,403.13,512.94,416.7,512.94,416.7Z" transform="translate(-235.34 -83.3)"/><path class="cls-3" d="M334.65,100.33c55.79-7,79.84-.19,89.47,20.5,14.2-4.26,39-.22,53.76,24.79a156,156,0,0,1,10.93,22.17c-2.77-11.7-7.76-23.95-14.87-36.55-14.13-25-37.88-29-51.47-24.78C413.25,85.76,390.23,79,336.82,86c0,0-51.62,6.82-63.86,58.84C291,105.86,334.65,100.33,334.65,100.33Z" transform="translate(-235.34 -83.3)"/><path class="cls-4" d="M460.56,376.56c-47.7-19.19-63.41-43-59.33-77.36H348.77c4.08,34.32-11.63,58.17-59.33,77.36s-54.1,40.14-54.1,40.14H514.66S508.26,395.76,460.56,376.56Z" transform="translate(-235.34 -83.3)"/><path class="cls-5" d="M375,405.51c27.78,0,52.32-16.37,67.45-37.28-33.57-17.73-44.73-39.5-41.22-69H348.77c3.51,29.53-7.65,51.3-41.22,69C322.68,389.14,347.22,405.51,375,405.51Z" transform="translate(-235.34 -83.3)"/><path class="cls-6" d="M375,396.92a74.22,74.22,0,0,0,61.19-32.19c-28.7-17.09-38.24-37.92-35-65.53H348.77c3.28,27.61-6.26,48.44-35,65.53A74.21,74.21,0,0,0,375,396.92Z" transform="translate(-235.34 -83.3)"/><path class="cls-7" d="M322.67,358.9a61.75,61.75,0,0,0,104.66,0c-21.8-16-29-35.16-26.1-59.7H348.77C351.69,323.74,344.47,342.93,322.67,358.9Z" transform="translate(-235.34 -83.3)"/><path class="cls-8" d="M401.23,299.2H348.77c2.25,18.92-1.56,34.66-13.4,48.19a89.66,89.66,0,0,0,37.56,8.51A91,91,0,0,0,413.44,346C402.52,332.81,399.06,317.49,401.23,299.2Z" transform="translate(-235.34 -83.3)"/><path class="cls-9" d="M322.67,358.9a61.75,61.75,0,0,0,104.66,0c-21.8-16-29-35.16-26.1-59.7H348.77C351.69,323.74,344.47,342.93,322.67,358.9Z" transform="translate(-235.34 -83.3)"/><path class="cls-2" d="M340.66,304.63s.91,36.13-18.44,56.24-40.42,20.32-35.32,46.31c0,0-31-11.56,0-68.83Z" transform="translate(-235.34 -83.3)"/><path class="cls-10" d="M340.66,304.63s.91,36.13-18.44,56.24-40.42,20.32-35.32,46.31c0,0-31-11.56,0-68.83Z" transform="translate(-235.34 -83.3)"/><path class="cls-2" d="M405.2,299.24s-.91,36.14,18.44,56.25,40.42,20.32,35.32,46.3c0,0,31-11.55,0-68.82Z" transform="translate(-235.34 -83.3)"/><path class="cls-11" d="M405.2,299.24s-.91,36.14,18.44,56.25,40.42,20.32,35.32,46.3c0,0,31-11.55,0-68.82Z" transform="translate(-235.34 -83.3)"/><path class="cls-7" d="M305.49,236.85c8.79,16.82,5.11,36.1-8.23,43.07s-31.27-1-40.06-17.82S252.09,226,265.43,219,296.7,220,305.49,236.85Z" transform="translate(-235.34 -83.3)"/><path class="cls-12" d="M297.78,269c0-.69-.18-1.28-.26-1.94a11.3,11.3,0,0,1,.2,1.19,24.66,24.66,0,0,0-1.45-8.42c-6.95-28.47-33.56-31.33-33.56-31.33,13.48,8.14,21.9,17.11,27.11,24.55-9.57-3.89-24.36,4.36-24.36,4.36,17.55-4.65,25.53-.8,29.2,3.67A38.79,38.79,0,0,1,297.78,269Z" transform="translate(-235.34 -83.3)"/><path class="cls-7" d="M440.36,236.85c-8.79,16.82-5.11,36.1,8.23,43.07s31.27-1,40.06-17.82,5.11-36.1-8.22-43.07S449.15,220,440.36,236.85Z" transform="translate(-235.34 -83.3)"/><path class="cls-12" d="M448.07,269c.06-.69.19-1.28.26-1.94-.1.48-.16.87-.2,1.19a24.66,24.66,0,0,1,1.45-8.42c6.95-28.47,33.56-31.33,33.56-31.33C469.66,236.6,461.24,245.57,456,253c9.57-3.89,24.36,4.36,24.36,4.36-17.55-4.65-25.53-.8-29.2,3.67A39.56,39.56,0,0,0,448.07,269Z" transform="translate(-235.34 -83.3)"/><path class="cls-13" d="M348.36,141.19A56.34,56.34,0,0,0,292,197l-.56,53.72c0,19.86,1.88,38.19,12.51,53,15.66,21.82,42.15,35.95,69,35.95,25.19,0,50.41-12.48,66.18-32.1,12.39-15.41,15.29-35.23,15.29-56.85l-.16-57a52.63,52.63,0,0,0-52.63-52.49Z" transform="translate(-235.34 -83.3)"/><path class="cls-14" d="M348.36,141.19A56.34,56.34,0,0,0,292,197l-.56,53.72c0,19.86,1.88,38.19,12.51,53,15.66,21.82,42.15,35.95,69,35.95,25.19,0,50.41-12.48,66.18-32.1,12.39-15.41,15.29-35.23,15.29-56.85l-.16-57a52.63,52.63,0,0,0-52.63-52.49Z" transform="translate(-235.34 -83.3)"/><path class="cls-15" d="M439.11,296.7c-15.77,19.61-41,32.1-66.18,32.1-26.81,0-53.3-14.14-69-36-9.68-13.48-12.1-29.88-12.46-47.7l-.05,5.53c0,19.86,1.88,38.19,12.51,53,15.66,21.82,42.15,35.95,69,35.95,25.19,0,50.41-12.48,66.18-32.1,12.39-15.41,15.29-35.23,15.29-56.85l0-8.32C454.15,263,451,281.88,439.11,296.7Z" transform="translate(-235.34 -83.3)"/><path class="cls-16" d="M417.1,187.32c-3.72-.27-12.86-.45-18.19-.23a3.72,3.72,0,0,0-3.55,3.57l-.3,6.73a2.89,2.89,0,0,0,2.87,3c19.88,0,51.34,7.26,50.86,7.75C448.65,208.53,444.88,190.57,417.1,187.32Z" transform="translate(-235.34 -83.3)"/><path class="cls-16" d="M329.78,187.32c3.72-.27,12.87-.45,18.19-.23a3.71,3.71,0,0,1,3.55,3.57l.3,6.73a2.89,2.89,0,0,1-2.87,3c-19.88,0-51.34,7.26-50.86,7.75C298.23,208.53,302,190.57,329.78,187.32Z" transform="translate(-235.34 -83.3)"/><path class="cls-17" d="M414.86,227.21c0,6.4-2.17,11.58-4.84,11.58s-4.83-5.18-4.83-11.58,2.16-11.57,4.83-11.57S414.86,220.82,414.86,227.21Z" transform="translate(-235.34 -83.3)"/><ellipse class="cls-17" cx="100.48" cy="143.91" rx="4.83" ry="11.57"/><path class="cls-12" d="M381.58,251.13c-.28-7.54-4-16.49-8.65-16.49s-8.46,9.14-8.66,16.74c-10.76,3-8.81,11.26-8.81,11.26s17.78,9.07,35.56,0C391,262.64,393.53,253.88,381.58,251.13Z" transform="translate(-235.34 -83.3)"/><path class="cls-12" d="M346.9,278.69c4.8.71,9.42,1.2,14,1.44a83.74,83.74,0,0,0,13.56-.46c2.25-.17,4.43-.71,6.65-1.05,2.17-.57,4.39-1,6.52-1.81,4.39-1.28,8.47-3.38,12.95-5.35a34.36,34.36,0,0,1-11.3,9.25c-2.13,1.33-4.55,2-6.87,2.88a47,47,0,0,1-7.32,1.47,45.11,45.11,0,0,1-14.76-.74A37.49,37.49,0,0,1,346.9,278.69Z" transform="translate(-235.34 -83.3)"/><path class="cls-7" d="M365.4,288.54s23.07,3.94,31.77-8c0,0-1,13.48-12.77,15.53S365.4,288.54,365.4,288.54Z" transform="translate(-235.34 -83.3)"/><path class="cls-18" d="M324.24,266.52a2.08,2.08,0,0,1-.93-.22,2.14,2.14,0,0,1-1-2.86l6.75-14a2.14,2.14,0,0,1,3.86,1.86l-6.75,14A2.16,2.16,0,0,1,324.24,266.52Z" transform="translate(-235.34 -83.3)"/><path class="cls-18" d="M310.74,266.52a2.08,2.08,0,0,1-.93-.22,2.14,2.14,0,0,1-1-2.86l6.75-14a2.14,2.14,0,0,1,3.86,1.86l-6.75,14A2.16,2.16,0,0,1,310.74,266.52Z" transform="translate(-235.34 -83.3)"/><path class="cls-18" d="M420.33,266.52a2.15,2.15,0,0,1-1.93-1.21l-6.75-14a2.14,2.14,0,1,1,3.85-1.86l6.76,14a2.15,2.15,0,0,1-1,2.86A2.08,2.08,0,0,1,420.33,266.52Z" transform="translate(-235.34 -83.3)"/><path class="cls-18" d="M433.83,266.52a2.15,2.15,0,0,1-1.93-1.21l-6.75-14a2.14,2.14,0,1,1,3.85-1.86l6.76,14a2.14,2.14,0,0,1-1,2.86A2.08,2.08,0,0,1,433.83,266.52Z" transform="translate(-235.34 -83.3)"/><circle class="cls-19" cx="92.18" cy="152.47" r="32.86"/><path class="cls-20" d="M357.84,223.08l-50.35,38.69a32.84,32.84,0,0,0,50.35-38.69Z" transform="translate(-235.34 -83.3)"/><path class="cls-20" d="M329.77,203l-33.16,21.7a32,32,0,0,0-1.7,14.89l45.83-33.92A32.71,32.71,0,0,0,329.77,203Z" transform="translate(-235.34 -83.3)"/><path class="cls-21" d="M327.53,202.91a32.86,32.86,0,1,1-32.86,32.86,32.86,32.86,0,0,1,32.86-32.86m0-2.84a35.7,35.7,0,1,0,35.69,35.7,35.74,35.74,0,0,0-35.69-35.7Z" transform="translate(-235.34 -83.3)"/><circle class="cls-19" cx="184.75" cy="152.47" r="32.86"/><path class="cls-20" d="M438.55,208.58l-44.74,46.86a32.91,32.91,0,0,0,15.37,11.3l41.85-42A32.94,32.94,0,0,0,438.55,208.58Z" transform="translate(-235.34 -83.3)"/><path class="cls-21" d="M420.09,202.91a32.86,32.86,0,1,1-32.86,32.86,32.86,32.86,0,0,1,32.86-32.86m0-2.84a35.7,35.7,0,1,0,35.7,35.7,35.74,35.74,0,0,0-35.7-35.7Z" transform="translate(-235.34 -83.3)"/><path class="cls-21" d="M361.34,229.58,359,227a25.07,25.07,0,0,1,28.63-2.14l-1.71,3.05C372,220.13,361.44,229.49,361.34,229.58Z" transform="translate(-235.34 -83.3)"/><path class="cls-21" d="M303.85,213a6.82,6.82,0,0,0-1.36-.14h-8.95a6.64,6.64,0,1,0,0,13.27h2.56A32.82,32.82,0,0,1,303.85,213Z" transform="translate(-235.34 -83.3)"/><path class="cls-21" d="M445.6,213a6.75,6.75,0,0,1,1.36-.14h9a6.64,6.64,0,1,1,0,13.27h-2.57A32.69,32.69,0,0,0,445.6,213Z" transform="translate(-235.34 -83.3)"/></g></g></svg>