<svg xmlns="http://www.w3.org/2000/svg" xmlns:xlink="http://www.w3.org/1999/xlink" viewBox="0 0 279.5 342.48"><defs><style>.cls-1{isolation:isolate;}.cls-2{fill:#29080f;}.cls-3{fill:#8641ba;}.cls-4{fill:#bf5e2a;}.cls-5{fill:#ab4f1d;}.cls-15,.cls-6,.cls-9{opacity:0.45;}.cls-6{fill:url(#Degradado_sin_nombre_5);}.cls-7{fill:#b03d02;}.cls-10,.cls-8{fill:#e2773f;}.cls-9{fill:url(#Degradado_sin_nombre_30);}.cls-10{opacity:0.31;mix-blend-mode:multiply;}.cls-11{fill:#e28e56;}.cls-12{fill:#1f110b;}.cls-13{fill:#a33902;}.cls-14{fill:#b302c7;}.cls-15{fill:url(#Degradado_sin_nombre_5-2);}</style><linearGradient id="Degradado_sin_nombre_5" x1="475.33" y1="427.91" x2="445.55" y2="326.5" gradientUnits="userSpaceOnUse"><stop offset="0" stop-color="#fff200"/><stop offset="0.21" stop-color="#fff200" stop-opacity="0.79"/><stop offset="0.89" stop-color="#fff200" stop-opacity="0"/></linearGradient><linearGradient id="Degradado_sin_nombre_30" x1="378.33" y1="151.26" x2="374.31" y2="240.6" gradientUnits="userSpaceOnUse"><stop offset="0" stop-color="#f00e47"/><stop offset="0.21" stop-color="#f00e47" stop-opacity="0.79"/><stop offset="0.37" stop-color="#f00e47" stop-opacity="0.5"/><stop offset="0.89" stop-color="#f00e47" stop-opacity="0"/></linearGradient><linearGradient id="Degradado_sin_nombre_5-2" x1="269.37" y1="443.82" x2="297.54" y2="331.94" xlink:href="#Degradado_sin_nombre_5"/></defs><g class="cls-1"><g id="OBJECTS"><path class="cls-2" d="M485.78,136.38c-12.85-12-30.6-14.82-48.65-15.09-.11-1-54.47-93.1-165.47-3.08C254,132.56,244.3,144.33,239.58,154h0s-12.41,20.92,5.3,41a42.82,42.82,0,0,1,9.54,17.72c1,8.49.58,15.26-1.53,21.37-.32.32-5.2,5.32-9.63,15.05l-.4.45.18.07c-4.32,9.7-8.08,23.89-6.45,42.69,1.34,15.49,7.06,30.22,15.56,43.24,9.68,14.84,29.83,43,12.12,70.74l191.82-.05s36-27.31,42.16-97.23c2.08-23.7.73-52.31-6.62-86.4,1.22-2.29,2.3-4.66,3.32-7.07C506.39,188.57,505.14,154.39,485.78,136.38Z" transform="translate(-235.25 -78.76)"/><path class="cls-3" d="M460.62,381.07c-47.73-19.2-63.45-43.07-59.38-77.41H348.76c4.07,34.34-11.65,58.21-59.38,77.41s-54.13,40.17-54.13,40.17h279.5S508.35,400.28,460.62,381.07Z" transform="translate(-235.25 -78.76)"/><path class="cls-4" d="M328.27,358.92a59.35,59.35,0,0,0,93.46,0c-17.41-15.06-23.13-32.95-20.49-55.26H348.76C351.4,326,345.68,343.86,328.27,358.92Z" transform="translate(-235.25 -78.76)"/><path class="cls-5" d="M374.55,360.4c13.35,0,26-5.63,37.29-12-9.62-12.76-12.65-27.42-10.6-44.77H348.76c2.07,17.48-1,32.23-10.82,45C350.13,355.07,365.74,360.4,374.55,360.4Z" transform="translate(-235.25 -78.76)"/><path class="cls-2" d="M489.4,320c-.12.24-.23.49-.36.72-3,5.6-6.9,12.74-10.44,20.94-5.13,11.91-3.18,26.79,4.82,36a61.12,61.12,0,0,0,7.93,7.66,68.38,68.38,0,0,1-18.48,11.21,51.29,51.29,0,0,1-16.52,3.5,25,25,0,0,1-16.25-5.34c-10.41-7.88-29.41-26.15-37.38-58.71l32.72-16Z" transform="translate(-235.25 -78.76)"/><path class="cls-6" d="M489.4,320c-.12.24-.23.49-.36.72-3,5.6-6.9,12.74-10.44,20.94-5.13,11.91-3.18,26.79,4.82,36a61.12,61.12,0,0,0,7.93,7.66,68.38,68.38,0,0,1-18.48,11.21,51.29,51.29,0,0,1-16.52,3.5,25,25,0,0,1-16.25-5.34c-10.41-7.88-29.41-26.15-37.38-58.71l32.72-16Z" transform="translate(-235.25 -78.76)"/><path class="cls-4" d="M307.08,241.27c8.79,16.83,5.11,36.12-8.24,43.1s-31.3-1-40.09-17.83-5.11-36.13,8.23-43.11S298.28,224.44,307.08,241.27Z" transform="translate(-235.25 -78.76)"/><path class="cls-7" d="M299.36,273.4c-.06-.69-.19-1.28-.26-1.94.1.48.16.87.2,1.19a24.72,24.72,0,0,0-1.45-8.43c-7-28.48-33.59-31.35-33.59-31.35C277.75,241,286.18,250,291.4,257.44c-9.58-3.9-24.38,4.36-24.38,4.36,17.56-4.65,25.55-.8,29.22,3.68A39.56,39.56,0,0,1,299.36,273.4Z" transform="translate(-235.25 -78.76)"/><path class="cls-4" d="M442,241.27c-8.79,16.83-5.11,36.12,8.24,43.1s31.29-1,40.09-17.83,5.11-36.13-8.23-43.11S450.83,224.44,442,241.27Z" transform="translate(-235.25 -78.76)"/><path class="cls-7" d="M449.75,273.4c.06-.69.19-1.28.26-1.94a11.3,11.3,0,0,0-.2,1.19,24.72,24.72,0,0,1,1.45-8.43c6.95-28.48,33.59-31.35,33.59-31.35-13.5,8.15-21.92,17.13-27.14,24.57,9.58-3.9,24.38,4.36,24.38,4.36-17.56-4.65-25.55-.8-29.22,3.68A39.56,39.56,0,0,0,449.75,273.4Z" transform="translate(-235.25 -78.76)"/><path class="cls-8" d="M350,140.11c-30.91,0-56.06,30.32-56.38,61.23L293,255.1c0,33.37,16.82,62.45,41.7,77.69,11.78,7.21,30.17,14,39.82,14,13.94,0,27.07-6.54,38.54-13.27,25.59-15,43-44.52,43-78.46l-.15-57c-.08-29-23.64-58-52.67-58Z" transform="translate(-235.25 -78.76)"/><path class="cls-9" d="M350,140.11c-30.91,0-56.06,30.32-56.38,61.23L293,255.1c0,33.37,16.82,62.45,41.7,77.69,11.78,7.21,30.17,14,39.82,14,13.94,0,27.07-6.54,38.54-13.27,25.59-15,43-44.52,43-78.46l-.15-57c-.08-29-23.64-58-52.67-58Z" transform="translate(-235.25 -78.76)"/><path class="cls-10" d="M338.46,210.09c31.87-4.22,70.66-1.81,85.67-41,0,0,20.47,13,31.84,47l0-18c-.08-29-23.64-58-52.67-58H350c-30.91,0-56.06,30.32-56.38,61.23l-.36,34.6C301.55,226.82,317.39,212.89,338.46,210.09Z" transform="translate(-235.25 -78.76)"/><path class="cls-11" d="M415.07,321.44c-12.06,6.73-25.86,13.27-40.52,13.27-10.15,0-29.49-6.83-41.87-14a88.22,88.22,0,0,1-36.83-42.38c5.76,23.35,20,42.92,38.88,54.5,11.78,7.21,30.17,14,39.82,14,13.94,0,27.07-6.54,38.54-13.27,19.55-11.47,34.28-31.41,40.17-55.3A88.19,88.19,0,0,1,415.07,321.44Z" transform="translate(-235.25 -78.76)"/><path class="cls-12" d="M416.52,231.63c0,6.39-2.17,11.58-4.84,11.58s-4.84-5.19-4.84-11.58S409,220,411.68,220,416.52,225.23,416.52,231.63Z" transform="translate(-235.25 -78.76)"/><path d="M440,225.67c.63-.36-26.18-17.3-42.72-16.69-.21.27.32-14.78,22.28-6.9C440.81,210.85,439.79,225.92,440,225.67Z" transform="translate(-235.25 -78.76)"/><ellipse class="cls-12" cx="102.18" cy="152.86" rx="4.84" ry="11.58"/><path d="M312.2,219c-.62-.36,26.18-17.3,42.73-16.69.2.27-.33-14.78-22.29-6.9C311.37,204.13,312.39,219.2,312.2,219Z" transform="translate(-235.25 -78.76)"/><path class="cls-13" d="M325.83,271a2,2,0,0,1-.92-.21,2.13,2.13,0,0,1-1-2.86l6.75-14a2.14,2.14,0,0,1,3.86,1.87l-6.75,14A2.14,2.14,0,0,1,325.83,271Z" transform="translate(-235.25 -78.76)"/><path class="cls-13" d="M312.32,271a2,2,0,0,1-.92-.21,2.13,2.13,0,0,1-1-2.86l6.75-14a2.14,2.14,0,0,1,3.86,1.87l-6.75,14A2.14,2.14,0,0,1,312.32,271Z" transform="translate(-235.25 -78.76)"/><path class="cls-13" d="M422,271a2.13,2.13,0,0,1-1.93-1.21l-6.76-14a2.14,2.14,0,0,1,3.86-1.87l6.76,14a2.14,2.14,0,0,1-1,2.86A2.07,2.07,0,0,1,422,271Z" transform="translate(-235.25 -78.76)"/><path class="cls-13" d="M435.5,271a2.13,2.13,0,0,1-1.93-1.21l-6.76-14a2.14,2.14,0,0,1,3.86-1.87l6.76,14a2.14,2.14,0,0,1-1,2.86A2.07,2.07,0,0,1,435.5,271Z" transform="translate(-235.25 -78.76)"/><path class="cls-13" d="M357.08,267.07s17.79,9.08,35.58,0c0,0,3.63-12.4-17.79-12.34C354.14,254.79,357.08,267.07,357.08,267.07Z" transform="translate(-235.25 -78.76)"/><path class="cls-14" d="M348,286.9c9.75-.27,19.09,0,28.23-1a61,61,0,0,0,13.25-2.75,30,30,0,0,0,11.64-7.19c-1.53,4.69-5.39,8.69-9.89,11a38.51,38.51,0,0,1-14.42,4.29,59,59,0,0,1-14.74-.37A51.63,51.63,0,0,1,348,286.9Z" transform="translate(-235.25 -78.76)"/><path class="cls-4" d="M368.79,300.78s24.48,3,32.32-7.92C401.11,292.86,395,314.81,368.79,300.78Z" transform="translate(-235.25 -78.76)"/><path class="cls-2" d="M472.21,187.88l-16.13-54.51-169.46-3.48-9.72,80.68c11.58,7.93,16.79,10.34,16.79,10.34s4.51-27.33,69.31-28.1c42.53-.5,56.63-25.12,62.19-45,1.17,23.24,30.89,28.91,30.89,64.81,0,13.7,7.51,2.38,16.13-.25Z" transform="translate(-235.25 -78.76)"/><path class="cls-2" d="M251.78,335.05l.36.58c3,4.55,6.91,10.35,10.44,17a24.47,24.47,0,0,1-4.82,29.25,57.15,57.15,0,0,1-7.93,6.22,72.09,72.09,0,0,0,18.48,9.11,61.9,61.9,0,0,0,16.53,2.85,29.12,29.12,0,0,0,16.25-4.34c10.41-6.41,29.4-21.25,37.37-47.71l-32.72-13Z" transform="translate(-235.25 -78.76)"/><path class="cls-15" d="M251.78,335.05l.36.58c3,4.55,6.91,10.35,10.44,17a24.47,24.47,0,0,1-4.82,29.25,57.15,57.15,0,0,1-7.93,6.22,72.09,72.09,0,0,0,18.48,9.11,61.9,61.9,0,0,0,16.53,2.85,29.12,29.12,0,0,0,16.25-4.34c10.41-6.41,29.4-21.25,37.37-47.71l-32.72-13Z" transform="translate(-235.25 -78.76)"/></g></g></svg>