<svg xmlns="http://www.w3.org/2000/svg" xmlns:xlink="http://www.w3.org/1999/xlink" viewBox="0 0 279.57 316.19"><defs><style>.cls-1{isolation:isolate;}.cls-2{fill:#230e0a;}.cls-3{fill:#e82a40;}.cls-4{fill:#e8e1e2;opacity:0.28;}.cls-5{fill:#ffa3a3;}.cls-11,.cls-6{fill:#ff7a7a;}.cls-7{fill:#ff8282;}.cls-8{fill:#ff4f4f;}.cls-9{fill:#fdbfa8;}.cls-10{opacity:0.45;fill:url(#Degradado_sin_nombre_2);}.cls-11{opacity:0.38;}.cls-12{fill:#ffdccf;}.cls-13{fill:#25110d;}.cls-14{fill:#a7b9eb;opacity:0.77;mix-blend-mode:hue;}.cls-15{fill:#fff;opacity:0.4;}</style><linearGradient id="Degradado_sin_nombre_2" x1="367.9" y1="158.16" x2="375.36" y2="246.98" gradientUnits="userSpaceOnUse"><stop offset="0" stop-color="#ff2441"/><stop offset="0.21" stop-color="#ff2441" stop-opacity="0.79"/><stop offset="0.89" stop-color="#ff2441" stop-opacity="0"/></linearGradient></defs><g class="cls-1"><g id="OBJECTS"><path class="cls-2" d="M511.55,314.66c-2.32-14.17-15.27-39.81-20.53-62.88a70.24,70.24,0,0,1-1.36-19.62,125.71,125.71,0,0,0-6.55-50c-9.55-26.87-28.73-62.22-66-79a62,62,0,0,0-17.87-5.43c-1.06-.41-2.13-.82-3.21-1.19a82,82,0,0,0-11.47-3.08,85.72,85.72,0,0,0-16.23-1.55h0a38.38,38.38,0,0,0-7.85.81C326.32,99.82,325.09,124,325.09,124c-25.59,2.34-42,23.42-52.2,44.91-9.68,20.43-14.26,42.86-14.5,65.47-.09,8-.59,17.38-2.13,24.74-4.86,23.26-13.66,41.17-16.42,55.54-12.69,66.16,4.75,93.44,4.75,93.44H503.81S522,378.58,511.55,314.66Z" transform="translate(-235.22 -91.9)"/><path d="M380.45,408.1h36.1c66.83-58.87,46.81-153.23,46.81-153.23l-89.16,1.5Z" transform="translate(-235.22 -91.9)"/><path class="cls-3" d="M453.61,370.85c-44.27-17.82-58.85-40-55.07-71.8H349.86c3.78,31.85-10.79,54-55.06,71.8s-50.21,37.25-50.21,37.25H503.81S497.87,388.66,453.61,370.85Z" transform="translate(-235.22 -91.9)"/><path class="cls-4" d="M380.08,384.64a100.48,100.48,0,0,0,60.12-19.78c-.85-.42-1.7-.85-2.52-1.28a98.66,98.66,0,0,1-120.11-3.81c-.76.46-1.53.91-2.32,1.35A101.19,101.19,0,0,0,380.08,384.64Z" transform="translate(-235.22 -91.9)"/><path class="cls-5" d="M325.42,354.62a82,82,0,0,0,103.43,3.95c-25-15.61-33.27-34.59-30.31-59.52H349.86C352.58,321.92,345.83,339.78,325.42,354.62Z" transform="translate(-235.22 -91.9)"/><path class="cls-6" d="M407.31,339.15c-8.1-11.49-10.6-24.65-8.77-40.1H349.86c1.94,16.34-1,30.12-10.25,42.08,5,4.24,9.13,9.09,16.08,11.09a65.63,65.63,0,0,0,36.44,0C398.77,350.27,402.27,343.65,407.31,339.15Z" transform="translate(-235.22 -91.9)"/><path class="cls-7" d="M311.29,241.19c8.16,15.6,4.74,33.5-7.64,40s-29-.93-37.18-16.54-4.74-33.5,7.64-40S303.13,225.58,311.29,241.19Z" transform="translate(-235.22 -91.9)"/><path class="cls-8" d="M304.13,271c-.05-.63-.17-1.18-.23-1.8.09.45.14.82.18,1.11a22.94,22.94,0,0,0-1.35-7.81c-6.45-26.42-31.15-29.08-31.15-29.08,12.52,7.55,20.33,15.89,25.17,22.79-8.88-3.62-22.61,4-22.61,4,16.29-4.31,23.7-.74,27.1,3.41A36.16,36.16,0,0,1,304.13,271Z" transform="translate(-235.22 -91.9)"/><path class="cls-7" d="M436.45,241.19c-8.16,15.6-4.74,33.5,7.64,40s29-.93,37.18-16.54,4.74-33.5-7.63-40S444.61,225.58,436.45,241.19Z" transform="translate(-235.22 -91.9)"/><path class="cls-8" d="M443.61,271c.05-.63.17-1.18.24-1.8-.1.45-.15.82-.19,1.11a23.18,23.18,0,0,1,1.35-7.81c6.45-26.42,31.15-29.08,31.15-29.08C463.64,241,455.83,249.29,451,256.19c8.89-3.62,22.61,4,22.61,4-16.28-4.31-23.69-.74-27.09,3.41A35.91,35.91,0,0,0,443.61,271Z" transform="translate(-235.22 -91.9)"/><path class="cls-9" d="M351.07,152.41a52.3,52.3,0,0,0-52.29,51.75L298.26,254c0,27.3,13.76,60.86,34.55,70.51,9,4.19,13.13,12.06,22.88,14.68a69.8,69.8,0,0,0,36.44,0c8.13-2.2,11.55-11,18.88-14.66,21.37-10.65,38.47-41.35,38.47-70.51l-.14-52.88a48.85,48.85,0,0,0-48.85-48.72Z" transform="translate(-235.22 -91.9)"/><path class="cls-10" d="M351.07,152.41a52.3,52.3,0,0,0-52.29,51.75L298.26,254c0,27.3,13.76,60.86,34.55,70.51,9,4.19,13.13,12.06,22.88,14.68a69.8,69.8,0,0,0,36.44,0c8.13-2.2,11.55-11,18.88-14.66,21.37-10.65,38.47-41.35,38.47-70.51l-.14-52.88a48.85,48.85,0,0,0-48.85-48.72Z" transform="translate(-235.22 -91.9)"/><path class="cls-11" d="M359.8,292.35s20.43,5,32.33-5.6c0,0-1.24,10-15,12.3S359.8,292.35,359.8,292.35Z" transform="translate(-235.22 -91.9)"/><path class="cls-12" d="M415.62,313.44c-8.24,3.65-12.08,12.46-21.22,14.66a88.27,88.27,0,0,1-41,0c-10.95-2.63-15.55-10.49-25.71-14.68-6.72-2.78-12.75-7.57-18-13.57,5.89,11.2,13.77,20.33,23.08,24.65,9,4.19,13.13,12.06,22.88,14.68a69.8,69.8,0,0,0,36.44,0c8.13-2.2,11.55-11,18.88-14.66,10.84-5.4,20.56-16,27.53-28.87C431.9,303.43,424.07,309.69,415.62,313.44Z" transform="translate(-235.22 -91.9)"/><path class="cls-13" d="M412.79,232.25c0,5.93-2,10.74-4.49,10.74s-4.49-4.81-4.49-10.74,2-10.74,4.49-10.74S412.79,226.31,412.79,232.25Z" transform="translate(-235.22 -91.9)"/><path class="cls-13" d="M429.43,220.49c.58-.34-24.28-16-39.63-15.48-.19.25.31-13.71,20.67-6.4C430.2,206.75,429.25,220.72,429.43,220.49Z" transform="translate(-235.22 -91.9)"/><ellipse class="cls-13" cx="104.23" cy="140.34" rx="4.49" ry="10.74"/><path class="cls-13" d="M316,220.49c-.58-.34,24.28-16,39.63-15.48.19.25-.31-13.71-20.67-6.4C315.27,206.75,316.22,220.72,316,220.49Z" transform="translate(-235.22 -91.9)"/><path class="cls-7" d="M328.69,268.72a1.87,1.87,0,0,1-.86-.2,2,2,0,0,1-.93-2.65l6.27-13a2,2,0,1,1,3.57,1.72l-6.26,13A2,2,0,0,1,328.69,268.72Z" transform="translate(-235.22 -91.9)"/><path class="cls-7" d="M316.16,268.72a1.87,1.87,0,0,1-.86-.2,2,2,0,0,1-.93-2.65l6.27-13a2,2,0,1,1,3.57,1.72l-6.26,13A2,2,0,0,1,316.16,268.72Z" transform="translate(-235.22 -91.9)"/><path class="cls-7" d="M417.86,268.72a2,2,0,0,1-1.79-1.12l-6.26-13a2,2,0,0,1,.92-2.65,2,2,0,0,1,2.66.93l6.26,13a2,2,0,0,1-.92,2.65A1.94,1.94,0,0,1,417.86,268.72Z" transform="translate(-235.22 -91.9)"/><path class="cls-7" d="M430.39,268.72a2,2,0,0,1-1.79-1.12l-6.26-13a2,2,0,0,1,.92-2.65,2,2,0,0,1,2.66.93l6.26,13a2,2,0,0,1-.92,2.65A1.94,1.94,0,0,1,430.39,268.72Z" transform="translate(-235.22 -91.9)"/><path class="cls-7" d="M353,264.06s21.17,10.8,42.34,0c0,0,4.32-14.76-21.17-14.69C349.49,249.44,353,264.06,353,264.06Z" transform="translate(-235.22 -91.9)"/><path class="cls-7" d="M349.57,283.5l11.72-.66c3.84-.22,7.63-.54,11.4-.93s7.54-.82,11.32-1.43,7.55-1.33,11.59-1.85A37.16,37.16,0,0,1,385,284.3a48.42,48.42,0,0,1-11.78,2.62,51.58,51.58,0,0,1-12-.16A36.75,36.75,0,0,1,349.57,283.5Z" transform="translate(-235.22 -91.9)"/><circle class="cls-14" cx="95.4" cy="153.6" r="30.5"/><path class="cls-15" d="M358.75,233.73,312,269.64a30.48,30.48,0,0,0,46.73-35.91Z" transform="translate(-235.22 -91.9)"/><path class="cls-15" d="M332.69,215.12l-30.77,20.14a30.46,30.46,0,0,0-1.8,10.25,30.14,30.14,0,0,0,.23,3.57l42.52-31.49A30.35,30.35,0,0,0,332.69,215.12Z" transform="translate(-235.22 -91.9)"/><path class="cls-2" d="M330.61,215a30.5,30.5,0,1,1-30.49,30.5A30.49,30.49,0,0,1,330.61,215m0-2.63a33.13,33.13,0,1,0,33.13,33.13,33.16,33.16,0,0,0-33.13-33.13Z" transform="translate(-235.22 -91.9)"/><path class="cls-14" d="M447,245.51a30.5,30.5,0,1,1-30.5-30.5A30.5,30.5,0,0,1,447,245.51Z" transform="translate(-235.22 -91.9)"/><path class="cls-15" d="M433.65,220.28l-41.52,43.48a30.48,30.48,0,0,0,14.27,10.48l38.83-38.93A30.49,30.49,0,0,0,433.65,220.28Z" transform="translate(-235.22 -91.9)"/><path class="cls-2" d="M416.52,215a30.5,30.5,0,1,1-30.5,30.5,30.5,30.5,0,0,1,30.5-30.5m0-2.63a33.13,33.13,0,1,0,33.13,33.13,33.16,33.16,0,0,0-33.13-33.13Z" transform="translate(-235.22 -91.9)"/><path class="cls-2" d="M362,239.76l-2.19-2.4a23.26,23.26,0,0,1,26.57-2l-1.58,2.84A19.94,19.94,0,0,0,362,239.76Z" transform="translate(-235.22 -91.9)"/><path class="cls-2" d="M308.64,224.4a5.86,5.86,0,0,0-1.26-.13h-8.31a6.16,6.16,0,1,0,0,12.31h2.38A30.47,30.47,0,0,1,308.64,224.4Z" transform="translate(-235.22 -91.9)"/><path class="cls-2" d="M440.19,224.4a5.86,5.86,0,0,1,1.26-.13h8.31a6.16,6.16,0,1,1,0,12.31h-2.38A30.36,30.36,0,0,0,440.19,224.4Z" transform="translate(-235.22 -91.9)"/><path class="cls-2" d="M340.25,177.74h0a24.69,24.69,0,0,0,20.66-23l.59-10.52-45.87-18.43c-20.26,6-33.87,24.38-42.74,43.09-9.68,20.43-14.26,42.86-14.5,65.47-.09,8-.59,17.38-2.13,24.74-4.86,23.26-13.66,41.17-16.42,55.54-1.17,6.08-2.07,11.83-2.77,17.27,4,41.58,7.52,76.17,7.52,76.17s14.6-23.2,37.61-31.66c15.8-5.8,23.19,7.19,39.3-10.62,36.64-40.5-15.91-65.16,0-166.92C322.69,191.28,332.64,179,340.25,177.74Z" transform="translate(-235.22 -91.9)"/></g></g></svg>