<svg id="OBJECTS" xmlns="http://www.w3.org/2000/svg" viewBox="0 0 289.5 320.42"><defs><style>.cls-1{fill:#e83f53;}.cls-2{fill:#bf2133;}.cls-3{fill:#ff7081;}.cls-4{fill:#ffdf57;}.cls-5{fill:#ffa3a3;}.cls-6,.cls-9{fill:#ff8282;}.cls-7{fill:#ff4f4f;}.cls-8{fill:#fdbfa8;}.cls-9{opacity:0.47;}.cls-10{fill:#fdd3c3;}.cls-11{fill:#2e230e;}.cls-12{fill:#a31727;}</style></defs><path class="cls-1" d="M232,245c2.43-14.45,5-29.35,13.18-41.7,7.31-11.08,19.3-21,18.6-34.14-.35-6.47-3.91-12.45-4.39-18.91-.77-10.31,7.09-20.24,17.28-23.5a29.62,29.62,0,0,1,23.55,1.93c0-.1.06-.22.1-.32,10.72-31.22,65.37-43,94.38-37.15,31.39,6.29,58.41,29.8,68.08,59.25,2.17,6.63,3.54,13.54,6.45,19.9,12.48,27.25,40.19,24.89,49,69.26,7.46,37.54-14.3,78.51-36.24,92.49-57.11,36.41-160.22,27-196.51,15.1C221.33,326.25,229.43,260.39,232,245Z" transform="translate(-230.25 -89.79)"/><path class="cls-2" d="M251.12,260.58s-3.7,45.14,23.09,82.16a94.32,94.32,0,0,0,11.3,4.48c33.14,10.83,122,19.63,180.67-6.65,12.78-20.29,18.72-47,13.62-80Z" transform="translate(-230.25 -89.79)"/><path class="cls-3" d="M389,104.36c47.27,7.28,75.86,53.08,75.86,53.08h0c-.66-2.33-1.32-4.67-2.07-7-9.67-29.45-36.69-53-68.08-59.25-29-5.81-83.66,5.93-94.38,37.15,0,.1-.07.22-.1.32S341.75,97.07,389,104.36Z" transform="translate(-230.25 -89.79)"/><path class="cls-3" d="M276.68,126.76c-8.75,2.8-15.78,10.54-17.09,19.21,16.81-13.67,36.49-17,40.13-17.52A29.58,29.58,0,0,0,276.68,126.76Z" transform="translate(-230.25 -89.79)"/><path class="cls-4" d="M285,373.44c45.37-17.59,60.31-39.44,56.43-70.88h49.89c-3.87,31.44,11.07,53.29,56.44,70.88s51.46,36.77,51.46,36.77H233.53S239.62,391,285,373.44Z" transform="translate(-230.25 -89.79)"/><path class="cls-5" d="M391.31,302.56H341.42c2.82,22.86-4.33,40.65-25.88,55.42a75.36,75.36,0,0,0,105,2.19C396.39,345,388.36,326.57,391.31,302.56Z" transform="translate(-230.25 -89.79)"/><path class="cls-6" d="M372.5,302.56H341.42c1.83,14.85-.58,27.55-8.37,38.68,11,5.42,22.54,8.28,33.09,7.71a124.89,124.89,0,0,0,34.54-6.34c-8.58-11.45-11.27-24.59-9.37-40.05Z" transform="translate(-230.25 -89.79)"/><path class="cls-6" d="M301.48,245.81c8.34,15.37,4.85,33-7.81,39.37s-29.67-.93-38-16.29-4.85-33,7.81-39.37S293.14,230.44,301.48,245.81Z" transform="translate(-230.25 -89.79)"/><path class="cls-7" d="M294.16,275.15c-.05-.62-.17-1.16-.24-1.77.1.44.15.8.19,1.09a21.68,21.68,0,0,0-1.38-7.69c-6.59-26-31.84-28.64-31.84-28.64,12.79,7.44,20.78,15.64,25.72,22.44-9.08-3.56-23.11,4-23.11,4,16.65-4.26,24.23-.74,27.7,3.35A34.3,34.3,0,0,1,294.16,275.15Z" transform="translate(-230.25 -89.79)"/><path class="cls-6" d="M429.44,245.81c-8.34,15.37-4.84,33,7.81,39.37s29.67-.93,38-16.29,4.84-33-7.81-39.37S437.78,230.44,429.44,245.81Z" transform="translate(-230.25 -89.79)"/><path class="cls-7" d="M436.76,275.15c.05-.62.17-1.16.24-1.77-.09.44-.15.8-.18,1.09a21.93,21.93,0,0,1,1.37-7.69c6.59-26,31.85-28.64,31.85-28.64-12.8,7.44-20.78,15.64-25.73,22.44,9.08-3.56,23.11,4,23.11,4-16.65-4.26-24.22-.74-27.7,3.35A35,35,0,0,0,436.76,275.15Z" transform="translate(-230.25 -89.79)"/><path class="cls-8" d="M366.14,336.26c55.67-3,78.57-33.88,78.57-75.68V213.69c0-31.06-26.15-56.25-58.4-56.25H346c-32.25,0-40,17.53-45.76,61.62-1.41,10.73-12.8,24.22-12.63,41.52C288,302.37,332.31,338.08,366.14,336.26Z" transform="translate(-230.25 -89.79)"/><path class="cls-9" d="M364.39,291.25s18.06,1.57,26.48-8.84c0,0,.6,9.94-8.58,12.7S364.39,291.25,364.39,291.25Z" transform="translate(-230.25 -89.79)"/><path class="cls-10" d="M366.14,318.38c-26.86,1.3-59.66-16.58-76.36-42.14,9.37,34.65,46.86,61.61,76.36,60,44.26-2.39,67.78-22.4,75.58-51.5C428.74,304,404.42,316.51,366.14,318.38Z" transform="translate(-230.25 -89.79)"/><path class="cls-11" d="M405.07,239.63c0,5.85-2.15,10.6-4.81,10.6s-4.8-4.75-4.8-10.6S397.61,229,400.27,229,405.07,233.77,405.07,239.63Z" transform="translate(-230.25 -89.79)"/><path class="cls-11" d="M327.76,239.63c0,5.85,2.15,10.6,4.8,10.6s4.81-4.75,4.81-10.6S335.22,229,332.56,229,327.76,233.77,327.76,239.63Z" transform="translate(-230.25 -89.79)"/><path class="cls-12" d="M308.69,227.05s24.69-12.79,37.95-14.35c0,0-4.87-13.72-20.07-8.48C308.56,210.43,308.69,227.05,308.69,227.05Z" transform="translate(-230.25 -89.79)"/><path class="cls-12" d="M423.59,227.05s-24.69-12.79-37.94-14.35c0,0,4.87-13.72,20.06-8.48C423.72,210.43,423.59,227.05,423.59,227.05Z" transform="translate(-230.25 -89.79)"/><path class="cls-6" d="M378.21,261.58a9.07,9.07,0,0,1-18.14,0c0-4.93,4.07-18.06,9.08-18.06S378.21,256.65,378.21,261.58Z" transform="translate(-230.25 -89.79)"/><path class="cls-6" d="M327.75,275.63a2.31,2.31,0,0,1-.92-.2,1.89,1.89,0,0,1-1-2.62l6.71-12.8a2.21,2.21,0,0,1,2.84-.91,1.89,1.89,0,0,1,1,2.61l-6.72,12.81A2.16,2.16,0,0,1,327.75,275.63Z" transform="translate(-230.25 -89.79)"/><path class="cls-6" d="M314.33,275.63a2.36,2.36,0,0,1-.93-.2,1.89,1.89,0,0,1-1-2.62l6.72-12.8a2.22,2.22,0,0,1,2.84-.92,1.9,1.9,0,0,1,1,2.62l-6.72,12.81A2.13,2.13,0,0,1,314.33,275.63Z" transform="translate(-230.25 -89.79)"/><path class="cls-6" d="M409.11,275.63a2.16,2.16,0,0,1-1.92-1.11l-6.71-12.81a1.89,1.89,0,0,1,1-2.61,2.21,2.21,0,0,1,2.84.91l6.71,12.8a1.89,1.89,0,0,1-1,2.62A2.12,2.12,0,0,1,409.11,275.63Z" transform="translate(-230.25 -89.79)"/><path class="cls-6" d="M419.69,274.49a2.14,2.14,0,0,1-1.92-1.11l-6.72-12.8a1.89,1.89,0,0,1,1-2.62,2.23,2.23,0,0,1,2.85.91l6.71,12.81a1.89,1.89,0,0,1-1,2.61A2.18,2.18,0,0,1,419.69,274.49Z" transform="translate(-230.25 -89.79)"/><path class="cls-6" d="M365.75,285.8a52.34,52.34,0,0,1-13.91-1.87,2.48,2.48,0,0,1-1.69-3.12,2.61,2.61,0,0,1,3.24-1.63c.23.07,23.34,6.79,35.45-8.09a2.63,2.63,0,0,1,3.62-.43,2.43,2.43,0,0,1,.44,3.49C385.26,283.55,374.39,285.8,365.75,285.8Z" transform="translate(-230.25 -89.79)"/><path class="cls-1" d="M426.91,146.76,370.29,133l-78.47,24.45L288.25,253c12.43-14.5,26.26-59.92,33.08-84.44,19.5,33.74,81.76,36.3,111.32,35.5.29,41.18,11.66,56.56,11.66,56.56l4.21-57.44Z" transform="translate(-230.25 -89.79)"/></svg>