<svg xmlns="http://www.w3.org/2000/svg" viewBox="0 0 279.7 346.88"><defs><style>.cls-1{isolation:isolate;}.cls-2{fill:#ff8482;}.cls-3{fill:#ff5b59;}.cls-4{fill:#6f87ed;}.cls-5{fill:#420e2f;}.cls-6{fill:#7c1a59;}.cls-7,.cls-9{fill:#fdb193;}.cls-8{fill:#ff8282;opacity:0.39;}.cls-9{opacity:0.55;mix-blend-mode:multiply;}.cls-10{fill:#fdd5c5;}.cls-11{fill:#230f0b;}.cls-12{fill:#e8132c;}.cls-13{fill:#ff6a68;}.cls-14{fill:#25110d;}</style></defs><g class="cls-1"><g id="OBJECTS"><path class="cls-2" d="M460.68,383.25c-47.77-19.22-63.5-43.11-59.42-77.47H348.74c4.08,34.36-11.65,58.25-59.42,77.47s-54.17,40.19-54.17,40.19h279.7S508.44,402.47,460.68,383.25Z" transform="translate(-235.15 -76.56)"/><path class="cls-3" d="M374.64,361.77A81.12,81.12,0,0,0,413,352.1c-10.56-13.11-13.9-28.27-11.76-46.32H348.74c2.16,18.18-1.24,33.42-12,46.6A81.08,81.08,0,0,0,374.64,361.77Z" transform="translate(-235.15 -76.56)"/><path class="cls-4" d="M460.68,383.25c-16.55-6.66-29.25-13.88-38.62-21.91l-44,40.9-49.61-41.33c-9.41,8.19-22.26,15.56-39.11,22.34-47.76,19.22-54.17,40.19-54.17,40.19h279.7S508.44,402.47,460.68,383.25Z" transform="translate(-235.15 -76.56)"/><path class="cls-2" d="M307.12,243.35c8.8,16.83,5.11,36.15-8.24,43.13s-31.32-1-40.13-17.85-5.11-36.15,8.25-43.13S298.31,226.51,307.12,243.35Z" transform="translate(-235.15 -76.56)"/><path class="cls-3" d="M299.39,275.5c-.05-.69-.18-1.28-.25-1.95a11,11,0,0,1,.19,1.2,24.68,24.68,0,0,0-1.45-8.43c-6.95-28.51-33.61-31.38-33.61-31.38,13.5,8.15,21.94,17.14,27.16,24.59-9.59-3.9-24.4,4.37-24.4,4.37,17.57-4.66,25.57-.81,29.24,3.67A38.72,38.72,0,0,1,299.39,275.5Z" transform="translate(-235.15 -76.56)"/><path class="cls-2" d="M442.17,243.35c-8.81,16.83-5.12,36.15,8.24,43.13s31.32-1,40.12-17.85,5.11-36.15-8.24-43.13S451,226.51,442.17,243.35Z" transform="translate(-235.15 -76.56)"/><path class="cls-3" d="M449.89,275.5c.05-.69.18-1.28.26-1.95a11.42,11.42,0,0,0-.2,1.2,24.68,24.68,0,0,1,1.45-8.43c7-28.51,33.61-31.38,33.61-31.38-13.5,8.15-21.93,17.14-27.15,24.59,9.58-3.9,24.39,4.37,24.39,4.37-17.57-4.66-25.56-.81-29.23,3.67A39.23,39.23,0,0,0,449.89,275.5Z" transform="translate(-235.15 -76.56)"/><path class="cls-5" d="M479.38,171.88c10.84-23.73,24.09-65.65-29.55-90.11.39.2-22.93-19.45-64.38,16.28-13.21,11.6-30.94,16.69-47.74,11.13s-38.82-4.92-51.19,25.46c-3.31,8.16-4.38,15.47-3.84,21.93-3.87-4.88-9.18-8.07-14.14-.29-4,6.17-.69,33.51,9,58.21,0,0,5.64,59.38,32.71,68.6l26.65-36.53c22.08-.52,49.6-1.23,72.24-1.75L437,283.09c19.33-6.59,27.73-38.72,31-56.58,1.05-1.17,2.08-2.34,3.14-3.51,12.47-13.76,17.18-32.85,9.55-48.62C480.28,173.54,479.85,172.7,479.38,171.88Z" transform="translate(-235.15 -76.56)"/><path class="cls-6" d="M337.71,109.18c-16.74-5.56-38.82-4.92-51.19,25.46a56.71,56.71,0,0,0-2.89,9.22l.69,1.69S300.69,107.28,337.71,109.18Z" transform="translate(-235.15 -76.56)"/><path class="cls-6" d="M449.83,81.77c.3.16-13.78-11.72-39.61-.1,5.07,0,69.56.67,77.88,63.88C492,123.78,486.79,98.63,449.83,81.77Z" transform="translate(-235.15 -76.56)"/><path class="cls-7" d="M350,147.56a56.42,56.42,0,0,0-56.42,55.83l-.56,53.79c0,49.2,36.53,89.08,81.58,89.08s81.58-39.88,81.58-89.08l-.15-57.06c-.08-29.05-18.75-69.1-47.8-69.1Z" transform="translate(-235.15 -76.56)"/><path class="cls-8" d="M381.09,308s14.63.45,19.85-11.17c0,0,4.16,8.45-5.81,13.44S381.09,308,381.09,308Z" transform="translate(-235.15 -76.56)"/><path class="cls-9" d="M456.07,200.12c-.08-29.05-18.75-69.1-47.8-69.1L350,147.56a56.42,56.42,0,0,0-56.42,55.83l-.26,25.49,8.19-14c0-.24,5.65-24.22,57.33-24.88,18.05-.24,40-5.53,54.3-26.22,5.15,15.44,13.73,29.33,24,37.67a38.68,38.68,0,0,0,19,8.71Z" transform="translate(-235.15 -76.56)"/><path class="cls-10" d="M374.64,334.68c-33.59,0-62.7-19.65-77.09-48.36,11.05,34.88,41.38,59.94,77.09,59.94s66-25.06,77.1-59.94C437.35,315,408.24,334.68,374.64,334.68Z" transform="translate(-235.15 -76.56)"/><path class="cls-11" d="M399.47,272.71a24.1,24.1,0,0,1,1.47,8.32c0,13.1-10.36,23.72-23.14,23.72a23.29,23.29,0,0,1-22.66-18.91Z" transform="translate(-235.15 -76.56)"/><path class="cls-12" d="M377.8,304.75a22.61,22.61,0,0,1-10.93-2.82c2.12-10.3,11.82-18.09,23.47-18.09a25.33,25.33,0,0,1,10.09,2.1A23.28,23.28,0,0,1,377.8,304.75Z" transform="translate(-235.15 -76.56)"/><path class="cls-13" d="M386.29,258.51c0,7.72-5.21,14-11.65,14s-11.65-6.26-11.65-14,5.22-17.37,11.65-17.37S386.29,250.79,386.29,258.51Z" transform="translate(-235.15 -76.56)"/><path class="cls-14" d="M416.63,233.7c0,6.4-2.17,11.59-4.84,11.59S407,240.1,407,233.7s2.17-11.59,4.84-11.59S416.63,227.3,416.63,233.7Z" transform="translate(-235.15 -76.56)"/><path class="cls-5" d="M434.59,221c.62-.36-26.2-17.31-42.76-16.7-.2.27.33-14.79,22.3-6.9C435.42,206.18,434.4,221.26,434.59,221Z" transform="translate(-235.15 -76.56)"/><ellipse class="cls-14" cx="102.34" cy="157.14" rx="4.84" ry="11.59"/><path class="cls-5" d="M312.25,221c-.63-.36,26.19-17.31,42.75-16.7.21.27-.33-14.79-22.3-6.9C311.42,206.18,312.44,221.26,312.25,221Z" transform="translate(-235.15 -76.56)"/><path class="cls-13" d="M325.89,273.05a2.21,2.21,0,0,1-.93-.21,2.14,2.14,0,0,1-1-2.86l6.76-14a2.14,2.14,0,0,1,3.86,1.86l-6.76,14A2.13,2.13,0,0,1,325.89,273.05Z" transform="translate(-235.15 -76.56)"/><path class="cls-13" d="M312.37,273.05a2.21,2.21,0,0,1-.93-.21,2.15,2.15,0,0,1-1-2.86l6.76-14a2.14,2.14,0,0,1,3.86,1.86l-6.76,14A2.13,2.13,0,0,1,312.37,273.05Z" transform="translate(-235.15 -76.56)"/><path class="cls-13" d="M422.11,273.05a2.13,2.13,0,0,1-1.93-1.21l-6.76-14a2.14,2.14,0,0,1,3.86-1.86L424,270a2.15,2.15,0,0,1-1,2.86A2.21,2.21,0,0,1,422.11,273.05Z" transform="translate(-235.15 -76.56)"/><path class="cls-13" d="M435.63,273.05a2.13,2.13,0,0,1-1.93-1.21l-6.76-14A2.14,2.14,0,1,1,430.8,256l6.76,14a2.15,2.15,0,0,1-1,2.86A2.21,2.21,0,0,1,435.63,273.05Z" transform="translate(-235.15 -76.56)"/><path class="cls-5" d="M459.71,176.9l-38.3-65.48-92.57,28L279.19,199.6c10.71,7.94,14.33,13.88,14.33,13.88s5.36-30.88,65.26-31.65c39.3-.5,52.33-25.14,57.47-45.06,1.09,23.26,12.39,47.22,26,58.35,10.13,8.25,19.89,8.39,27.86,5.76Z" transform="translate(-235.15 -76.56)"/></g></g></svg>