<svg id="OBJECTS" xmlns="http://www.w3.org/2000/svg" viewBox="0 0 279.12 326.77"><defs><style>.cls-1{fill:#078c81;}.cls-2{fill:#e83f53;}.cls-3{fill:#fff;}.cls-4{fill:#fd9a8b;}.cls-10,.cls-5{fill:#fd7058;}.cls-6{fill:#fd8977;}.cls-7{fill:#fd5f47;}.cls-8{fill:#1e1c36;}.cls-9{fill:#ebb084;}.cls-10{opacity:0.49;}.cls-11{fill:#ebc5a9;}.cls-12{fill:#25110d;}.cls-13{fill:#fd5f44;}.cls-14{fill:#0ac2b2;}</style></defs><path class="cls-1" d="M509.22,229.84s-13.41,44.47-81.82,13V190.31s40.78,21.64,71,16.24C514.87,203.61,509.22,229.84,509.22,229.84Z" transform="translate(-235.44 -86.61)"/><path class="cls-2" d="M460.5,373.28c-47.67-19.18-63.36-43-59.29-77.31H348.79c4.07,34.29-11.62,58.13-59.29,77.31s-54.06,40.11-54.06,40.11H514.56S508.17,392.46,460.5,373.28Z" transform="translate(-235.44 -86.61)"/><path class="cls-3" d="M314.66,361l1.42,1.13C334,376.4,354.37,384,375,384s41-7.56,58.92-21.87l1.42-1.13c-1.62-1-3.2-2-4.7-3C414.12,371.18,395.17,378.7,375,378.7s-39.12-7.52-55.64-20.71h0C317.86,359,316.28,360,314.66,361Z" transform="translate(-235.44 -86.61)"/><path class="cls-4" d="M319.36,358c16.52,13.19,35.47,20.71,55.64,20.71s39.12-7.52,55.64-20.71c-24.4-16.42-32.49-36.27-29.43-62H348.79C351.85,321.72,343.76,341.57,319.36,358Z" transform="translate(-235.44 -86.61)"/><path class="cls-5" d="M401.21,296H348.79c2,17.23-.93,31.8-10.41,44.49a75.5,75.5,0,0,0,73.4.22C402.17,327.94,399.15,313.3,401.21,296Z" transform="translate(-235.44 -86.61)"/><path class="cls-6" d="M309.4,238.76c8.5,16.27,4.94,34.93-8,41.68s-30.27-1-38.77-17.25-5-34.93,8-41.68S300.89,222.48,309.4,238.76Z" transform="translate(-235.44 -86.61)"/><path class="cls-7" d="M301.93,269.83c-.05-.67-.18-1.24-.25-1.88a10.18,10.18,0,0,1,.19,1.16,23.9,23.9,0,0,0-1.4-8.15C293.75,233.41,268,230.64,268,230.64c13.05,7.87,21.2,16.56,26.24,23.76-9.26-3.77-23.58,4.22-23.58,4.22,17-4.51,24.71-.78,28.26,3.55A37.64,37.64,0,0,1,301.93,269.83Z" transform="translate(-235.44 -86.61)"/><path class="cls-6" d="M439.91,238.76c-8.51,16.27-4.94,34.93,8,41.68s30.26-1,38.77-17.25,4.94-34.93-8-41.68S448.42,222.48,439.91,238.76Z" transform="translate(-235.44 -86.61)"/><path class="cls-7" d="M447.38,269.83c.05-.67.17-1.24.24-1.88-.09.46-.15.85-.19,1.16a23.88,23.88,0,0,1,1.41-8.15c6.72-27.55,32.48-30.32,32.48-30.32-13.05,7.87-21.2,16.56-26.24,23.76,9.26-3.77,23.57,4.22,23.57,4.22-17-4.51-24.71-.78-28.25,3.55A37.64,37.64,0,0,0,447.38,269.83Z" transform="translate(-235.44 -86.61)"/><path class="cls-8" d="M465.31,201.13s8.07,68-26.18,76.76l-28.89-44.22L425,150.31Z" transform="translate(-235.44 -86.61)"/><path class="cls-8" d="M283.61,194.5s-4.44,57.06,21.44,75.39l18-123.34Z" transform="translate(-235.44 -86.61)"/><path class="cls-9" d="M350.88,146.18a54.54,54.54,0,0,0-54.53,54l-.54,52c0,47.54,35.3,86.09,78.84,86.09s78.85-38.55,78.85-86.09L453.35,197a50.94,50.94,0,0,0-50.94-50.8Z" transform="translate(-235.44 -86.61)"/><path class="cls-10" d="M453.39,211.77l0-14.79a50.94,50.94,0,0,0-50.94-50.8H350.88a54.54,54.54,0,0,0-54.53,54v1.28C326.9,194.52,381.07,189.56,453.39,211.77Z" transform="translate(-235.44 -86.61)"/><path class="cls-11" d="M374.65,322.83a89.3,89.3,0,0,1-72.27-36.28c12.17,30.4,39.94,51.67,72.27,51.67s60.11-21.27,72.27-51.67A89.29,89.29,0,0,1,374.65,322.83Z" transform="translate(-235.44 -86.61)"/><path class="cls-12" d="M415.23,229.43c0,6.19-2.09,11.2-4.67,11.2s-4.68-5-4.68-11.2,2.09-11.2,4.68-11.2S415.23,223.25,415.23,229.43Z" transform="translate(-235.44 -86.61)"/><path class="cls-8" d="M432.59,217.17c.6-.35-25.32-16.73-41.32-16.14-.2.26.32-14.29,21.55-6.67C433.39,202.84,432.4,217.41,432.59,217.17Z" transform="translate(-235.44 -86.61)"/><ellipse class="cls-12" cx="103.31" cy="142.82" rx="4.68" ry="11.2"/><path class="cls-8" d="M314.35,217.17c-.6-.35,25.32-16.73,41.32-16.14.2.26-.32-14.29-21.55-6.67C313.55,202.84,314.54,217.41,314.35,217.17Z" transform="translate(-235.44 -86.61)"/><path class="cls-13" d="M327.54,267.47a2.08,2.08,0,0,1-1.87-3L332.21,251a2.07,2.07,0,1,1,3.73,1.8l-6.54,13.52A2.06,2.06,0,0,1,327.54,267.47Z" transform="translate(-235.44 -86.61)"/><path class="cls-13" d="M314.47,267.47a2.08,2.08,0,0,1-1.86-3L319.14,251a2.07,2.07,0,1,1,3.73,1.8l-6.53,13.52A2.09,2.09,0,0,1,314.47,267.47Z" transform="translate(-235.44 -86.61)"/><path class="cls-13" d="M420.53,267.47a2.09,2.09,0,0,1-1.87-1.18l-6.53-13.52a2.07,2.07,0,1,1,3.73-1.8l6.53,13.52a2.08,2.08,0,0,1-1.86,3Z" transform="translate(-235.44 -86.61)"/><path class="cls-13" d="M433.59,267.47a2.07,2.07,0,0,1-1.86-1.18l-6.54-13.52a2.07,2.07,0,1,1,3.73-1.8l6.54,13.52a2.07,2.07,0,0,1-1,2.77A2,2,0,0,1,433.59,267.47Z" transform="translate(-235.44 -86.61)"/><path class="cls-13" d="M356.14,282.52a32.65,32.65,0,0,1-2.72-2,2.22,2.22,0,0,1,2.78-3.46c.75.6,18.53,14.52,31.21,1.86a2.22,2.22,0,1,1,3.13,3.14C379.48,293.15,364.5,288,356.14,282.52Z" transform="translate(-235.44 -86.61)"/><path class="cls-13" d="M354.26,262.92s20.69,10.56,41.38,0c0,0,4.22-14.43-20.69-14.35C350.85,248.64,354.26,262.92,354.26,262.92Z" transform="translate(-235.44 -86.61)"/><path class="cls-14" d="M465.31,201.13s-116.12-35.06-181.7-6.63c0,0-3.45-52.95,12.5-70.39C311.49,107.3,344.7,90.92,377.45,92c39.88,1.35,79.07,23.17,84.45,32.63C481.41,159,465.31,201.13,465.31,201.13Z" transform="translate(-235.44 -86.61)"/><path class="cls-1" d="M332.84,174v9.93C360.6,182.1,390,185.36,414,189.5l1.46-12.92-43.6-23.08Z" transform="translate(-235.44 -86.61)"/><path class="cls-1" d="M364.29,92.11c0,3,6.54,5.5,14.61,5.5s14.61-2.46,14.61-5.5-6.54-5.5-14.61-5.5S364.29,89.08,364.29,92.11Z" transform="translate(-235.44 -86.61)"/><path class="cls-8" d="M415.49,176.58s-45-13.21-82.65-2.62c0,0,5.33-38.53,38-43.24S415.49,176.58,415.49,176.58Z" transform="translate(-235.44 -86.61)"/></svg>