<svg xmlns="http://www.w3.org/2000/svg" width="2294.706" height="2741.781" viewBox="0 0 2294.706 2741.781">
  <g id="disappear_1_" data-name="disappear (1)" transform="translate(48 114.781)">
    <g id="Group_28" data-name="Group 28" transform="translate(2)">
      <g id="Group_27" data-name="Group 27">
        <path id="Path_221" data-name="Path 221" d="M919.446,1339.371H404V860Z" transform="translate(1198.077 -860)" stroke="#000" stroke-width="100"/>
        <rect id="Rectangle_1148" data-name="Rectangle 1148" width="136" height="690" transform="translate(1983 716)" stroke="#000" stroke-width="100"/>
        <path id="Path_222" data-name="Path 222" d="M520.86,979.837H1809.479V860H392V1938.591H520.86Z" transform="translate(-392 -860)" stroke="#000" stroke-width="100"/>
        <rect id="Rectangle_1149" data-name="Rectangle 1149" width="137" height="472" transform="translate(0 1405)" stroke="#000" stroke-width="100"/>
        <rect id="Rectangle_1150" data-name="Rectangle 1150" width="136" height="357" transform="translate(1983 1630)" stroke="#000" stroke-width="100"/>
        <rect id="Rectangle_1151" data-name="Rectangle 1151" width="137" height="126" transform="translate(0 2010)" stroke="#000" stroke-width="100"/>
        <rect id="Rectangle_1152" data-name="Rectangle 1152" width="137" height="126" transform="translate(0 2332)" stroke="#000" stroke-width="100"/>
        <rect id="Rectangle_1153" data-name="Rectangle 1153" width="136" height="138" transform="translate(1983 2439)" stroke="#000" stroke-width="100"/>
        <rect id="Rectangle_1154" data-name="Rectangle 1154" width="136" height="127" transform="translate(1983 2186)" stroke="#000" stroke-width="100"/>
        <rect id="Rectangle_1155" data-name="Rectangle 1155" width="285" height="219" transform="translate(375 1773)" stroke="#000" stroke-width="100"/>
        <rect id="Rectangle_1156" data-name="Rectangle 1156" width="223" height="264" transform="translate(285 2313)" stroke="#000" stroke-width="100"/>
        <rect id="Rectangle_1157" data-name="Rectangle 1157" width="272" height="253" transform="translate(901 2186)" stroke="#000" stroke-width="100"/>
        <rect id="Rectangle_1158" data-name="Rectangle 1158" width="284" height="264" transform="translate(1415 2313)" stroke="#000" stroke-width="100"/>
        <rect id="Rectangle_1159" data-name="Rectangle 1159" width="285" height="219" transform="translate(1460 1809)" stroke="#000" stroke-width="100"/>
        <rect id="Rectangle_1160" data-name="Rectangle 1160" width="284" height="264" transform="translate(901 1406)" stroke="#000" stroke-width="100"/>
      </g>
    </g>
  </g>
</svg>
