<svg xmlns="http://www.w3.org/2000/svg" width="97.156" height="97.156" viewBox="0 0 97.156 97.156">
  <g id="Icon_ionic-md-speedometer" data-name="Icon ionic-md-speedometer" transform="translate(-3.375 -3.375)">
    <path id="Path_215" data-name="Path 215" d="M9,29.25H68.788V40.46H9Z" transform="translate(13.059 60.071)"/>
    <path id="Path_216" data-name="Path 216" d="M30.977,38.451a7.474,7.474,0,1,0-2.055-14.667L13.344,12.41l-.934.817L23.831,28.805a7.29,7.29,0,0,0-.327,2.172A7.466,7.466,0,0,0,30.977,38.451Z" transform="translate(20.976 20.976)"/>
    <path id="Path_217" data-name="Path 217" d="M51.953,3.375A48.567,48.567,0,0,0,13.674,81.847H27.407l.934-.934L33.5,75.752,28.155,70.4l-5.161,5.138A37.226,37.226,0,0,1,14.772,55.69h7.287V48.216H14.772a37.226,37.226,0,0,1,8.221-19.852L28.155,33.5,33.5,28.155l-5.138-5.161a37.226,37.226,0,0,1,19.852-8.221v7.287H55.69V14.772a37.226,37.226,0,0,1,19.852,8.221L70.4,28.155,75.752,33.5l5.161-5.138a37.226,37.226,0,0,1,8.221,19.852H81.847V55.69h7.287a37.226,37.226,0,0,1-8.221,19.852L75.752,70.4,70.4,75.752l5.161,5.161.934.934H90.232A48.567,48.567,0,0,0,51.953,3.375Z"/>
  </g>
</svg>
